<svg width="2845" height="4056" viewBox="0 0 2845 4056" fill="none"
  xmlns="http://www.w3.org/2000/svg">
  <path fill-rule="evenodd" clip-rule="evenodd"
    d="M2721.7 639.98C2718.47 665.07 2720.77 692.42 2692.44 699.03C2666.23 705.15 2637.47 703.44 2610.75 705.58C2580.72 707.99 2550.77 711.29 2520.8 714.26C2483.02 718 2488.41 703.48 2480.15 671.22C2472.6 641.76 2460.55 612.35 2450.53 583.62C2445.88 570.26 2440.31 557.98 2433.96 545.392C2428.21 533.999 2430.95 518.5 2424.75 508.924C2403.6 476.25 2300.43 565.6 2290.84 547.987C2308.3 534.399 2338.51 519.196 2343.86 495.943C2350.16 468.615 2332.79 460.456 2310.97 470.447C2257.27 495.045 2195.29 514.27 2136.73 523.234C2155.67 510.575 2326.98 410.798 2269.49 381.202C2256.53 374.533 2239.22 387.088 2227.54 391.838C2208.99 399.379 2189.62 404.435 2170.26 409.376C2149.86 414.582 2129.4 419.591 2108.89 424.325C2094.5 427.647 2068.85 439.445 2054.83 436.533C2040.6 433.574 2065.81 424.74 2069.94 422.659C2087.94 413.591 2105.65 403.848 2123.23 393.981C2154.4 376.474 2183.2 356.195 2206.91 329.127C2224.81 308.702 2254.35 264.101 2241.89 235.859C2234.68 219.489 2218.86 204.358 2209.56 188.849C2198.71 170.735 2189.95 151.426 2180.53 132.554C2196.3 139.488 2214.01 141.263 2230.11 147.487C2246.21 153.715 2262.56 158.755 2279.31 163.385C2312.91 172.671 2346.42 174.321 2379.72 181.853C2417.42 190.375 2456.7 199.905 2494.99 204.831C2528.34 209.113 2558.32 218.238 2586.9 236.415C2645.24 273.547 2685.72 326.89 2706.19 392.855C2718.18 431.498 2721.1 471.817 2722.51 512.023C2724 554.41 2727.13 597.78 2721.7 639.98ZM2394.25 643.1C2353.5 672.8 2306.01 696 2262.28 721.27C2237.26 735.72 2211.71 749.22 2186.19 762.77C2168.08 772.38 2146.08 790.07 2126.14 795C2113.53 798.12 2114.47 798.36 2106.49 786.86C2098.86 775.89 2092.2 764.07 2085.06 752.76C2071.9 731.92 2058.61 711.15 2045.33 690.38C2015.54 643.83 1985.81 597.29 1954.51 551.73C1923.11 506.008 1892.99 459.449 1862.57 413.083C1848.44 391.527 1834.39 369.888 1819.39 348.924C1807.93 332.916 1778.56 308.5 1792.51 289.654C1805.46 272.146 1834.97 257.603 1852.43 244.351C1873.76 228.173 1895.22 212.16 1916.49 195.899C1962.22 160.941 2006.76 124.462 2052.45 89.458C2091.22 157.458 2136.84 221.207 2182.86 284.427C2141.25 310.976 2099.21 336.212 2055.36 358.941C2022.98 375.727 1973.43 398.409 1952.98 430.253C1932.83 461.608 1952.62 497.786 1988.54 498.362C2010.02 498.705 2031.43 493.016 2052.49 489.767C2067.69 487.421 2095.45 476.463 2109.16 484.187C2084.52 499.904 1995.14 545.709 2043.32 585.87C2077.76 614.58 2135.99 572.68 2173.19 581.31C2161.85 603.06 2150.06 637.77 2181.54 649.61C2207.73 659.46 2242.02 641.1 2265.59 631.36C2282.63 624.33 2299.55 617.06 2316.3 609.38C2329.62 603.27 2345.57 590.9 2359.8 588.26C2376.41 585.18 2410.22 631.46 2394.25 643.1ZM1636.82 2246.81C1660.13 2242.56 1672.1 2232.92 1679.44 2261.22C1686.02 2286.57 1692.54 2310.98 1701.01 2335.86C1664.6 2339.01 1632.48 2356.39 1605.93 2380.84C1587.02 2398.27 1549.41 2439.85 1558.73 2469.03C1581.38 2539.93 1695.78 2380.87 1709.38 2363.87C1726.02 2388.19 1732.14 2420.03 1740.41 2447.84C1746.3 2467.63 1768.15 2505.57 1739.26 2510.38C1698.72 2517.14 1622.65 2532.24 1627.45 2589.65C1633.13 2657.43 1719.36 2657.04 1767.74 2660.09C1795.01 2661.8 1795.14 2683.65 1799.02 2708.1C1800.76 2719.04 1806.19 2733.82 1796.9 2741.83C1788.65 2748.93 1763.4 2749.13 1752.66 2751.43C1721.38 2758.15 1690.11 2764.99 1658.83 2771.7C1623.31 2779.32 1604.53 2768.65 1571.33 2758.92C1559.04 2755.32 1546.69 2756.84 1545.79 2743.08C1545.23 2734.64 1553.5 2721.58 1556.2 2713.23C1566.92 2680.19 1576.04 2646.18 1579.12 2611.48C1583.6 2561.06 1578 2485.48 1515.91 2475.64C1486.38 2470.96 1480.7 2469.43 1467.36 2441.72C1452.94 2411.75 1430.04 2383.99 1435.57 2349.46C1439.58 2324.44 1432.82 2277.1 1448.79 2256.35C1456.18 2246.76 1470.57 2241.03 1480.39 2233.99C1492.91 2225.01 1504.97 2215.4 1516.64 2205.35C1526.45 2196.9 1538.41 2180.38 1549.54 2174.27C1563.13 2166.81 1563.55 2171.89 1573.31 2183.55C1587.72 2200.76 1610.63 2251.59 1636.82 2246.81ZM1702.71 2358.81C1694.63 2375.12 1675.96 2390.27 1664.07 2403.88C1652.11 2417.57 1640.79 2432.04 1627.44 2444.44C1612.76 2458.1 1560.6 2491.08 1572.09 2446.68C1581.04 2412.15 1614.49 2384.18 1643.94 2366.95C1649.65 2363.61 1716.38 2331.23 1702.71 2358.81ZM1759.77 2523.21C1764.94 2546.32 1767.72 2570.14 1772.14 2593.42C1774.4 2605.32 1786.92 2634.07 1781.82 2645.52C1773.17 2664.92 1695.35 2641.95 1679.22 2635.28C1640.83 2619.38 1623.2 2578.59 1658.61 2549.53C1672.04 2538.52 1754.6 2500.1 1759.77 2523.21ZM1810.78 2800.79C1815.12 2822.86 1827.8 2843.31 1806.84 2859.99C1789.43 2873.84 1760.92 2883.29 1739.47 2888.22C1710.24 2894.94 1700.84 2878.56 1685.37 2857.5C1668.73 2834.85 1651.02 2812.97 1632.65 2791.7C1690.35 2778.79 1748.06 2765.87 1805.77 2752.96C1805.73 2769.03 1807.68 2785.04 1810.78 2800.79ZM1672.51 2903.19C1642.42 2901.64 1610.04 2910.69 1579.52 2913.08C1541.4 2916.05 1503.4 2920.38 1465.25 2922.94C1475.02 2891.76 1492.58 2863.95 1506.31 2834.5C1520.09 2804.95 1529.76 2801.75 1561.45 2799.47C1590.82 2797.36 1611.53 2787.25 1633.2 2812.16C1655.75 2838.07 1676.17 2866.22 1696.76 2893.68C1689.76 2898.37 1681.39 2903.66 1672.51 2903.19ZM1457.4 2909.56C1449.97 2914.97 1427.08 2899.59 1419.36 2896.61C1404.35 2890.81 1401.02 2888.95 1393.19 2874.31C1386.46 2861.72 1375.75 2847.42 1373.64 2833.05C1370.86 2814.12 1379.24 2789.18 1382.29 2770.36C1390.42 2789.95 1417.09 2792.23 1435.11 2795.43C1448.74 2797.86 1489.13 2793.99 1499.41 2803.7C1510.76 2814.42 1489.86 2844.32 1484.41 2855.59C1477.91 2869.03 1469.88 2900.47 1457.4 2909.56ZM1442.85 2925.09C1433.92 2926.54 1408.2 2935.43 1408.71 2919.11C1409.29 2900.47 1444.67 2920.58 1442.85 2925.09ZM1397.53 2924.12C1395.9 2939.81 1362.12 2938.51 1361.35 2924.7C1360.03 2901.37 1400.13 2899.05 1397.53 2924.12ZM1358.91 2500.85C1350.27 2525.44 1297.67 2534.24 1277.47 2541.81C1259.02 2548.73 1203.9 2580.65 1184.88 2569.07C1249.27 2524.82 1315.26 2481.46 1369.82 2424.96C1372.05 2438.92 1368.65 2450.57 1364.54 2463.78C1360.82 2475.71 1362.73 2489.95 1358.91 2500.85ZM1342.89 2590.53C1333.63 2650.77 1324.53 2711.81 1311.99 2771.44C1288.1 2764.15 1268.4 2749.35 1243.29 2744.19C1220.38 2739.49 1196.72 2739.38 1173.62 2742.81C1124.4 2750.13 1080.52 2774.47 1037.58 2798.2C1033.61 2756.88 1025.39 2712.67 1026.37 2671.22C1027.17 2636.78 1086.11 2626.58 1112.85 2612.36C1129.02 2603.75 1143.65 2591.65 1162.07 2588.65C1181.04 2585.55 1199.33 2585.65 1218.07 2579.87C1262.35 2566.21 1304.03 2544.55 1347.42 2528.41C1350.96 2549.08 1346.04 2570.15 1342.89 2590.53ZM1301.51 2845.48C1299.54 2859.17 1302.03 2883.61 1291.59 2894.05C1281.76 2903.88 1260.77 2904.2 1247.81 2906.86C1208.33 2914.99 1168.88 2923.19 1129.46 2931.56C1111.82 2935.31 1094.18 2938.89 1076.47 2942.24C1068.02 2943.84 1046.83 2951.94 1039.72 2945.22C1032.97 2938.83 1037.99 2918.44 1038.35 2909.89C1039.08 2892.8 1040.05 2875.66 1038.97 2858.57C1036.92 2825.78 1038.74 2813.23 1069.26 2796.27C1101.69 2778.24 1135.18 2765.9 1171.68 2759.22C1208.63 2752.46 1243.83 2756.16 1279 2770.34C1288.79 2774.28 1303.47 2779.15 1308.03 2789.7C1314.22 2804.06 1303.6 2830.93 1301.51 2845.48ZM1257.06 3373.98C1242.59 3383.06 1211.1 3381.51 1194.48 3383.35C1167.63 3386.32 1140.62 3384.62 1113.95 3380.48C1093.88 3377.37 1063.92 3373.05 1048.53 3358.96C1026.67 3338.94 1051.9 3338.02 1068.63 3339.43C1117.26 3343.52 1166.51 3340.67 1215.1 3337.15C1224.56 3336.47 1249.99 3328.16 1259.11 3332.05C1270.77 3337.02 1267.2 3367.63 1257.06 3373.98ZM1229.49 3697.54C1138.87 3688.73 1086.34 3613.71 1053.47 3537.02C1035.84 3495.84 1042.2 3452.63 1040.46 3409.09C1040.14 3401.14 1035.15 3381.4 1043.32 3375.46C1051.01 3369.88 1082.09 3387.14 1090.5 3389.2C1133.6 3399.76 1181.27 3400.77 1224.46 3390.51C1243.17 3386.07 1253.65 3377.8 1259.6 3396.34C1264.38 3411.28 1256.53 3438.79 1255.67 3454.44C1254.19 3481.51 1258.43 3700.34 1229.49 3697.54ZM1048.47 3697.62C1048.12 3684.48 1041.49 3551.68 1047.92 3551.28C1067.04 3592.51 1086.68 3629.4 1121.48 3659.73C1139.26 3675.23 1159.25 3689.2 1181.48 3697.52C1189.84 3700.65 1237.17 3703.02 1239.49 3713.38C1243.55 3731.51 1211.23 3724.19 1201.65 3722.72C1193.96 3721.53 1187.04 3718.26 1179.49 3716.89C1165.12 3714.28 1151.54 3717.78 1137.1 3718.07C1115.17 3718.52 1093.64 3716.22 1071.69 3718.12C1051.64 3719.85 1049 3717.55 1048.47 3697.62ZM1061.84 3101.97C1139.42 3076.9 1204.25 3124.38 1245.19 3186.52C1268.53 3221.96 1273.75 3246.73 1269.67 3288.69C1268.2 3303.72 1270.9 3313.88 1257.09 3320C1243.42 3326.07 1212.36 3321.57 1197.57 3322.26C1155.03 3324.25 1112.65 3326.89 1070.11 3324.37C1042.48 3322.73 1038.57 3318.05 1039.05 3291.23C1039.62 3258.95 1036.94 3226.81 1035.11 3194.47C1033.13 3159.49 1021.12 3115.13 1061.84 3101.97ZM1036.46 3055.47C1036.51 3031.75 1035.08 3007.41 1036.53 2983.73C1037.98 2960.25 1047.97 2961.41 1070.14 2957.4C1118.15 2948.72 1166.11 2939.01 1213.47 2927.25C1232.2 2922.6 1253.37 2913.67 1272.89 2913.6C1293.37 2913.52 1292.28 2924.04 1290.92 2942.17C1287.88 2982.33 1280.52 3021.9 1278.28 3061.85C1275.87 3104.96 1274.6 3148.62 1274.79 3191.78C1274.86 3206.35 1278.4 3217.14 1265.98 3203.51C1253.54 3189.85 1247.46 3168.09 1236.35 3152.74C1213.6 3121.31 1179.8 3096.03 1142.28 3085.38C1121.53 3079.5 1099.72 3078.48 1078.57 3082.74C1072.15 3084.03 1040.01 3099.37 1035.92 3096.34C1033.15 3094.29 1036.46 3056.43 1036.46 3055.47ZM1320.25 3877.6C1351.02 3899.63 1385.09 3917.43 1419.58 3932.88C1438.99 3941.58 1515.81 3959.87 1518.26 3979.44C1519.57 3989.88 1506.84 4001.58 1498.5 4002.81C1487.92 4004.38 1470.49 3997.47 1459.72 3996.16C1420.54 3991.41 1381.44 3991.38 1343.21 3980.47C1266.88 3958.69 1187.75 3952.56 1110.63 3933.57C1092.28 3929.06 1073.88 3924.82 1055.44 3920.73C1037.92 3916.84 1030.07 3917.51 1029.46 3898.79C1028.09 3857.71 1039.88 3815.62 1039.97 3774.03C1102.36 3781.15 1164.96 3781.06 1227.52 3786.92C1254.33 3789.42 1253.71 3794.5 1265.45 3817.92C1277.65 3842.22 1298.39 3861.96 1320.25 3877.6ZM1016.05 2542.9C1015.26 2527.7 1014.64 2512.45 1013.27 2497.28C1012.34 2487.09 1003.03 2458.61 1008.28 2450.67C1014.52 2441.25 1020.8 2447 1031.96 2446.74C1046.67 2446.39 1058.98 2440.48 1071.11 2432.74C1094.08 2418.09 1111.16 2398.81 1126.07 2376.31C1139.18 2356.5 1136.74 2329.44 1136.58 2305.73C1136.17 2244.4 1140.64 2184.59 1136.89 2122.99C1135.17 2094.7 1159.33 2112.05 1178.83 2115.71C1210.74 2121.7 1245.42 2117.56 1277.85 2117.63C1276.64 2125.18 1210.33 2143.9 1199.62 2151.02C1172.19 2169.26 1156.2 2198.43 1158.7 2231.69C1163.74 2298.61 1237.44 2309.79 1291.3 2309.92C1246.62 2349.43 1202.73 2387.09 1167.61 2435.82C1141.72 2471.76 1096.11 2542.6 1138.44 2582.36C1101.02 2603.61 1063.94 2627.24 1021.61 2637.47C1019.72 2605.95 1017.69 2574.44 1016.05 2542.9ZM999.06 1321.41C1014.29 1331.2 1020.7 1317.36 1032.3 1310.2C1048.62 1300.11 1054.03 1301.1 1056.1 1278.56C1059.93 1236.75 1042.34 1198.9 1020.25 1164.69C1010.22 1149.14 1000.2 1130.62 986.03 1118.46C973.11 1107.38 960.06 1111.19 948.09 1099.74C943.39 1095.23 944.4 1088.88 936.63 1089.06C931.51 1089.18 919.08 1105.02 914.86 1108.52C901.51 1119.56 885.19 1127.97 867.7 1118.86C842.24 1105.6 850.42 1057.49 870.19 1041.9C885.42 1029.9 903.42 1031.75 920.76 1029.82C933.76 1028.37 936.46 1028.94 931.11 1014.06C927.37 1003.64 918.73 995.51 914.46 985.33C906.25 965.76 908.04 941.99 904.5 921.28C901.32 902.73 893.88 882.66 894.15 863.82C894.5 839.83 902.34 833.6 923.13 826.87C943.27 820.36 959.95 806 977.1 793.93C996.52 780.27 1017.79 771.25 1037.74 758.77C1051.29 750.3 1060.03 733.18 1074.93 741.18C1092.63 750.68 1111.35 778.2 1126.4 792.26C1104.37 806.23 1099.25 812.35 1102.29 839.71C1105.07 864.8 1110.18 887.15 1129.36 904.63C1136.73 911.35 1150.48 916.72 1156.19 924.47C1162.85 933.49 1158.52 925.54 1157.68 935.72C1157.23 941.21 1152.88 944.8 1153.83 951.15C1158.06 979.35 1190.45 962.71 1203.8 952.91C1251.5 917.92 1162.44 890.13 1141.29 877.38C1126.68 868.57 1119.46 840.46 1142.6 847.93C1157.99 852.9 1192.77 895.01 1196.3 856.62C1234.48 878.79 1258.03 925.89 1290.04 955.68C1313.12 977.16 1344.13 1000.98 1325.81 1035.28C1302.46 1079.01 1256.16 1098.86 1213.9 1117.72C1172.9 1136.02 1181.42 1187.8 1203.33 1219.49C1216 1237.82 1232.6 1248.55 1252.57 1257.45C1272.97 1266.55 1277.2 1277.24 1281.66 1298.34C1286.61 1321.75 1281.35 1331.19 1261.08 1343.28C1241.28 1355.09 1220.59 1366.53 1199.45 1375.78C1153.76 1395.77 1106.35 1397.03 1057.75 1403.85C1040.71 1406.24 1024.38 1411.21 1015.08 1394.32C1004.63 1375.32 1003.86 1342.6 999.06 1321.41ZM991.71 1230.48C980.27 1224.45 952.66 1244.47 938.2 1245.35C914.81 1246.76 899.45 1246.23 878.69 1258.63C839.44 1282.08 806.86 1312.28 775.39 1345.02C739.94 1381.9 704.69 1418.97 669.35 1455.95C653.34 1472.71 637.24 1489.38 620.98 1505.88C608.16 1518.88 595.62 1537.17 579.76 1546.46C580.58 1535.43 587.34 1527.63 589.74 1517.41C591.14 1511.44 588.7 1506.36 589.6 1500.64C589.9 1498.79 594.89 1492.33 595.64 1490.21C597.67 1484.62 600.15 1479.1 602.55 1473.3C604.79 1467.88 604.47 1462.26 606.74 1456.6C609.08 1450.77 615.49 1446.91 617.71 1441.16C624.23 1424.34 613.44 1416.55 596.19 1416.94C602.94 1383.29 605.89 1366.83 641.08 1354.97C674.7 1343.63 707.54 1330.91 738.43 1313.19C765.85 1297.46 788.72 1274.8 815.08 1257.27C838.68 1241.57 868.06 1225.13 867.82 1192.94C881.2 1202.02 893.74 1209.65 909.04 1200.62C921.96 1192.99 923.67 1186.85 938.61 1185.41C950.8 1184.24 958.35 1183.93 969.23 1189.29C982.03 1195.6 983.78 1199.98 991.24 1181.42C999.71 1188.55 1021.14 1218.26 1020.42 1230.01C1020.03 1236.49 1019.05 1239.41 1011.02 1241.12C999.64 1243.54 1000.08 1234.88 991.71 1230.48ZM938.37 2988.45C932.81 2996.98 909.34 2995.41 900.28 2995.29C872.66 2994.94 863 2971.75 850.88 2949.36C831.78 2914.05 803.22 2840.7 834.56 2803.64C859.31 2774.39 907.5 2811.24 924.38 2833.33C938.95 2852.42 934.62 2881.04 935.97 2903.94C937.12 2923.24 949.37 2971.62 938.37 2988.45ZM862.91 3001.24C851.87 3012.28 816.02 3009.95 801.39 3012.32C775.28 3016.54 749.3 3021.62 723.97 3029.34C705.1 3035.08 686.46 3050.52 681.48 3024.24C677.31 3002.13 679.39 2975.62 679.79 2953.31C680.22 2929.24 682.73 2905.48 684.83 2881.52C686.24 2865.32 682.7 2835.51 695.93 2823.07C707.33 2812.36 735.05 2811.32 749.85 2807.77C774.16 2801.94 799.55 2794.29 824.82 2796.9C810.08 2836.9 808.83 2878.85 824.63 2918.71C829.14 2930.09 869.73 2994.42 862.91 3001.24ZM677.16 2841.88C671.01 2902.05 664.81 2962.6 670.74 3023.08C671.1 3026.68 675.41 3043.21 673.53 3045.79C671.6 3048.47 656.26 3049.86 652.78 3050.68C638.94 3053.96 625.13 3057.43 611.21 3060.34C584.12 3066.01 580.58 3048.89 575.27 3023.79C563.88 2970 585.96 2911.68 599.33 2860.02C605.85 2834.86 610.68 2831.96 635.42 2829.88C652.64 2828.43 679.78 2816.31 677.16 2841.88ZM572.54 3066.37C562.19 3075.79 551.84 3031.36 550.92 3026.84C547.31 3008.86 549.32 2990.62 549.37 2972.36C549.46 2943.84 547.28 2915.45 547.24 2887.06C547.21 2871.71 535.71 2840.32 553.88 2832.19C559.21 2829.81 580.4 2830.8 585.2 2833.94C595.19 2840.46 591.25 2844.68 588.29 2856.02C581.67 2881.48 575.94 2907.06 570.17 2932.72C564.51 2957.89 558.93 2982.1 561.63 3008.09C562.51 3016.68 579.14 3060.37 572.54 3066.37ZM902.73 2786C927.97 2778.89 929.32 2798.23 929.28 2816.73C925.43 2813.78 889.57 2789.72 902.73 2786ZM565.12 1427.74C558.94 1437.93 519.77 1440.71 508.58 1443.39C486.56 1448.67 464.53 1453.9 442.56 1459.4C401.414 1469.68 361.278 1481.29 319.096 1486.67C342.259 1449.59 349.466 1417.57 345.156 1371.3C339.72 1312.87 332.809 1255.04 319.356 1197.85C306.095 1141.46 290.742 1085.44 275.954 1029.43C268.69 1001.91 260.834 974.91 251.172 948.14C243.425 926.67 231.327 899.66 244.474 877.65C277.839 901.99 304.6 928.21 323.629 965.19C344.019 1004.82 361.818 1045.51 385.479 1083.43C396.3 1100.76 408.93 1116.57 420.51 1133.35C427.39 1143.34 432.41 1157.74 441.18 1166.17C451.29 1175.87 462.06 1180.45 467.84 1164.07C474.04 1146.49 454.27 1111.7 448.43 1095.19C434.33 1055.33 420.36 1015.56 409.48 974.67C400.687 941.63 386.149 901.67 391.294 866.8C396.388 832.28 419.82 856.99 431.67 873.04C456.11 906.12 470.74 944.69 486.79 982.21C501.55 1016.67 518.76 1049.53 535.09 1083.19C540.77 1094.91 548.26 1125.17 563.14 1128.65C584.77 1133.72 582.94 1103.26 580.87 1090.9C567.17 1008.98 531.38 930.54 523.96 847.2C523.6 843.22 518.43 812.25 522.59 809.66C530.65 804.65 541.53 836.06 545.01 843.76C563.1 883.79 575.7 926 587.26 968.29C597.1 1004.26 605.99 1040.49 617.03 1076.12C623.1 1095.7 630.05 1114.96 636.9 1134.27C643.1 1151.77 649.39 1181.67 665.56 1193.2C688.5 1209.55 770.59 1170.67 778.91 1205.43C784.83 1230.14 708.71 1250.04 692.5 1257.55C671.16 1267.43 650.23 1278.24 628.88 1288.13C612.71 1295.61 589.48 1298.68 577.79 1312.75C565.4 1327.67 563.42 1348.61 563.05 1367.1C562.76 1381.1 572.47 1415.66 565.12 1427.74ZM513.25 1697.58C512.16 1705.34 505.99 1715.62 503.21 1723.01C497.56 1738.07 492.75 1756.06 484.88 1770.13C478.12 1782.24 468.13 1793.07 461.6 1805.37C455.4 1817.04 454.57 1830.49 447.33 1842.18C439.04 1855.53 425.34 1865.13 417.11 1878.4C413.06 1884.94 408.87 1892.41 403.14 1899.39C382.84 1924.08 362.689 1947.37 346.365 1973.82C342.191 1980.6 321.801 2010.15 313.685 2011.75C296.722 2015.09 316.468 1990.98 319.786 1985.99C343.821 1949.92 365.166 1911.96 388.365 1875.33C410.84 1839.87 433.83 1804.69 455.46 1768.69C473.1 1739.34 485.29 1697.21 513.96 1676.54C514.07 1683.57 513.84 1690.58 513.25 1697.58ZM1296.97 1366.13C1310.93 1423.51 1327.63 1479.12 1343.37 1536C1357.97 1588.77 1377.41 1645.24 1383.46 1699.64C1389.46 1753.53 1403.24 1808.06 1421.77 1859.21C1430.34 1882.88 1439.15 1906.64 1448.45 1930.03C1453.56 1942.88 1459.27 1955.44 1465.07 1967.99C1469.57 1977.75 1481.47 1993.54 1481.92 2003.87C1482.29 2012.14 1485.16 2008.84 1477 2015.05C1468.54 2021.5 1453.88 2019.16 1444.03 2020.29C1418.34 2023.26 1393.29 2032.93 1368.24 2039.19C1319.94 2051.25 1262.36 2060.83 1212.87 2052.44C1192.05 2048.9 1170.42 2045.84 1149.83 2041.24C1124.5 2035.57 1119.29 2025.09 1114.09 2000.19C1102.72 1945.77 1092.93 1891.49 1083.54 1836.71C1072.38 1771.54 1060.3 1706.45 1051.68 1640.87C1042.98 1574.54 1036.73 1508.14 1023.1 1442.53C1078.1 1451.72 1129.89 1462.11 1185.06 1447.04C1233.91 1433.7 1269.17 1407.62 1296.97 1366.13ZM1512.28 2076.59C1524.57 2101.93 1494.93 2124.71 1480.57 2144.23C1461.63 2169.95 1443.94 2196.83 1421.91 2220.1C1415.3 2193.66 1409.5 2163.91 1391.87 2142.19C1369.34 2114.46 1343.06 2125.79 1315.46 2112.67C1344.4 2098.6 1381.35 2103.97 1412.05 2091.42C1442.33 2079.04 1472.9 2069.32 1501.07 2053.24C1504.81 2061.02 1508.51 2068.82 1512.28 2076.59ZM1404.96 2667.78C1386.47 2668.8 1398.84 2629.81 1400.04 2620.12C1403.34 2593.48 1406.68 2566.85 1409.57 2540.16C1424.83 2580.39 1440.09 2620.63 1455.34 2660.85C1438.57 2663.24 1421.92 2666.84 1404.96 2667.78ZM1374.88 2860.63C1377.4 2866.24 1389.17 2884.92 1379.88 2888.37C1367.15 2893.09 1365.62 2862.14 1374.88 2860.63ZM1352.81 2427.23C1293.9 2474.26 1235.39 2521.41 1171.64 2561.9C1157.68 2570.77 1143.61 2574.48 1134.35 2556.89C1127.08 2543.06 1134.76 2527.48 1139.43 2513.94C1151.33 2479.41 1172.06 2449.4 1195.04 2421.31C1240.93 2365.2 1295.55 2317.27 1365.24 2295.15C1376.64 2291.53 1394.24 2280.61 1398.23 2295.69C1400.59 2304.56 1390.63 2326.72 1388.61 2335.04C1380.29 2369.42 1382.11 2403.86 1352.81 2427.23ZM1522.41 2770.22C1523.7 2810.16 1414.52 2777.94 1400.91 2770.81C1415.19 2766.02 1521.82 2752.27 1522.41 2770.22ZM1562.95 2770.47C1569.44 2772.2 1594.32 2774.39 1585.02 2782.89C1576.7 2790.5 1539.04 2787.45 1529.05 2788.39C1535.76 2766.35 1540.85 2764.59 1562.95 2770.47ZM1542.72 2716.98C1540.28 2725.86 1539.29 2739.41 1531.33 2745.5C1521.4 2753.09 1500.32 2748.48 1489.09 2748.54C1470.01 2748.64 1450.96 2749.62 1431.97 2751.51C1424.71 2752.23 1395.29 2761.1 1388.48 2755.05C1383.48 2750.61 1385.35 2729.77 1388.99 2725.09C1396.46 2715.46 1413.68 2718.79 1424.47 2718.41C1463.95 2717 1503.22 2716.88 1542.72 2716.98ZM1517.38 2569.36C1511.8 2561.09 1510.81 2561.17 1508.43 2548.66C1505.89 2535.28 1499.43 2523.83 1495.63 2510.89C1487.27 2482.43 1513.98 2484.96 1533.58 2495.39C1584.41 2522.47 1572.14 2617.09 1559.57 2661.38C1541.29 2647.95 1534.55 2641.85 1528.26 2620.18C1525.87 2611.94 1523.19 2603.85 1520.7 2595.66C1518.88 2589.63 1520.15 2573.49 1517.38 2569.36ZM1521.78 2108.88C1535.97 2107.16 1548.95 2151.19 1544.9 2160.72C1536.6 2180.21 1504.89 2197.62 1488.74 2210.06C1477.99 2218.34 1467.31 2227.84 1455.82 2235.06C1445.15 2241.76 1439.01 2238 1429.09 2241.22C1414.73 2245.86 1411.25 2261.05 1396.56 2267.58C1375.89 2276.77 1350.83 2279.34 1329.23 2287.63C1303.03 2297.7 1279.02 2297.97 1251.55 2293.2C1212.04 2286.34 1165.73 2266.75 1169.29 2218.75C1175.57 2134.06 1343.78 2090.67 1389.65 2162.47C1401.6 2181.17 1401.41 2202.95 1409.16 2223.03C1417.56 2244.75 1425.7 2236.22 1438.33 2220.21C1454.85 2199.27 1470.2 2177.22 1486.07 2155.78C1491.2 2148.85 1511.53 2110.12 1521.78 2108.88ZM490.91 2933.42C490.1 2947.82 490.96 2962.43 485.95 2976.17C480.91 2990.03 470.67 3001.24 464.78 3014.71C452.83 3042 452.92 3075.03 453.4 3104.28C454.51 3172.33 470.63 3238.42 479.15 3305.66C450.78 3305.59 421.45 3305.92 393.942 3297.8C369.378 3290.56 365.458 3272.61 358.511 3249.99C339.003 3186.46 317.933 3123.2 311.635 3056.67C308.639 3024.97 307.378 2993 305.945 2961.2C304.693 2933.29 310.96 2921.12 336.153 2907.31C390.91 2877.28 447.67 2852.28 501.87 2820.82C496.33 2858.14 493.02 2895.76 490.91 2933.42ZM2828.53 703.74C2815.19 701.29 2801.73 699.76 2788.28 698.16C2781.26 697.32 2759.39 698.49 2754.13 693.91C2747.88 688.47 2758.71 647.3 2759.26 638.47C2762.65 585.34 2758.71 530.579 2753.84 477.657C2745.02 381.852 2714.88 293.095 2645.36 224.109C2610.75 189.768 2571.84 162.524 2524.58 149.376C2497.04 141.715 2468.67 137.63 2441.07 130.203C2418.81 124.203 2398.04 117.336 2374.91 114.958C2328.79 110.214 2286.62 92.79 2241.61 82.71C2208.5 75.293 2155.23 57.703 2133.76 95.089C2116.86 75.272 2099.86 60.391 2078.55 45.609C2058.13 31.449 2054.8 17.305 2029.8 33.655C1981.22 65.426 1935.73 104.183 1890.36 140.329C1847.98 174.088 1806.99 209.44 1762.58 240.484C1717.29 272.151 1725.87 325.888 1747.17 370.438C1787.25 454.29 1849.05 525.975 1903.16 597.85C1937.05 642.88 1971.05 687.96 2004.8 733.08C2037.07 776.2 2064.98 826.11 2102.68 864.85C2126.46 889.27 2154.83 857.33 2176.29 842.58C2202.92 824.25 2229.08 805.24 2255.75 786.97C2311.27 748.9 2370.68 713.25 2429.29 680.11C2433.55 692.19 2437.82 704.28 2442.08 716.36C2429.21 717.33 2411.81 714.45 2405.27 728.29C2395.9 748.05 2418.87 750.65 2422.89 761.98C2426.49 772.1 2411.75 798.83 2407.38 807.95C2397.58 828.5 2383.88 846.22 2368.79 863.13C2309.1 930.07 2233.56 977.95 2156.92 1023.59C2074.9 1072.43 1987 1102.24 1897.21 1133.71C1851.55 1149.71 1804.16 1157.14 1757.04 1167.39C1711.64 1177.26 1666.28 1190.22 1619.89 1193.95C1524.98 1201.56 1424.26 1207.27 1330.49 1186.81C1320.23 1184.57 1309.36 1179.72 1298.92 1178.79C1290.55 1178.05 1284.35 1181.56 1276.45 1182.01C1259.48 1182.98 1249.76 1167.81 1236.28 1181.91C1229.53 1188.96 1229.41 1200.8 1220.02 1187.64C1208.06 1170.9 1238.62 1167.66 1249.94 1162.89C1288.08 1146.83 1318.72 1114.51 1342.95 1081.83C1367.16 1049.17 1370.64 1014.3 1355.9 976.07C1341.17 937.85 1307.65 911.94 1282.49 880.91C1270.32 865.88 1259.12 849.98 1245.75 835.95C1238.62 828.46 1227.12 821.29 1226.68 813.73C1226.16 804.95 1231.42 800.58 1228.27 789.9C1227.46 787.13 1223.97 785.55 1223.22 782.5C1222.05 777.63 1223.87 773.46 1223.26 768.72C1221.84 757.85 1217.58 751.03 1211.55 742.12C1207.79 736.56 1202.29 725.42 1197.12 721.25C1188.05 713.94 1175.69 716.92 1166.47 709.51C1151.89 697.8 1146.76 673.11 1133.86 658.89C1115.69 638.88 1111.82 659.1 1092.58 652.72C1076.12 647.26 1076.32 622.51 1063.02 614.13C1044.29 602.34 1028.52 624.04 1011.88 628.87C990 635.23 998.41 610.55 978.91 608.3C961.3 606.27 936.9 641.99 928.12 654.67C919.17 644.24 909.38 626.48 893.28 632.84C876.38 639.53 873.38 670.63 861.02 681.73C856.72 685.58 857.63 688.43 852.33 690.21C845.49 692.5 836.38 682.57 827.54 685.6C809.7 691.7 811.88 715.5 811.84 730.92C790.8 727.84 776.12 726.27 769.08 748.95C762.18 771.15 759.56 761.35 737.38 768.56C718.25 774.77 715.57 792.94 712.42 810.7C710.47 821.74 712.27 826.25 715.24 836.32C718.99 849.01 718.99 848.85 712.88 860.96C702.23 882.08 701.59 905.36 699.89 928.6C698.08 953.41 693.74 976 700.79 1000.23C705.15 1015.22 705.49 1035.63 720.17 1044.02C726 1047.35 735.9 1045.53 740.86 1048.83C750.32 1055.13 747.44 1064.72 753.74 1073.93C758.47 1080.81 766.08 1081.48 771.38 1087.06C777.13 1093.14 777.47 1100.55 780.75 1107.97C790.45 1129.93 799.57 1140.56 767.95 1141.81C748.45 1142.59 727.65 1148.44 708.22 1146.64C685.3 1144.53 679.6 1131.72 672.3 1112.21C635.53 1013.91 615.77 907.37 567.34 813.89C556.71 793.37 513.06 709.53 494.61 770.62C479.06 822.14 499.47 885.02 507.29 936.31C482.74 914.18 473.66 874.33 455.01 847.32C441.24 827.36 398.122 778.35 372.846 806.43C352.923 828.57 357.903 875.51 361.579 901.97C367.389 943.84 380.769 984.19 390.328 1025.25C378.293 1009.51 372.358 990.29 364.009 972.57C353.536 950.35 340.467 929.26 325.576 909.74C312.564 892.67 298.015 876.81 282.241 862.26C270.185 851.13 248.591 826.78 231.467 825.46C187.4 822.08 201.258 902.9 207.972 926.01C221.882 973.9 236.965 1020.47 247.765 1069.33C268.877 1164.78 294.448 1258.03 309.999 1354.69C313.442 1376.13 317.59 1393.24 309.111 1413.84C301.64 1431.99 293.888 1453.7 280.102 1467.65C248.897 1499.26 222.988 1533.01 199.664 1571.09C174.679 1611.88 148.962 1653.13 128.567 1696.43C119.19 1716.35 111.521 1737.9 100.742 1757.06C91.012 1774.36 79.314 1788.02 72.397 1807.17C39.349 1898.66 14.878 1988.56 3.67296 2085.44C-5.52804 2164.98 3.04499 2270.78 99.096 2289.39C143.219 2297.94 182.836 2278.38 222.624 2262.23C263.778 2245.53 293.535 2218.39 327.102 2189.54C368.812 2153.69 412.11 2120.06 454.27 2084.81C496.44 2049.54 535.39 2010.43 577.33 1974.78C618.76 1939.56 656.24 1902.16 692.06 1861.27C727.6 1820.7 756.47 1775.75 790.88 1734.62C790.75 1787.88 782.85 1840.65 780.63 1893.84C778.6 1942.6 778.55 1991.32 780.52 2040.06C782.49 2088.77 769.62 2135.14 769.51 2183.74C769.4 2231.16 767.52 2278.3 766.48 2325.66C766.02 2346.91 761.85 2370.75 769.79 2391.24C775.72 2406.55 794.36 2411.34 810.25 2415.46C834.82 2421.84 908.75 2409.56 919.72 2435.8C925.71 2450.12 919.68 2476.2 920.14 2492.02C920.92 2518.1 921.88 2544.17 922.77 2570.24C923.69 2597.17 924.59 2624.1 925.57 2651.02C926.45 2674.74 931.06 2701.17 928.2 2724.66C925.76 2744.79 914.02 2742.15 895.41 2743.19C867.33 2744.74 839.24 2745.98 811.15 2747.21C769.94 2749.02 726.93 2748.19 687.42 2753.05C670.83 2755.09 652.7 2754.23 635.19 2757.55C613.24 2761.73 592.97 2762.79 570.7 2763.89C552.75 2764.78 529.68 2763.48 515.58 2776.74C510.68 2781.35 509.59 2786.83 506.12 2791.96C499.62 2801.55 503.24 2799.03 492.58 2801.19C450.95 2809.62 411.41 2819.13 370.696 2833.32C350.317 2840.42 331.407 2849.96 310.934 2856.64C292.989 2862.49 279.837 2869.7 270.969 2887.31C255.122 2918.76 259.136 2964.27 260.283 2998.17C262.09 3051.05 273.84 3101.4 286.515 3152.55C299.698 3205.76 310.035 3260.39 335.68 3309.27C344.107 3325.34 353.204 3345.83 370.416 3354.2C392.639 3365.01 426.81 3358.46 451.07 3358.5C467.34 3358.53 510.94 3364.12 523.11 3350.47C534.89 3337.26 523.04 3299.99 521.37 3283.59C515.54 3226.12 505.05 3168.12 505.19 3110.27C518.47 3129.88 541.49 3163.74 564.53 3133.69C570.2 3126.29 567.99 3122.85 578.05 3118.57C583.62 3116.19 595.36 3114.74 601.43 3115.15C609.68 3115.71 612.73 3119.02 620.31 3117.4C627.02 3115.96 634.57 3109.96 642.26 3108.13C737.63 3085.47 832.44 3061.04 928.22 3040.85C953.54 3035.51 949.94 3054.95 951.61 3076.83C953.46 3101.04 949.94 3125.5 953.3 3149.43C956.22 3170.26 958.49 3190.56 954.38 3211.52C949.52 3236.23 952.65 3256.85 957.48 3281.32C976.11 3375.7 972.78 3478.06 976.98 3573.98C979.17 3623.94 974.47 3674.95 979.17 3724.64C980.95 3743.4 991.43 3753.77 995.67 3770.85C1000.55 3790.45 987.25 3815.41 983.21 3834.4C975.08 3872.52 960.8 3927.08 986.92 3960.25C1001.02 3978.17 1019.51 3980.76 1040.39 3986.82C1065.38 3994.07 1090 4002.52 1115.11 4009.39C1206.83 4034.49 1305.94 4039.4 1399.95 4053.23C1422.96 4056.62 1444.31 4056.3 1467.48 4054.7C1481.76 4053.7 1516.93 4058.4 1528.81 4049.86C1535.17 4045.29 1531.94 4039.56 1535.18 4033.97C1539.77 4026.03 1545.33 4022.8 1553.15 4017.86C1566.1 4009.68 1581.08 4004.9 1583.26 3988.01C1588.61 3946.64 1536.9 3924.72 1509.25 3906.83C1473.92 3883.96 1431.24 3875.13 1393.74 3856.47C1373.05 3846.17 1353.09 3834.5 1333.15 3822.82C1324.51 3817.75 1306.99 3812.02 1300.96 3804.04C1294.81 3795.9 1300.83 3784.28 1303.38 3772.65C1313.89 3724.59 1310.33 3675.45 1315.77 3626.88C1321.21 3578.24 1319.73 3529.29 1321.52 3480.4C1323.37 3430.05 1327.53 3379.82 1330.72 3329.54C1333.66 3283.1 1336.62 3235.91 1337.12 3189.43C1337.58 3146.32 1343.46 3104.03 1344.85 3060.64C1345.32 3045.92 1342.68 3019.21 1352.45 3006.73C1361.03 2995.79 1389.43 2997.17 1402.67 2995.25C1438.37 2990.07 1472.35 2985.52 1507.65 2982.4C1591.64 2974.97 1685.1 2969.5 1764.52 2940.23C1797.28 2928.16 1840.86 2911.67 1851.73 2874.06C1864.23 2830.84 1847.91 2777.71 1847.37 2733.51C1846.8 2686.33 1833.11 2640.29 1822.85 2594.56C1811.81 2545.34 1804.85 2495.28 1792.91 2446.24C1781.95 2401.25 1764.19 2361.4 1747.39 2318.68C1740.57 2301.36 1701.76 2241.65 1713.8 2226.93C1720.29 2219 1743.65 2216.99 1753.12 2213.36C1773.55 2205.55 1794.01 2196.66 1812.85 2185.54C1837.99 2170.67 1893.06 2146.09 1895.6 2113.08C1898.01 2081.52 1867 2049.63 1851.23 2024.85C1825.83 1984.91 1793.8 1950 1769.61 1909.28C1720.72 1826.98 1681.84 1736.84 1646.19 1648.15C1627.55 1601.74 1621.46 1558.05 1618.39 1508.52C1672.53 1508.65 1727.64 1515.31 1781.45 1507.74C1840 1499.5 1898.63 1485.63 1956.67 1474.19C2062.36 1453.36 2163.84 1429.85 2261.75 1382.95C2353.44 1339.03 2446.48 1290.96 2522.39 1221.25C2561.65 1185.2 2601.69 1148.46 2635.58 1107.24C2670.41 1064.89 2696.6 1016.78 2723.47 969.25C2753.12 916.77 2776.72 861.63 2795.38 804.24C2799.14 792.7 2799.16 778 2803.96 767.1C2809.38 754.8 2819.24 754.47 2829.54 747.99C2844.02 738.87 2853.66 708.35 2828.53 703.74Z"
    fill="black" />
  <path fill-rule="evenodd" clip-rule="evenodd"
    d="M1567.95 116.362C1580.32 126.993 1633.67 164.442 1650.9 155.336C1672.16 144.095 1638.5 110.233 1629.44 101.885C1617.91 91.264 1576.7 59.134 1560.92 62.116C1529.38 68.082 1556.81 106.793 1567.95 116.362Z"
    fill="black" />
  <path fill-rule="evenodd" clip-rule="evenodd"
    d="M1594.29 500.709C1601.29 486.948 1619.89 481.889 1628.49 468.572C1638.84 452.563 1643.59 438.553 1639.78 418.922C1613.29 427.836 1583.16 454.816 1565.44 475.915C1550.62 493.547 1529.58 530.391 1568.24 530.484C1567.9 525.239 1567.56 519.989 1567.22 514.749C1578.81 516.434 1589.03 511.08 1594.29 500.709Z"
    fill="black" />
  <path fill-rule="evenodd" clip-rule="evenodd"
    d="M1468.12 271.758C1485.2 276.665 1499.29 275.97 1516.73 276.354C1529.39 276.636 1546.69 283.593 1556.95 275.752C1547.85 270.48 1559.35 270.189 1557.1 265.049C1555.21 260.764 1551.61 262.168 1548.69 258.699C1538.27 246.339 1529.2 246.49 1512.68 243.919C1499.87 241.918 1481.04 237.302 1468.74 243.667C1455.79 250.367 1450.78 266.773 1468.12 271.758Z"
    fill="black" />
  <path fill-rule="evenodd" clip-rule="evenodd"
    d="M1711.17 650.86C1722.22 641.6 1734.26 614.79 1736.49 600.95C1737.36 595.53 1733.46 591.38 1733.92 587.39C1734.82 579.79 1750.44 565.1 1734.07 558.86C1719.76 553.4 1706.3 595.81 1702.66 605.07C1698.93 614.53 1688.76 632.97 1691.88 642.13C1694.47 649.73 1703.72 657.1 1711.17 650.86Z"
    fill="black" />
  <path fill-rule="evenodd" clip-rule="evenodd"
    d="M1843.28 76.773C1853.27 67.501 1859.59 56.986 1858.56 44.236C1857.74 34.193 1850.22 -0.433974 1841.75 0.584026C1813.64 3.97703 1826.28 92.562 1843.28 76.773Z"
    fill="black" />
  <path fill-rule="evenodd" clip-rule="evenodd"
    d="M1249.79 1624.89C1247.48 1616.43 1239.07 1564.66 1224.53 1568.19C1213.48 1570.87 1224.96 1616.42 1225.47 1622.42C1226.55 1634.96 1202.44 1634.55 1191.24 1632.85C1173.47 1630.17 1174.89 1619.76 1172.24 1603.61C1171.24 1597.5 1167.39 1569.92 1154.66 1580.03C1146.06 1586.85 1152.21 1620.86 1152.92 1628.62C1155.4 1655.5 1158.32 1701.4 1174.3 1725.81C1180.67 1735.54 1186.41 1740.35 1193.1 1727.86C1199.87 1715.23 1184.54 1676.72 1181.86 1663.8C1194.51 1665.04 1230.92 1660.93 1238.53 1674.07C1245.49 1686.06 1234.36 1720.32 1256.68 1723.09C1269.93 1724.75 1267.53 1709.41 1266.25 1697.62C1263.58 1672.88 1256.32 1648.79 1249.79 1624.89Z"
    fill="black" />
  <path fill-rule="evenodd" clip-rule="evenodd"
    d="M1283.71 1612.92C1269.05 1619.54 1287.46 1716.09 1308.9 1712.97C1333.94 1709.33 1297.68 1606.61 1283.71 1612.92Z"
    fill="black" />
  <path fill-rule="evenodd" clip-rule="evenodd"
    d="M1267.37 1580.95C1265.56 1602.69 1293.81 1610.79 1295.15 1587.17C1296.18 1568.94 1269.27 1558.1 1267.37 1580.95Z"
    fill="black" />
  <path fill-rule="evenodd" clip-rule="evenodd"
    d="M1112.28 1004.6C1125.18 1052.66 1242.59 1073.11 1226.77 1008.29C1218.85 975.84 1185.77 1004.67 1162.67 1000.89C1147.72 998.45 1103.2 970.71 1112.28 1004.6Z"
    fill="black" />
  <path fill-rule="evenodd" clip-rule="evenodd"
    d="M1082.8 918.87C1088.32 893.16 1032.05 864.77 1011.64 871.85C981.77 882.21 981.9 948.45 1004.68 966.06C1007.68 968.38 1016.87 973.91 1021.37 969.5C1028.47 962.53 1020.71 964.43 1019.05 957.48C1016.42 946.42 1007.82 932.21 1016.39 919.63C1032.59 895.85 1074.89 955.72 1082.8 918.87Z"
    fill="black" />
  <path fill-rule="evenodd" clip-rule="evenodd"
    d="M911.23 1043.7C890.95 1042.56 874.31 1074.04 904.16 1071.41C909.87 1070.9 922.15 1069.46 925.47 1063.46C930.96 1053.51 920.15 1044.2 911.23 1043.7Z"
    fill="black" />
  <path fill-rule="evenodd" clip-rule="evenodd"
    d="M1895.38 293.205C1888.44 283.162 1873.88 267.002 1861.36 277.074C1850.26 286.006 1852.19 308.052 1856.45 319.007C1867.91 348.5 1894.98 374.773 1925.62 357.781C1914.98 336.465 1908.98 312.863 1895.38 293.205Z"
    fill="black" />
</svg>