<svg width="2188" height="1628" viewBox="0 0 2188 1628" fill="none" xmlns="http://www.w3.org/2000/svg">
<path fill-rule="evenodd" clip-rule="evenodd" d="M1436.72 385.483C1431.31 387.917 1441.64 406.106 1443.24 409.443C1447.44 418.153 1452.55 436.152 1462.48 431.197C1453.89 415.96 1445.31 400.72 1436.72 385.483ZM166.14 1440.82C158.9 1437.61 149.22 1465.24 147.93 1470.85C144.34 1486.48 147.35 1496.99 159.86 1507.1C154.68 1484.75 160.88 1462.49 166.14 1440.82ZM1836.95 257.781C1827.95 246.09 1814.95 224.384 1796.76 235.875C1789.58 240.416 1784.05 254.969 1779.62 262.079C1772.66 273.24 1765.93 283.985 1760.64 296.001C1769.63 292.303 1774.93 284.262 1782.97 279.866C1788.46 276.864 1793.47 276.575 1798.76 274.386C1810.47 269.552 1826.49 264.811 1836.95 257.781ZM369.34 1409.67C374.21 1428.75 378.71 1447.76 382.48 1467.08C385.03 1480.16 393.59 1498.62 389.13 1511.42C400.7 1509.86 412.28 1508.3 423.86 1506.74C415.27 1487.19 410.75 1466.32 408.2 1445.2C406.64 1432.27 408.64 1428.59 398.9 1421.39C391.36 1415.82 378.09 1413.14 369.34 1409.67ZM305.31 679.65C327.57 701.95 347.03 727.36 370.69 748.12C382.98 758.92 395.58 769.41 408.19 779.82C418.89 788.64 435.9 808.1 449.82 810.8C451.54 803.69 455.61 792.04 454.52 784.75C458.58 780.55 457.32 777.48 450.73 775.54C446.71 772.44 442.72 769.29 438.78 766.08C423.31 753.16 408.66 739.13 394 725.3C379.43 711.57 365.95 697.19 353.29 681.67C346.63 673.5 342.73 665.3 331.8 662.9C318.81 660.05 314.49 670.18 305.31 679.65ZM750.15 1507.34C749.52 1519.45 779.3 1526.88 788.34 1527.6C812.79 1529.57 828.67 1518.84 837.09 1497.68C854.61 1453.64 882.65 1414.85 894.38 1368.54C897.86 1354.8 900.88 1348.55 888.48 1341.55C883.39 1338.68 870.14 1332.27 864.6 1335.93C859.34 1339.41 855.02 1355.06 851.64 1360.75C846.26 1369.79 840.14 1378.38 834.31 1387.13C807 1428.03 779.47 1467.87 750.15 1507.34ZM396.82 900.88L511.12 966.28C515.89 949.81 518.08 932.64 522.55 916.05C525.73 904.25 533.91 887.59 533.4 877.24C532.63 861.78 520.66 841.26 515.44 826.52C508.94 808.16 502.44 789.79 495.94 771.43C487.13 779.85 476.99 785.74 476.89 796.71C476.83 802.99 481.01 806.9 478.58 814.01C476.88 818.99 469.65 825.61 466.15 829.32C455.95 840.15 456.27 840.7 445.55 830.56C429.3 854 413.06 877.44 396.82 900.88ZM522.57 1207.5C524.21 1191.74 526.31 1176.64 529.85 1161.18C532.03 1151.68 541.22 1132.18 538.2 1123.23C535.98 1116.66 522.76 1110.94 517.61 1107.36C502.72 1097.01 488.18 1086.12 473.44 1075.56C460.52 1066.3 447.4 1057.26 434.71 1047.66C422.97 1038.78 414.1 1027.73 399.88 1023.92C387.45 1020.59 371.66 1022.76 358.78 1022.33C341.49 1021.76 323.94 1021.57 306.66 1022.41C248.7 1025.25 183.76 1021.19 128 1037.37C101.64 1045.01 84.6501 1049.51 69.9201 1074.49C52.8801 1103.38 38.3201 1133.4 25.9301 1164.6C24.1201 1169.16 20.03 1175.73 20.19 1180.71C20.48 1190.22 23.8801 1188.03 33.0001 1193.45C42.8401 1199.31 52.4901 1206.26 61.9001 1212.86C78.0301 1224.17 98.0501 1235.98 114.79 1244.8C134.92 1255.41 155.2 1264.93 175.68 1275.61C188.66 1282.39 202.09 1287.92 214.82 1295.37C228.64 1303.45 244.11 1305.75 259.01 1312.06C305.14 1331.6 349.78 1349.66 395.05 1371.96C439.23 1393.71 483.92 1412.1 529.13 1431.3C587.55 1456.1 645.4 1479.05 706.33 1496.2C710.8 1497.46 720.18 1501.89 724.58 1501.69C734 1501.25 736.14 1494.36 741.8 1486.6C752.92 1471.35 763.63 1455.8 774.27 1440.21C797.34 1406.39 819.9 1372.19 844.75 1339.62C774.35 1319.97 709.08 1283.71 647.2 1246.49C644.56 1253.9 642.47 1270.31 634.02 1272.79C623.58 1275.86 615.99 1261.38 611.31 1254.72C606.88 1265.76 599.3 1302.99 585.12 1302.17C565.53 1301.05 568.99 1270.2 566.55 1257.96C555.75 1272.32 543.24 1288.83 528.56 1266.75C518.39 1251.44 519.52 1224.57 522.57 1207.5ZM1338.19 1031.57C1329.12 1028.73 1320.1 1026.21 1311.22 1023.03C1308.88 1018.08 1305.01 1016.57 1299.59 1018.52C1295.15 1018.92 1290.84 1018.37 1286.64 1016.87C1268.1 1013.7 1247.56 1009.59 1229.84 1004.24C1214.06 999.47 1199.18 995.26 1183.14 991.68C1173.62 989.56 1131.21 977.55 1124.95 984.62C1123.02 986.79 1126.33 1013.15 1125.87 1017.84C1125.04 1026.19 1124.63 1039.94 1119.34 1046.9C1117.31 1049.56 1109.59 1052.52 1106.79 1054.6C1097.73 1061.35 1089.34 1069.73 1080.32 1076.73C1060.63 1092.01 1041.44 1107.86 1021.34 1122.63C1007.14 1133.07 990.88 1138.24 975.1 1145.83C986.33 1147.84 1008.29 1137.03 1019.62 1133.68C1034.3 1129.33 1048.7 1124.51 1063.71 1120.53C1094.49 1112.38 1126.02 1103.17 1157.3 1094.49C1176.51 1089.16 1196.8 1083.61 1215.42 1076.55C1223.68 1073.41 1230.17 1066.13 1235.62 1073.54C1239.98 1079.46 1234.71 1087.24 1231.36 1091.63C1211.83 1117.2 1158.81 1123.42 1130.42 1134.02C1098.39 1145.99 1066.79 1158.6 1033.8 1167.01C995.28 1176.83 953.47 1184.34 917.58 1201.59C887.8 1215.89 854.06 1221.44 822.4 1229.84C792.67 1237.72 757.41 1239.3 729.3 1252.69C741.44 1262.28 759.4 1267.28 773.55 1273.73C790.87 1281.62 808.37 1288.82 825.5 1297.19C832.8 1300.75 840.43 1306.04 847.8 1309C857.17 1312.76 855.97 1310.78 865.64 1310.02C880.7 1308.83 901.01 1306.12 913.24 1317.09C927.99 1330.32 918.65 1344.81 920.81 1361C922.3 1372.1 923.05 1370.32 935.37 1372.01C946.7 1373.57 958.03 1375.39 969.21 1377.81C983.01 1380.81 997.14 1385.83 1010.59 1390.16C1031.44 1396.87 1033.71 1404.78 1055.44 1396.11C1117.34 1371.43 1181.35 1351.14 1243.65 1327.78C1272.34 1317.02 1301.15 1296.27 1328.16 1280.69C1362.81 1260.68 1394.14 1239.05 1417.6 1205.75C1428.29 1190.57 1439.44 1164.93 1437.2 1146.09C1435.19 1129.24 1422.73 1110.5 1414.7 1096.01C1404.44 1077.51 1395.41 1070.33 1379.71 1058.04C1368.8 1049.5 1351.95 1031.46 1338.19 1031.57ZM648.87 1174.77C649.83 1184.07 644.39 1222.42 649.78 1228.32C658.98 1238.41 681.55 1226.63 690.29 1223.63C718.66 1213.87 751.64 1216 780.54 1208.28C808.57 1200.78 835.99 1191.06 864.17 1183.43C879.29 1179.33 893.64 1172.9 908.52 1168.02C925.07 1162.59 943.56 1159.61 958.91 1151.44C957.01 1146.71 890.57 1158.08 883.02 1158.69C856.8 1160.83 832.11 1156.78 806.26 1152.02C749.25 1141.53 695.53 1116.65 639.25 1100.51C641.89 1126.48 714.92 1131.65 706.22 1161.79C703.8 1170.19 671.12 1183.92 660.32 1178.65C638.36 1167.93 665.22 1152.86 676.16 1149.1C659.5 1139.55 643.56 1129.18 628.36 1117.4C612.08 1104.8 605.07 1087.11 596.35 1068.86C578.11 1030.71 534.95 1008.51 501.43 984.76C465.18 959.08 426.58 937.24 390.35 911.62C383.89 907.04 380.87 909.14 378.59 900.79C376.16 891.85 385.09 880.48 389.43 873.66C400.82 855.72 414.09 838.75 429.13 823.73C409.73 810.52 388.76 799.61 370.57 784.65C352.12 769.49 336.85 750.98 320.58 733.62C294.58 790.22 258.15 842.72 229.54 898.22C218.23 920.14 212.26 953.3 229.45 974.55C247.53 996.91 281.26 988.2 306.8 989.39C333.74 990.64 358.33 993.7 384.91 1001.34C396.93 1004.8 407.88 1003.78 419.43 1009.34C432.99 1015.85 446.32 1024.22 459.21 1031.94C484.57 1047.13 508.26 1066.14 532.21 1083.47C542.03 1090.58 595.3 1132.71 553.17 1126.21C553.17 1165.64 546.26 1206.02 542.64 1245.26C552.63 1233.32 559.76 1221.19 565.8 1206.85C569.39 1198.31 569.44 1176.54 581.42 1181.7C599.44 1189.46 585.41 1246.51 585.41 1261.94C589.87 1253.3 593 1244 596.21 1234.85C598.65 1227.92 601.69 1208.27 606.78 1203.62C623.79 1188.06 626.17 1230.49 626.17 1239.35C631.68 1223.71 632.7 1207.01 633.25 1190.49C633.47 1183.97 631.86 1173.82 633.5 1167.51C636.24 1157 635.92 1157.69 646.92 1153.24C647.57 1160.42 648.22 1167.6 648.87 1174.77ZM1174.4 1507.51C1175.75 1520.85 1180.91 1530.51 1172.15 1542.51C1189.09 1541.3 1205.77 1539.8 1222.75 1540.24C1236.37 1540.58 1256.75 1543.7 1269.47 1537.86C1274.65 1535.48 1276.41 1539.58 1279.08 1535.03C1281.6 1530.71 1275.66 1516.38 1274.95 1512.82C1271.52 1495.76 1269.85 1478.25 1266.74 1461.08C1264.6 1449.28 1258.32 1426.07 1266.22 1414.92C1277.83 1398.51 1282.94 1421.62 1285.97 1431.89C1295.93 1465.7 1295.36 1497.81 1295.36 1532.56C1310.36 1532.56 1330.08 1526 1344.55 1522.04C1364.52 1516.59 1385.84 1510.98 1405.18 1503.85C1423.43 1497.13 1439.49 1487.33 1451.03 1471.54C1459.66 1459.73 1478.79 1430.61 1474.03 1417.55C1468.21 1401.55 1440.43 1390.54 1425.59 1388.78C1406.34 1386.5 1386.61 1390.37 1366.91 1391.99C1345.83 1393.73 1325.37 1398.43 1304.51 1400.69C1284.25 1402.88 1257.05 1409.65 1237.37 1404.58C1236.86 1412.68 1243.63 1423.57 1245.99 1431.82C1249.08 1442.63 1251.84 1453.54 1254.35 1464.5C1257.04 1476.24 1273.67 1518.42 1258.54 1526.86C1240.78 1536.76 1232.3 1494.36 1230.09 1484.03C1224.82 1459.39 1220.29 1434.78 1225.81 1410.01C1203.14 1405.92 1175.8 1411.99 1152.42 1413.6C1161.13 1444.3 1166.75 1476.45 1174.4 1507.51ZM198.01 1520.86C205.89 1524.37 216.72 1522.48 225.29 1523.16C238.68 1524.21 252.21 1526.63 265.69 1526.2C286.26 1525.55 307.82 1522.94 328.41 1520.59C316.66 1499.4 309.54 1479.34 308.07 1455.05C307.55 1446.33 302.92 1392.23 319.01 1394.54C326.77 1395.66 325.12 1441.85 326.63 1450.36C328.82 1462.71 331.64 1475.35 335.08 1487.44C337.58 1496.2 346.07 1509.33 343.89 1518.81C354.27 1517.13 364.65 1515.45 375.03 1513.76C366.96 1497.66 361.06 1483.23 358.04 1465.28C356.58 1456.61 357.51 1445.82 354.68 1437.59C352.9 1432.4 348.82 1427.52 348.28 1423.17C347.65 1418.15 353.15 1405.82 351.11 1401.36C349.12 1396.98 335.21 1392.92 330.34 1390.51C316.91 1383.85 309.04 1382.16 293.99 1385.99C264.96 1393.37 219.22 1398.61 197.56 1418.52C176.12 1438.25 168.31 1504.78 198.01 1520.86ZM1465.9 559.303C1473.94 558.395 1481.9 557.834 1489.97 557.418C1478.17 540.801 1467.45 523.433 1457.66 505.555C1452.87 496.796 1448.34 487.898 1444 478.903C1439.03 468.582 1439.16 461.843 1428.35 459.792C1413.38 456.953 1393.35 462.625 1377.94 461.98C1366.04 461.479 1339.32 450.275 1329.73 454.336C1338.47 472.263 1331.46 500.154 1331.8 519.451C1332.14 538.641 1329.76 557.192 1326.38 576.115C1346.8 576.115 1372.37 569.061 1392.98 565.909C1416.98 562.24 1441.45 562.05 1465.9 559.303ZM1141.72 1544.44C1149.58 1543.43 1157.06 1543.12 1165 1543.12C1147.11 1514.1 1133.6 1481.65 1133.45 1447.07C1133.43 1442.55 1138.87 1416.56 1137.07 1414.4C1133.56 1410.19 1119.02 1413.51 1115.04 1413.91C1098.74 1415.54 1080.63 1415.41 1065.29 1421.29C1054.71 1425.34 1054.59 1422.89 1050.38 1435.36C1047.89 1442.73 1046.1 1451.15 1046.05 1458.9C1045.95 1474.57 1050.95 1492.87 1057.4 1506.98C1063.54 1520.41 1073.25 1534.8 1086.61 1542.02C1101.99 1550.33 1123.67 1545.38 1141.72 1544.44ZM1304.38 466.386C1301.29 454.825 1302.62 457.435 1292.34 456C1290.17 455.699 1266.61 456.188 1265.26 457.569C1263.7 459.163 1264.29 482.702 1264.09 485.396C1263.39 494.629 1262.36 503.838 1261.35 513.042C1257.27 550.407 1249.53 586.578 1243.73 623.635C1258.07 614.732 1278.8 626.871 1291.05 617.234C1300.73 609.618 1299.28 585.249 1300 574.497C1302.41 538.509 1303.24 502.432 1304.38 466.386ZM1822.19 422.751C1820.9 424.824 1819.61 426.897 1818.32 428.97C1823.33 432.182 1852.64 399.509 1859.16 393.663C1867.84 385.88 1881.58 375.486 1885.5 364.106C1890.05 350.881 1885.57 330.003 1884.47 316.328C1883.68 306.541 1885.36 293.006 1877.38 286.169C1870.04 279.878 1851.96 280.046 1843.27 281.392C1817.19 285.432 1801.5 306.893 1788.33 327.343C1801.7 325.698 1848.83 304.17 1854.31 315.813C1862.26 332.728 1812.76 347.852 1807.87 362.695C1818 366.275 1840.35 352.388 1834.06 375.494C1832.99 378.727 1831.12 381.404 1828.45 383.525C1823.82 385.165 1822.73 388.254 1825.16 392.794C1823.09 401.844 1823.52 413.295 1822.19 422.751ZM2122.41 1241.86C2122.55 1247.35 2123.05 1252.59 2127.53 1256.47C2137.47 1224.98 2140.58 1193.48 2144.69 1160.73C2148.81 1127.98 2153.2 1094.41 2153.85 1061.69C2154.58 1025.02 2151.12 985.12 2145.19 948.89C2140.55 920.56 2136.96 885.7 2120.08 861.59C2129.67 924.07 2126.69 983.31 2120.22 1046C2116.79 1079.3 2111.95 1112.33 2109.73 1145.77C2109.14 1154.6 2108.95 1163.53 2108.18 1172.35C2107.73 1177.54 2102.59 1187.38 2102.55 1189.93C2102.29 1204.08 2117.44 1228.86 2122.41 1241.86ZM1612.39 1193.2C1620.36 1211.55 1629.42 1229.63 1634.21 1249.15C1639.25 1269.76 1637.08 1288.95 1637.89 1309.84C1639.23 1344.48 1636.45 1378.93 1636.94 1413.62C1637.35 1443.19 1636.22 1472.03 1636.51 1501.29C1636.7 1519.8 1635.69 1538.24 1635.75 1556.73C1635.75 1556.68 1636.49 1573.34 1635.21 1574.18C1629.5 1577.98 1623.26 1572.59 1621.52 1567.4L1604.59 1586.56C1613.46 1584.33 1624.37 1579.67 1633.49 1579.26C1636.98 1577.98 1640.46 1577.94 1643.92 1579.15C1647.36 1581.23 1649.91 1584.13 1651.57 1587.85C1675.47 1592.95 1689.81 1571.67 1694.1 1552.64C1703.41 1511.36 1700.06 1470.6 1699.38 1428.92C1697.92 1338.38 1712.29 1248.38 1710.93 1157.83C1710.67 1140.31 1710 1122.99 1712.64 1105.5C1717.52 1073.01 1724.73 1102.75 1725.89 1118.08C1729.37 1164.16 1735.43 1211.7 1732.1 1258.06C1729.1 1299.84 1729.38 1342 1727.3 1383.89C1725.09 1428.43 1721.52 1472.02 1723.57 1516.58C1735.53 1515.06 1773.97 1512.78 1777.97 1529.58C1781.47 1544.23 1767.42 1538.81 1760.12 1538.19C1748.28 1537.18 1736.72 1539.96 1723.79 1537.64C1724.74 1557.35 1727.46 1583.78 1709.86 1597.09C1701.2 1603.63 1686.86 1609.54 1676.74 1613.4C1666.83 1617.18 1650.04 1625.57 1639.71 1625.11C1632.4 1624.78 1629.59 1620.85 1621.57 1621.47C1609.67 1622.41 1599.38 1630.37 1586.76 1623.8C1562.85 1611.32 1574.6 1575.04 1589.7 1560.5C1593.6 1556.75 1597.98 1552.65 1603.2 1550.82C1605.68 1549.96 1616.08 1551.01 1617.27 1549.7C1621.7 1544.9 1616.17 1516.8 1615.58 1511.47C1612.48 1483.5 1609.1 1454.93 1607.83 1426.84C1606.64 1400.42 1605.3 1373.95 1604.4 1347.53C1604.2 1341.77 1606.75 1329.94 1604.34 1324.91C1600.33 1316.56 1582.76 1311.23 1575.13 1307.34C1581.93 1373.94 1591.91 1445.52 1567.31 1508.95C1562.43 1521.55 1556.95 1539.53 1544.56 1546.54C1532.89 1553.14 1505.4 1552.21 1491.42 1553C1476.38 1553.84 1461.66 1550.33 1453.37 1536.2C1446.85 1525.08 1450.76 1511.74 1464.14 1506.89C1472.16 1503.99 1473.72 1505.86 1480.74 1509.31C1482.27 1511.78 1483.33 1514.44 1483.95 1517.29H1489.35C1496.66 1520.55 1525.9 1524.2 1533.94 1518.99C1543.26 1512.96 1545.28 1496.65 1549.26 1486.96C1556.63 1468.96 1558.59 1454.34 1561.27 1435.1C1565.46 1404.97 1561.21 1370.05 1561.29 1338.66C1561.31 1329.82 1561.35 1320.98 1561.36 1312.14C1561.38 1298.79 1562.54 1298.88 1554.93 1289.27C1543.46 1274.78 1530.38 1259.98 1518.09 1246.1C1524.75 1286.66 1522.02 1329.37 1519.38 1369.78C1517.9 1392.49 1514.83 1415.61 1513.42 1438.02C1513 1444.75 1517.83 1463.31 1510.02 1466.29C1502.09 1469.3 1492.22 1455.22 1489.02 1450.14C1471.54 1485.03 1450.68 1518.69 1414.62 1536.75C1396.07 1546.03 1376.77 1550.22 1356.53 1553.86C1337.78 1557.23 1320.46 1563.39 1301.98 1566.29C1263.72 1572.3 1228.49 1573.15 1189.99 1571.84C1153.67 1570.6 1118.9 1577.31 1082.7 1568.86C1068.57 1565.56 1054.29 1559.51 1044.63 1548.69C1039.36 1542.78 1037.03 1533.49 1031.71 1528.04C1030.52 1521 1026.38 1518.83 1019.29 1521.52C1014.84 1521.72 1010.4 1521.58 1005.98 1521.08C969.67 1519.17 929.32 1521.3 894.14 1510.92C880.78 1506.98 865.87 1500.49 872.53 1483.77C878.36 1469.16 894.43 1473.59 907.6 1474.87C945.88 1478.58 983.56 1485.35 1022.38 1488.76C1021.13 1468.46 1022.21 1447.75 1030.16 1428.76C1003.23 1425.38 975.3 1420.28 949.67 1411.67C941.76 1409.01 933.88 1406.25 926.03 1403.41C913.09 1398.73 915.78 1397.52 908.28 1405.69C898.87 1415.96 893.1 1437.38 886.28 1449.78C878.6 1463.74 871.23 1477.54 864.76 1492.11C858.64 1505.9 854.07 1524.37 844.74 1536.25C824.21 1562.4 776.81 1564.66 748.91 1554.39C735.24 1549.36 730.31 1548.57 722.03 1536.32C712.95 1522.89 710.7 1522.11 693.98 1520.28C663.8 1516.99 635.31 1509.41 607.03 1498.94C577.15 1487.89 546.48 1479.26 516.69 1467.33C488.8 1456.15 461.85 1444.9 432.99 1436.18C429.57 1457.95 443.76 1482.51 443.76 1504.96C460.55 1503.28 476.2 1501.8 492.84 1499.13C498.78 1498.18 536.16 1489.78 539.81 1494.74C555.02 1515.38 485.83 1525.09 475.02 1527.82C440.36 1536.57 405.03 1544.7 370.16 1551.46C334.56 1558.37 299.87 1565.24 263.73 1566.48C202.59 1568.58 118.26 1565.04 121.18 1484.67C122.33 1453.18 135.29 1419 160.11 1398.46C175.54 1385.68 194.8 1378.66 213.67 1372.88C220.65 1370.74 257.38 1365.74 258.5 1362.99C248.15 1355.57 230.45 1353.64 218.17 1347.92C206.46 1342.46 194.11 1340.43 182.12 1334.93C158.17 1323.94 135.04 1310.51 112.9 1296.93C95.2801 1286.13 77.4801 1274.2 61.2601 1261.35C48.3801 1251.15 36.04 1241.34 25.74 1229.67C20.35 1223.57 10.81 1218.17 6.49004 1212.91C-8.66996 1194.45 7.32007 1157.72 13.7701 1136.23C23.2001 1104.82 35.79 1071.4 54.35 1044.19C71.41 1019.16 90.4401 1002.3 121.06 996.44C149.31 991.03 177.73 989.32 206.63 987.8C201.77 969.32 194.93 956.27 196.67 936C198.31 916.88 207.95 897.88 215.53 880.47C229.61 848.1 242.89 816.42 262.14 786.61C272.73 770.23 284.61 754.69 296.17 738.99C298.03 736.46 309.61 724.88 309.16 721.62C308.72 718.38 297.1 708.52 295.32 706.26C283.36 691.07 275.09 674.72 289.13 658.47C296.45 649.99 317.98 632.88 328.33 643.64C339.54 620.999 359.13 605.559 374.38 586.294C393.4 562.272 411.55 537.883 429.36 512.722C447.08 487.669 461.56 460.755 485.05 440.565C511.24 418.066 535.88 420.012 568.04 429.63C569.88 417.219 572.43 418.871 584.43 414.727C593.51 411.59 602.33 407.868 611.26 404.326C620.75 400.559 630.36 398.421 640.06 395.459C652.99 391.516 654.93 392.804 657.03 376.011C659.57 355.72 650.89 334.267 645.29 315.153C642.53 305.723 640.61 293.984 634.39 287.64C628.77 281.902 618.8 279.29 612.65 272.946C559.66 218.293 558.83 101.598 615.27 50.804C626.24 40.931 635.29 27.648 648.95 20.982C663.94 13.66 683.72 7.74002 700.23 4.29002C734.27 -2.81698 772.44 -0.560987 799.35 23.38C812.62 35.186 820.71 53.953 825.24 70.717C829.56 86.729 828.63 113.795 812.25 89.048C801.92 73.44 792.95 57.521 775.46 49.8C759.83 42.902 740.75 39.178 723.73 40.642C683.61 44.089 651.09 55.877 623.32 85.588C592.61 118.439 591.05 170.888 597.67 212.661C603.5 200.306 607.45 180.742 623.8 178.383C637.43 176.416 658.92 193.827 651.6 208.816C618.42 200.351 608.71 250.568 637.41 253.592C646.1 254.507 657.1 239.031 665.1 242.635C680.06 249.372 660.01 272.585 656.06 280.229C653.96 281.522 651.86 282.815 649.76 284.11C651.83 288.921 653.91 293.724 656.02 298.517C658.58 304.63 661.02 310.757 663.27 316.993C668.73 332.167 674.41 347.814 677.7 363.622C681.05 379.695 682.79 398.464 674.87 413.564C666.17 430.162 657.97 428.12 651.28 412.332C633.78 423.37 616.18 435.141 595.61 439.496C617.18 475.715 645.11 506.852 687.11 518.245C722.71 527.901 767.52 527.547 801.48 511.573C836.72 494.997 856.12 456.255 851.92 417.71C850.56 405.227 843.3 361.867 860.58 393.233C870.05 410.434 870.74 438.338 868.58 457.201C858.25 547.431 766.84 581.188 688.01 559.467C647.57 548.322 618.43 518.493 596.74 483.378C591.68 475.19 587.05 466.74 582.53 458.244C580.72 454.849 579.13 450.108 576.72 447.13C567.27 435.461 576.55 441.964 566.52 440.502C551 438.244 526.57 450.14 515.04 459.565C483.76 485.136 466.43 526.04 442.43 558.268C416.87 592.575 384.41 623.11 351.85 650.48C388.68 688.23 425.51 725.98 462.34 763.72C469.95 755.29 484.41 736.03 486.44 724.77C487.62 718.16 482.3 696.43 498.68 706.1C509.73 712.64 513.93 740.59 517.37 752.03C522.7 769.7 531.67 786.34 537.47 803.82C548.23 836.26 561.48 868.41 572.5 901.08C576.98 914.37 589.75 930.85 577.48 942.1C558.82 959.19 553.28 925.54 548.34 912.69C541.46 922.26 542.35 937.78 538.8 948.94C536.64 955.76 530.04 966.37 530.26 973.09C530.63 984.57 541.05 987.99 550.45 994.41C567.92 1006.35 585.85 1018.01 601.85 1031.92C608.53 1037.72 614.67 1043.59 619.54 1051.05C623.8 1057.57 625.08 1072.26 629.78 1076.8C635.93 1082.72 658.66 1078.59 670.67 1079.88C690.72 1082.04 711.03 1089.17 730.49 1094.3C764.93 1103.37 800.35 1116.42 836.42 1121.27C871.84 1126.02 905.08 1123.66 940.38 1117.33C959.66 1113.86 980.37 1109.73 997.97 1100.45C1018.24 1089.76 1036.21 1072.67 1055.14 1059.76C1063.61 1053.98 1072.28 1048.52 1080.95 1043.04C1092.53 1035.72 1089.5 1037.31 1090.25 1025.68C1091.13 1012.22 1096.74 986.52 1087.76 974.54C1084 969.54 1072.49 965.88 1067.07 962.24C1059.19 956.95 1052.12 950.8 1043.67 946.54C1034.45 941.89 1034.18 945.57 1029.9 934.17C1026.01 923.81 1023.45 912.96 1019.88 902.49C1003.55 854.63 999.33 806.01 992.57 756.03C989.42 732.81 981.71 701.22 990.45 678.6C1002.59 647.15 1012.76 691.14 1015.32 702.41C1026.91 682.54 1033.58 660.44 1045.64 640.82C1052.67 629.382 1056.11 623.536 1060.08 611.003C1061.68 605.928 1062.32 601.712 1065.72 597.496C1072.9 588.579 1073.96 593.661 1081.42 593.442C1104.9 592.754 1127.97 593.358 1151.47 594.446C1164.46 595.048 1177.45 595.366 1190.53 595.318C1196.9 595.294 1203.35 594.983 1209.71 595.349C1213.14 595.313 1216.56 595.568 1219.96 596.117C1226.97 599.391 1229.64 596.57 1227.99 587.65C1234.09 574.873 1233.68 554.485 1235.84 540.546C1238.02 526.515 1240.04 512.459 1241.86 498.375C1242.82 490.847 1250.98 462.44 1246.65 456.255C1242.36 450.123 1220.01 451.498 1213.39 450.397C1169.41 443.083 1128.51 424.952 1087.38 410.097C1067.13 402.786 1047.9 392.912 1028.48 383.942C1018.37 379.271 1008.81 369.653 998.16 366.658C984.71 362.878 966.85 368.921 953.45 371.196C927.91 375.532 903.27 379.329 877.36 380.74C868.2 381.238 850.78 383.807 842.52 377.511C825.93 364.867 844.82 357.473 855.67 355.877C903.64 348.818 951.47 344.761 999.81 341.814C1002.07 341.677 1010.38 339.989 1013.14 340.861C1019.43 342.85 1016.89 345.156 1020.67 347.207C1027.66 351.006 1035.63 353.804 1044.5 356.161C1069.81 362.888 1095.3 374.174 1120.71 383.044C1166.41 399.001 1221.01 424.444 1266.72 419.971C1278 418.868 1287.28 417.457 1299.07 418.601C1312.89 419.942 1320.95 427.03 1331.56 429.091C1345.77 431.85 1366.11 429.777 1381.07 430.306C1395.34 430.812 1409.62 431.474 1423.9 431.474C1411.36 406.253 1403.73 382.572 1396.68 355.484C1392.84 340.712 1387.06 327.294 1389.56 311.737C1390.74 304.394 1393.68 297.494 1396.88 290.861C1401.7 280.848 1403.07 282.943 1404.79 271.853C1407.15 256.592 1403.76 240.5 1405.62 225.193C1407.52 209.483 1419.38 195.481 1420.7 180.463C1421.41 172.472 1416.94 165.95 1418.28 157.331C1419.47 149.622 1424.04 141.54 1428.14 135.049C1437.68 119.925 1449.3 111.349 1465.43 105.188C1478.39 100.236 1494.93 95.693 1508.03 103.712C1521.4 111.893 1520.43 128.358 1526.84 140.372C1540.61 166.205 1572.37 189.291 1597.7 202.485C1620.96 214.604 1646.02 222.26 1670.96 230.164C1686.15 234.974 1701.75 238.405 1716.67 243.902C1727.41 247.86 1744.92 257.459 1755.86 251.628C1765.39 246.545 1776.51 231.036 1785.94 223.835C1796.98 215.411 1811.7 207.189 1825.59 214.527C1839.49 221.863 1838.35 248.905 1849.16 253.989C1852.92 255.761 1864.11 250.571 1869.24 251.389C1877.54 252.708 1883.25 257.844 1888.22 264.166C1906.78 287.791 1912.53 325.265 1913.35 354.389C1913.75 368.935 1913.4 387.028 1904.52 399.379C1894.16 413.786 1874.56 414.142 1861.27 424.28C1850.63 432.389 1843.1 445.645 1832.31 454.286C1825.66 459.611 1823.09 455.521 1820.34 463.82C1818.55 469.217 1822.17 479.748 1823.24 484.97C1829.85 517.188 1842.23 546.904 1853.98 577.596C1859.51 592.058 1864.21 606.522 1866.73 621.849C1868.39 631.91 1866.48 640.7 1867.28 650.37C1867.85 657.26 1870.77 663.21 1870.13 670.27C1868.77 685.23 1860.65 698.45 1855.48 711.6C1849.6 726.6 1857.68 752.58 1863.61 768.09C1877.82 805.25 1897.8 842.8 1915.55 878.5C1932.98 913.58 1945.95 950.93 1966.27 984.63C1985.99 1017.35 2009.21 1049.39 2031.66 1080.34C2044.14 1097.56 2057.39 1113.94 2068.71 1131.99C2071.18 1135.94 2088.07 1168.69 2092.45 1167.55C2087.08 1110.41 2092.51 1050.98 2094.91 993.87C2097.91 922.39 2088.82 857.64 2068.71 789.4C2064.02 773.45 2059.83 757.13 2056.52 740.83C2054.21 729.41 2047.67 720.03 2063.71 725.02C2090.27 733.28 2113.65 783.46 2127.16 805.3C2157.4 854.21 2182.67 919.44 2186.06 976.81C2189.39 1033.13 2186.52 1087.01 2179.48 1142.49C2176.01 1169.86 2170.4 1200.37 2161.83 1226.55C2157.42 1240.02 2152.13 1253.96 2146.26 1266.87C2143.78 1272.31 2138.34 1278.47 2137.4 1284.45C2135.91 1293.94 2142.86 1306.75 2144.6 1316.12C2150.29 1346.8 2151.59 1378.59 2149.66 1409.72C2148.62 1426.41 2146.31 1441.35 2140.87 1457.05C2133.93 1477.05 2137.16 1492.33 2140.04 1512.95C2143.13 1535.02 2146.09 1585.18 2123.16 1597.72C2121.54 1597.56 2119.91 1597.39 2118.29 1597.22C2114.2 1592.49 2110.56 1592.77 2107.38 1598.06C2101.45 1600 2095.66 1604.98 2089.41 1607.13C2074.91 1612.11 2059.27 1612.41 2044.15 1614.6C2014.55 1618.89 1985.06 1626.45 1955.98 1627.37C1921.55 1628.45 1885.64 1627.1 1851.97 1621.06C1845.01 1619.81 1836.88 1616.51 1829.92 1615.88C1820.48 1615.02 1813.85 1621.3 1804.1 1619.82C1788.99 1617.54 1779.44 1601.53 1778.45 1588.42C1775.3 1546.64 1798.47 1527.48 1836.33 1520.06C1811.86 1485.02 1783.7 1456.27 1777.19 1411.27C1770.78 1366.99 1784.68 1315.74 1809.92 1280.27C1834.14 1246.21 1875.48 1223.44 1918.11 1232.08C1937.9 1236.09 2031.25 1263.67 2013.2 1294.95C2009.2 1280.64 1984.59 1283.41 1972.7 1281.34C1952.98 1277.91 1933.25 1272.74 1913.24 1273.81C1873.88 1275.9 1835.84 1299.2 1816.78 1334.46C1794.8 1375.12 1804.83 1415.69 1831.29 1450.4C1855.47 1482.14 1880.41 1515.49 1912.94 1538.4C1906.65 1548.41 1908.92 1551.55 1896.43 1549.76C1887.86 1548.53 1879.83 1541.83 1871.17 1540.17C1853.19 1536.72 1824.91 1551.45 1813.8 1566.18C1807.24 1574.89 1807.48 1579.19 1819.58 1584.55C1828.51 1588.51 1842.57 1586.47 1852.15 1587.32C1876.01 1589.45 1900.32 1590.17 1924.25 1590.08C1965.67 1589.93 2004.2 1583.28 2045.19 1578.98C2063.36 1577.07 2082.37 1579.27 2100.14 1572.58C2124.22 1563.52 2118.32 1536.91 2115.2 1515.35C2112.11 1494 2115.26 1477.44 2118.61 1456.29C2120.06 1447.1 2122.78 1436.5 2120.86 1427.26C2118.57 1416.27 2114.48 1411.41 2115 1399.16C2116.86 1355.57 2111.39 1309.66 2099.85 1267.59C2074.77 1176.2 2013.52 1104.08 1962.45 1026.41C1948.02 1004.47 1932.85 983.68 1921.37 959.93C1910.49 937.42 1903 913.61 1892.19 891.04C1868.38 841.29 1845.79 790.05 1831.88 736.54C1816.11 742.75 1799.12 751.88 1782.21 754.07C1763.06 756.56 1742.58 741.08 1730.5 727.45C1702.95 696.37 1696.67 654.23 1698.73 614.181C1699.34 602.326 1700.07 590.377 1702.2 578.681C1703.58 571.09 1712.5 552.716 1710.47 545.643C1708.29 538.073 1695.61 531.493 1691.72 523.996C1686.75 514.453 1686.18 502.169 1686.45 491.641C1686.69 482.03 1692 434.972 1707.23 454.206C1715.95 465.225 1703.2 506.77 1712.05 512.426C1720.02 517.513 1730.99 511.296 1739.25 522.927C1748.17 535.497 1743.39 550.99 1740.26 564.376C1733.8 592.058 1727.73 621.95 1727.89 650.38C1728.04 676.27 1732.67 709 1760.94 719.47C1775.22 724.76 1786.06 721.12 1796.72 711.27C1799.16 708.46 1801.65 705.69 1804.19 702.97C1806.52 698.96 1810.1 698.46 1814.92 701.47C1818.49 698.64 1823.78 679.04 1825.56 674.66C1847.46 620.972 1812.94 559.33 1800.28 506.652C1792.54 474.432 1785.79 442.113 1801.46 411.017C1803.99 405.983 1810.98 401.608 1806.79 394.386C1805.69 392.486 1795.14 391.595 1792.64 389.388C1784.5 382.201 1786.2 368.803 1786.2 359.209C1767.38 365.016 1761.95 350.366 1764.4 332.411C1750.36 334.638 1740.61 338.933 1735.42 322.682C1730.81 308.27 1737.77 293.574 1742.38 280.145C1677.43 273.18 1607.28 264.255 1555.52 219.412C1542.76 208.354 1532.14 194.436 1523.3 180.017C1521.7 177.41 1514.17 159.055 1511.68 158.097C1504.26 155.248 1498.04 169.761 1491.46 173.356C1485.6 176.548 1477.27 178.308 1470.77 180.253C1464.64 182.085 1443.06 182.451 1439.23 185.632C1429.66 193.586 1430.41 239.573 1430.34 250.246C1430.08 287.004 1438.28 323.635 1453.44 357.102C1467.73 388.622 1489.58 431.968 1518.15 452.596C1525.37 457.81 1531.87 460.514 1541.02 460.083C1547.55 459.777 1554.03 455.198 1560.84 457.579C1578.06 463.608 1571.9 475.585 1558.66 481.248C1520.82 497.441 1488.93 461.843 1467.05 436.973C1460.64 466.48 1490.35 501.397 1506.07 525.472C1516.09 540.815 1525.99 556.173 1535.53 571.83C1542.45 583.2 1556.05 604.199 1531.89 595.416C1520.23 656.62 1488.24 710.15 1471.91 769.63C1455.14 830.68 1440.52 900.4 1440.52 963.98C1453.29 955.09 1459.73 914.56 1476.9 945.58C1478.76 948.93 1478.18 954.49 1480.63 957.42C1484.02 961.48 1488.09 960.35 1493.28 963.24C1501.51 967.82 1506.82 976.96 1499.46 984.88C1508.94 982.67 1518.86 983.8 1520.91 995.01C1522.05 1001.3 1512.84 1030.46 1505.97 1032.84C1485.02 1040.09 1461.79 998.25 1456.11 984.93C1443.02 998.08 1427.94 1008.19 1415.88 986.93C1406.89 971.09 1412.11 947.12 1413.38 929.87C1415.93 895.13 1419.27 861.25 1424.28 826.84C1433.67 762.32 1457.52 704.94 1486.8 646.87C1494.86 630.887 1503.8 614.525 1511 598.171C1521.86 573.496 1504.87 579.317 1488.26 582.899C1455.71 589.922 1421.63 595.371 1388.74 597.858C1371.58 599.155 1349.59 599.928 1333.1 604.892C1321.5 608.383 1323.49 605.973 1318.83 618.401C1316.75 623.963 1314.4 629.878 1310.72 634.64C1291.98 658.94 1243.44 654.87 1216.64 653.06C1218.26 642.81 1219.87 632.56 1221.55 622.326C1200.92 627.177 1176.41 630.555 1155.15 630.307C1143.71 630.177 1131.54 628.431 1120.13 627.48C1111.72 626.779 1095.76 620.811 1087.84 623.132C1078.66 625.826 1064.77 659.04 1059.52 669.75C1049.67 689.87 1032.05 712.22 1025.83 733.4C1020.31 752.17 1031.57 784.57 1035.1 803.26C1040.21 830.28 1044.87 857.34 1053.43 883.54C1059.64 902.53 1066.79 928.72 1085.85 938.19C1104.84 947.63 1118.49 952.94 1139.04 951.02C1175.24 947.64 1213.75 953.2 1249.48 960.24C1286.27 967.48 1319.97 970.75 1354.91 983.67C1434.16 1012.97 1484.63 1103.25 1454.75 1185.96C1437.56 1233.53 1409.25 1268.88 1367.72 1298.31C1346.55 1313.3 1321.55 1325.47 1298.35 1337.02C1287.7 1342.33 1277.22 1348.77 1266.37 1353.48C1258.43 1356.93 1244.8 1364.86 1236.18 1365.73C1245.75 1370.28 1254.21 1366.02 1264.17 1364.6C1278.25 1362.6 1292.63 1362.17 1306.77 1360.42C1328.77 1357.7 1350.44 1355.64 1372.45 1352.91C1391.24 1350.57 1412.44 1349.75 1431.11 1352.43C1440.13 1353.73 1453.7 1356.29 1461.73 1360.64C1468.05 1364.06 1473.84 1371.94 1480.63 1375.84C1488.1 1345.14 1484.61 1307.3 1484.96 1275.75C1485.24 1250 1486.39 1224.82 1488.82 1199.19C1491.53 1170.52 1474 1137.92 1467.53 1109.84C1461.47 1083.56 1445.33 1050.26 1451.27 1022.83C1458.76 988.26 1478.37 1050.37 1481.06 1059.25C1489.5 1087.04 1499.3 1114.16 1508.65 1141.62C1519.77 1174.28 1530.98 1205.93 1547.18 1236.54C1560.66 1262.01 1576.16 1291.89 1603.87 1304.31C1601.58 1266.85 1599.04 1232.17 1583.48 1197.64C1568.72 1164.89 1546.21 1135.77 1536.38 1100.68C1531.49 1083.24 1530.77 1065.41 1530.53 1047.4C1530.36 1035.28 1530.92 1018.99 1543.91 1032.05C1554.21 1042.41 1556.21 1075.46 1560.72 1089.41C1562.89 1096.12 1565.9 1102.29 1568.3 1108.81C1569.38 1111.75 1576.65 1126.08 1576.65 1128C1584.15 1150.65 1600.74 1172.36 1612.39 1193.2Z" fill="black"/>
<path fill-rule="evenodd" clip-rule="evenodd" d="M816.98 367.721C817.69 376.492 822.78 399.224 816.27 406.165C807.64 415.374 803.54 403.529 799.81 394.19C792.01 374.674 788.13 336.883 803.55 320.62C819.64 303.637 851.44 303.179 868.61 286.266C875.51 279.472 874.84 280.89 874.24 270.268C873.9 264.271 870.03 256.302 868.15 250.912C863.28 236.904 857.94 223.066 852.84 209.14C843.93 213.202 831.12 225.731 822.34 215.229C814.24 205.52 827.73 189.61 837.12 186.772C832.22 176.041 809.11 178.025 804.7 162.263C800.88 148.564 811.87 154.008 814.27 148.612C817.1 142.264 811.31 133.681 814.29 127.83C824.64 107.518 836.1 144.866 841.25 151.533C850.84 163.931 867.55 166.64 869.02 185.395C869.92 196.941 869.05 202.31 873.81 213.65C878.19 224.089 883.39 234.1 887.06 244.842C892.59 261.028 901.11 290.484 890.31 306.158C881.2 319.377 859.08 329.456 844.69 335.108C837.49 337.937 827.5 339.661 821.67 345.172C814.07 352.361 816.43 356.779 816.98 367.721Z" fill="black"/>
<path fill-rule="evenodd" clip-rule="evenodd" d="M1564.36 857.17C1562.72 854.58 1561.07 852 1559.43 849.41C1548.05 861.58 1535.44 866.58 1523.94 851.12C1512.09 835.21 1516.54 811.36 1521.15 793.98C1523.52 785.04 1535.51 749.79 1543.19 776.64C1544.88 782.57 1539.21 795.77 1538.19 801.57C1536.17 812.95 1534.58 823.87 1536 835.46C1549.35 823.51 1555.88 793.21 1569.43 824.68C1574.34 836.08 1574.88 854.87 1587.96 837.54C1594.94 828.29 1595.38 811.2 1598.65 800.3C1620.94 805.63 1616.88 838.61 1609.44 854.68C1597.59 880.27 1581.47 872.03 1564.36 857.17Z" fill="black"/>
<path fill-rule="evenodd" clip-rule="evenodd" d="M1642.4 283.23C1650.33 296.46 1635.33 320.653 1632.61 334.237C1645.89 332.698 1678.76 300.647 1688.01 305.931C1707.27 316.929 1666.59 355.286 1658.77 360.908C1596.31 405.828 1607.57 275.89 1642.4 283.23Z" fill="black"/>
<path fill-rule="evenodd" clip-rule="evenodd" d="M1564.07 430.556C1587.41 424.056 1618.87 465.962 1603.74 486.715C1592.88 501.601 1579.46 493.088 1576.06 479.983C1574.33 473.3 1575.86 465.247 1573.59 457.793C1570.8 448.615 1567.06 439.676 1564.07 430.556Z" fill="black"/>
<path fill-rule="evenodd" clip-rule="evenodd" d="M846.31 249.924C864.05 264.848 827.79 301.234 809.61 272.743C804.61 264.906 803.7 257.753 811.11 254.859C814.86 253.4 823.69 258.179 828.97 257.334C834.76 256.407 841.06 252.331 846.31 249.924Z" fill="black"/>
<path fill-rule="evenodd" clip-rule="evenodd" d="M785.32 190.245C778.44 181.65 759.08 128.78 783.07 140.556C795.11 146.469 805.06 191.666 785.32 190.245Z" fill="black"/>
<path fill-rule="evenodd" clip-rule="evenodd" d="M1577.17 1327.36C1576.49 1320.69 1575.81 1314.02 1575.13 1307.34C1583.98 1311.86 1601.75 1316.32 1604.83 1326.44C1610.62 1345.44 1583.74 1330.24 1577.17 1327.36Z" fill="black"/>
<path fill-rule="evenodd" clip-rule="evenodd" d="M1834.23 522.603C1828.95 515.474 1812.55 456.01 1826.78 457.371C1829.27 478.942 1829.78 501.345 1834.23 522.603Z" fill="black"/>
<path fill-rule="evenodd" clip-rule="evenodd" d="M1612.39 1193.2C1600.74 1172.37 1584.15 1150.65 1576.65 1128C1594.23 1142.25 1607.97 1171.34 1612.39 1193.2Z" fill="black"/>
<path fill-rule="evenodd" clip-rule="evenodd" d="M2090.32 1144.9C2091.03 1152.45 2091.74 1160 2092.45 1167.55C2081.89 1170.28 2089.67 1147.39 2090.32 1144.9Z" fill="black"/>
<path fill-rule="evenodd" clip-rule="evenodd" d="M1576.68 1128.04C1571.68 1122.59 1569.54 1115.9 1568.3 1108.82C1571.09 1115.22 1573.88 1121.63 1576.68 1128.04Z" fill="black"/>
<path fill-rule="evenodd" clip-rule="evenodd" d="M1637.12 1469.91C1637.3 1463.19 1637.49 1456.47 1637.67 1449.77C1637.49 1456.49 1637.3 1463.2 1637.12 1469.91Z" fill="black"/>
<path fill-rule="evenodd" clip-rule="evenodd" d="M847.58 379.635C852.05 380.191 856.53 380.747 861 381.303C857.47 382.957 849.15 385.155 847.58 379.635Z" fill="black"/>
<path fill-rule="evenodd" clip-rule="evenodd" d="M1739.35 1540.43C1744.01 1539.73 1748.68 1538.13 1753.25 1540.71C1748.61 1540.62 1743.98 1540.53 1739.35 1540.43Z" fill="black"/>
<path fill-rule="evenodd" clip-rule="evenodd" d="M1606.4 1388.63C1606.47 1393.61 1606.53 1398.59 1606.58 1403.55C1606.52 1398.57 1606.46 1393.6 1606.4 1388.63Z" fill="black"/>
<path fill-rule="evenodd" clip-rule="evenodd" d="M1702.54 1311.2C1702.25 1316.5 1701.96 1321.81 1701.66 1327.11C1701.96 1321.8 1702.25 1316.5 1702.54 1311.2Z" fill="black"/>
<path fill-rule="evenodd" clip-rule="evenodd" d="M1639.24 1331.97C1638.99 1327.35 1638.74 1322.73 1638.49 1318.12C1638.74 1322.74 1638.99 1327.36 1639.24 1331.97Z" fill="black"/>
<path fill-rule="evenodd" clip-rule="evenodd" d="M1777.51 1372.71C1777.26 1376.82 1777.01 1380.93 1776.76 1385.04C1777.01 1380.92 1777.26 1376.81 1777.51 1372.71Z" fill="black"/>
<path fill-rule="evenodd" clip-rule="evenodd" d="M942.1 1476.61C937.58 1478.89 933.05 1479.12 928.54 1476.58C933.07 1476.59 937.59 1476.6 942.1 1476.61Z" fill="black"/>
<path fill-rule="evenodd" clip-rule="evenodd" d="M1405.37 233.814C1405.44 237.881 1405.5 241.947 1405.56 245.997C1405.5 241.926 1405.43 237.871 1405.37 233.814Z" fill="black"/>
<path fill-rule="evenodd" clip-rule="evenodd" d="M1913.38 360.41C1913.36 356.397 1913.33 352.383 1913.31 348.377C1915.44 352.383 1915.48 356.392 1913.38 360.41Z" fill="black"/>
<path fill-rule="evenodd" clip-rule="evenodd" d="M816.98 367.721C816.77 363.457 816.55 359.196 816.35 354.939C816.56 359.206 816.77 363.462 816.98 367.721Z" fill="black"/>
<path fill-rule="evenodd" clip-rule="evenodd" d="M1955.98 1627.37C1959.11 1627.39 1962.24 1627.41 1965.34 1627.43C1962.2 1627.41 1959.09 1627.39 1955.98 1627.37Z" fill="black"/>
<path fill-rule="evenodd" clip-rule="evenodd" d="M1541.02 460.085C1536.99 459.683 1532.97 459.278 1528.94 458.874C1532.97 459.278 1537 459.683 1541.02 460.085Z" fill="black"/>
<path fill-rule="evenodd" clip-rule="evenodd" d="M1724 1567.29C1724.25 1563.97 1724.5 1560.65 1724.75 1557.35C1724.5 1560.67 1724.25 1563.98 1724 1567.29Z" fill="black"/>
<path fill-rule="evenodd" clip-rule="evenodd" d="M1288.24 417.575C1284.28 417.539 1280.31 417.505 1276.35 417.472C1280.34 415.165 1284.29 415.825 1288.24 417.575Z" fill="black"/>
<path fill-rule="evenodd" clip-rule="evenodd" d="M759.44 2.57401C755.44 2.44701 751.22 4.52899 747.54 1.36099C751.5 1.76499 755.47 2.17001 759.44 2.57401Z" fill="black"/>
<path fill-rule="evenodd" clip-rule="evenodd" d="M651.55 394.408C647.72 394.76 643.89 395.111 640.06 395.46C643.89 395.109 647.72 394.76 651.55 394.408Z" fill="black"/>
<path fill-rule="evenodd" clip-rule="evenodd" d="M892.75 1473.17C888.72 1473.59 884.68 1474.01 880.66 1474.43C884.69 1474.01 888.72 1473.59 892.75 1473.17Z" fill="black"/>
<path fill-rule="evenodd" clip-rule="evenodd" d="M993.14 342.332C989.21 342.416 985.28 342.501 981.35 342.585C985.25 341.022 989.15 339.549 993.14 342.332Z" fill="black"/>
<path fill-rule="evenodd" clip-rule="evenodd" d="M1636.97 1418.74C1636.95 1415.33 1636.93 1411.92 1636.9 1408.51C1636.93 1411.93 1636.95 1415.33 1636.97 1418.74Z" fill="black"/>
<path fill-rule="evenodd" clip-rule="evenodd" d="M2091.76 1129.45C2091.34 1133.57 2090.91 1137.69 2090.49 1141.82C2090.91 1137.7 2091.34 1133.57 2091.76 1129.45Z" fill="black"/>
<path fill-rule="evenodd" clip-rule="evenodd" d="M1581.44 1395.24C1581.14 1391.73 1580.85 1388.22 1580.56 1384.72C1580.85 1388.23 1581.15 1391.74 1581.44 1395.24Z" fill="black"/>
<path fill-rule="evenodd" clip-rule="evenodd" d="M258.5 1362.99C257.78 1366.49 255.23 1367.18 250.85 1365.06L258.5 1362.99Z" fill="black"/>
<path fill-rule="evenodd" clip-rule="evenodd" d="M1728.26 1364.55C1728.02 1361.5 1727.79 1358.45 1727.56 1355.41C1727.8 1358.46 1728.02 1361.51 1728.26 1364.55Z" fill="black"/>
<path fill-rule="evenodd" clip-rule="evenodd" d="M1604.41 1338.55C1604.41 1341.55 1604.4 1344.54 1604.39 1347.53C1604.4 1344.53 1604.41 1341.54 1604.41 1338.55Z" fill="black"/>
<path fill-rule="evenodd" clip-rule="evenodd" d="M1404.78 263.369C1404.78 266.203 1404.78 269.034 1404.79 271.853C1404.78 269.017 1404.78 266.193 1404.78 263.369Z" fill="black"/>
<path fill-rule="evenodd" clip-rule="evenodd" d="M197.65 927.05C197.32 930.04 197 933.03 196.67 936C197 933.01 197.32 930.03 197.65 927.05Z" fill="black"/>
<path fill-rule="evenodd" clip-rule="evenodd" d="M2180.24 1132.3C2180.07 1129.49 2179.89 1126.68 2179.72 1123.88C2179.89 1126.7 2180.07 1129.5 2180.24 1132.3Z" fill="black"/>
<path fill-rule="evenodd" clip-rule="evenodd" d="M470.92 1503.43C467.5 1503.37 464.08 1503.32 460.66 1503.27C464.12 1500.89 467.53 1501.4 470.92 1503.43Z" fill="black"/>
<path fill-rule="evenodd" clip-rule="evenodd" d="M869.1 189.618C869.05 186.799 868.99 183.98 868.93 181.17C870.69 183.96 871.25 186.763 869.1 189.618Z" fill="black"/>
<path fill-rule="evenodd" clip-rule="evenodd" d="M596.09 153.86C596.33 151.08 596.57 148.299 596.8 145.535C596.56 148.321 596.33 151.089 596.09 153.86Z" fill="black"/>
<path fill-rule="evenodd" clip-rule="evenodd" d="M1726.24 1127.28C1726.13 1124.21 1726.01 1121.15 1725.89 1118.09C1726.01 1121.15 1726.13 1124.22 1726.24 1127.28Z" fill="black"/>
<path fill-rule="evenodd" clip-rule="evenodd" d="M1704.23 1285.61C1704.15 1288.5 1704.06 1291.39 1703.98 1294.26C1704.06 1291.36 1704.15 1288.48 1704.23 1285.61Z" fill="black"/>
<path fill-rule="evenodd" clip-rule="evenodd" d="M1310.67 1564.36C1312.81 1564.36 1314.95 1564.35 1317.07 1564.35C1314.92 1564.36 1312.8 1564.36 1310.67 1564.36Z" fill="black"/>
<path fill-rule="evenodd" clip-rule="evenodd" d="M268.06 1565.83C270.2 1565.88 272.33 1565.94 274.44 1566C272.3 1565.94 270.18 1565.89 268.06 1565.83Z" fill="black"/>
<path fill-rule="evenodd" clip-rule="evenodd" d="M1561.36 1312.14C1540.51 1296.02 1522.33 1271.91 1518.09 1246.1C1527.06 1256.23 1534.6 1267.55 1543.57 1277.68C1547.14 1281.7 1551.51 1285.17 1554.93 1289.27C1562.74 1298.61 1561.36 1299.03 1561.36 1312.14Z" fill="black"/>
<path fill-rule="evenodd" clip-rule="evenodd" d="M1488.1 1203.16C1478.09 1180.09 1469.4 1152.11 1471.15 1126.65C1478.05 1149.76 1494.07 1178.79 1488.1 1203.16Z" fill="black"/>
<path fill-rule="evenodd" clip-rule="evenodd" d="M1521.68 1338.81C1521.51 1345.51 1521.34 1352.21 1521.18 1358.89C1521.35 1352.19 1521.52 1345.5 1521.68 1338.81Z" fill="black"/>
<path fill-rule="evenodd" clip-rule="evenodd" d="M198.01 1520.86C204.85 1521.26 211.69 1521.67 218.53 1522.08C211.66 1522.17 204.7 1523.84 198.01 1520.86Z" fill="black"/>
<path fill-rule="evenodd" clip-rule="evenodd" d="M1521.65 1316.69C1521.67 1322.4 1521.69 1328.11 1521.72 1333.81C1521.69 1328.09 1521.67 1322.39 1521.65 1316.69Z" fill="black"/>
<path fill-rule="evenodd" clip-rule="evenodd" d="M1240.56 654.5C1236.71 654.3 1232.86 654.1 1229.03 653.9C1232.9 654.1 1236.73 654.3 1240.56 654.5Z" fill="black"/>
<path fill-rule="evenodd" clip-rule="evenodd" d="M1303.21 512.447C1303.2 507.812 1303.18 503.178 1303.17 498.553C1303.18 503.19 1303.2 507.819 1303.21 512.447Z" fill="black"/>
<path fill-rule="evenodd" clip-rule="evenodd" d="M1220.5 628.708C1220.33 625.448 1218.59 623.806 1215.29 623.785C1221.91 620.207 1223.65 621.849 1220.5 628.708Z" fill="black"/>
<path fill-rule="evenodd" clip-rule="evenodd" d="M1416.73 886.54C1416.99 882.42 1417.25 878.29 1417.51 874.18C1417.25 878.3 1416.99 882.42 1416.73 886.54Z" fill="black"/>
<path fill-rule="evenodd" clip-rule="evenodd" d="M1264.46 963.86L1278.2 963.77C1273.62 963.8 1269.04 963.83 1264.46 963.86Z" fill="black"/>
<path fill-rule="evenodd" clip-rule="evenodd" d="M1395.54 461.298C1392.35 461.325 1389.16 461.351 1385.99 461.375C1389.2 461.349 1392.37 461.325 1395.54 461.298Z" fill="black"/>
<path fill-rule="evenodd" clip-rule="evenodd" d="M2061.27 1577.25C2065.28 1577.23 2069.28 1577.21 2073.28 1577.19C2069.29 1579.71 2065.29 1579.65 2061.27 1577.25Z" fill="black"/>
<path fill-rule="evenodd" clip-rule="evenodd" d="M380.46 1022.79C377.74 1022.86 375.03 1022.94 372.34 1023.02C375.07 1022.94 377.76 1022.86 380.46 1022.79Z" fill="black"/>
<path fill-rule="evenodd" clip-rule="evenodd" d="M1822.19 422.752C1824.76 425.232 1821.38 430.933 1818.32 428.968C1819.61 426.895 1820.9 424.825 1822.19 422.752Z" fill="black"/>
<path fill-rule="evenodd" clip-rule="evenodd" d="M567.28 1273.81C567.39 1270.31 567.51 1266.8 567.62 1263.29C567.5 1266.81 567.39 1270.31 567.28 1273.81Z" fill="black"/>
<path fill-rule="evenodd" clip-rule="evenodd" d="M1484.96 1275.75C1485.14 1272.09 1485.33 1268.43 1485.51 1264.78C1485.33 1268.44 1485.14 1272.1 1484.96 1275.75Z" fill="black"/>
<path fill-rule="evenodd" clip-rule="evenodd" d="M2125.38 894.35C2125.53 898.02 2125.69 901.68 2125.84 905.33C2125.68 901.67 2125.53 898.01 2125.38 894.35Z" fill="black"/>
<path fill-rule="evenodd" clip-rule="evenodd" d="M1450.98 1028.28C1451.18 1024.64 1451.38 1021 1451.58 1017.37C1451.38 1021.01 1451.18 1024.65 1450.98 1028.28Z" fill="black"/>
<path fill-rule="evenodd" clip-rule="evenodd" d="M1100.18 1415.82C1097.54 1415.83 1094.91 1415.83 1092.31 1415.83C1094.95 1415.82 1097.57 1415.82 1100.18 1415.82Z" fill="black"/>
<path fill-rule="evenodd" clip-rule="evenodd" d="M1332.27 526.137C1332.11 529.539 1331.96 532.938 1331.81 536.323C1331.96 532.919 1332.12 529.527 1332.27 526.137Z" fill="black"/>
<path fill-rule="evenodd" clip-rule="evenodd" d="M1390.56 1351.26C1394.61 1348.39 1398.54 1350.29 1402.49 1351.53C1398.51 1351.44 1394.54 1351.35 1390.56 1351.26Z" fill="black"/>
<path fill-rule="evenodd" clip-rule="evenodd" d="M917.71 377.924C915.05 377.816 912.39 377.705 909.76 377.585C912.43 377.693 915.07 377.809 917.71 377.924Z" fill="black"/>
<path fill-rule="evenodd" clip-rule="evenodd" d="M1562.49 1413.82C1562.25 1410.43 1562.01 1407.05 1561.77 1403.67C1562.01 1407.06 1562.25 1410.44 1562.49 1413.82Z" fill="black"/>
<path fill-rule="evenodd" clip-rule="evenodd" d="M1344.72 1031.52C1342.52 1031.53 1340.33 1031.55 1338.17 1031.57C1340.37 1031.56 1342.54 1031.54 1344.72 1031.52Z" fill="black"/>
<path fill-rule="evenodd" clip-rule="evenodd" d="M1437.19 1154.53C1437.19 1151.71 1437.19 1148.88 1437.2 1146.07C1437.19 1148.9 1437.19 1151.72 1437.19 1154.53Z" fill="black"/>
<path fill-rule="evenodd" clip-rule="evenodd" d="M1296.92 1361.7C1300.21 1361.27 1303.49 1360.85 1306.77 1360.42C1303.49 1360.85 1300.2 1361.27 1296.92 1361.7Z" fill="black"/>
<path fill-rule="evenodd" clip-rule="evenodd" d="M1154.98 950.73C1158.53 950.71 1162.09 950.68 1165.64 950.66C1162.1 952.75 1158.54 952.36 1154.98 950.73Z" fill="black"/>
<path fill-rule="evenodd" clip-rule="evenodd" d="M1339.21 604.95C1337.15 604.931 1335.1 604.912 1333.07 604.895C1335.13 604.912 1337.17 604.931 1339.21 604.95Z" fill="black"/>
<path fill-rule="evenodd" clip-rule="evenodd" d="M731.87 1128.95C729.75 1128.92 727.63 1128.89 725.54 1128.86C727.67 1128.89 729.77 1128.92 731.87 1128.95Z" fill="black"/>
<path fill-rule="evenodd" clip-rule="evenodd" d="M322.42 989.89C325.97 989.93 329.52 989.97 333.07 990C329.5 992.01 325.95 992.06 322.42 989.89Z" fill="black"/>
<path fill-rule="evenodd" clip-rule="evenodd" d="M2125.72 995.77C2125.5 998.47 2125.27 1001.18 2125.06 1003.88C2125.28 1001.16 2125.5 998.46 2125.72 995.77Z" fill="black"/>
<path fill-rule="evenodd" clip-rule="evenodd" d="M1222.15 1431.21C1222.45 1428.25 1222.75 1425.29 1223.06 1422.35C1222.75 1425.31 1222.45 1428.26 1222.15 1431.21Z" fill="black"/>
<path fill-rule="evenodd" clip-rule="evenodd" d="M648.26 1078.7C651.84 1078.75 655.43 1078.8 659.02 1078.86C655.4 1081.35 651.83 1079.78 648.26 1078.7Z" fill="black"/>
<path fill-rule="evenodd" clip-rule="evenodd" d="M1174.4 1507.51C1174.72 1510.62 1175.03 1513.73 1175.35 1516.83C1175.03 1513.72 1174.72 1510.62 1174.4 1507.51Z" fill="black"/>
<path fill-rule="evenodd" clip-rule="evenodd" d="M1485.02 1303.1C1485.01 1300.2 1485 1297.3 1485 1294.41C1485.01 1297.32 1485.01 1300.21 1485.02 1303.1Z" fill="black"/>
<path fill-rule="evenodd" clip-rule="evenodd" d="M220.23 1522.49C223.61 1522.94 226.98 1523.38 230.36 1523.82C226.98 1523.38 223.6 1522.94 220.23 1522.49Z" fill="black"/>
<path fill-rule="evenodd" clip-rule="evenodd" d="M283.57 1523.86C286.9 1521.13 290.28 1521.97 293.68 1523.71C290.31 1523.76 286.93 1523.81 283.57 1523.86Z" fill="black"/>
<path fill-rule="evenodd" clip-rule="evenodd" d="M1259.38 1539.21C1262.74 1538.76 1266.11 1538.31 1269.47 1537.86C1266.1 1538.31 1262.74 1538.76 1259.38 1539.21Z" fill="black"/>
<path fill-rule="evenodd" clip-rule="evenodd" d="M1330.6 546.699C1330.45 549.47 1330.3 552.244 1330.15 554.998C1330.3 552.22 1330.45 549.458 1330.6 546.699Z" fill="black"/>
<path fill-rule="evenodd" clip-rule="evenodd" d="M522.57 1207.5C522.88 1204.56 523.18 1201.61 523.49 1198.68C523.18 1201.63 522.88 1204.56 522.57 1207.5Z" fill="black"/>
<path fill-rule="evenodd" clip-rule="evenodd" d="M1304.11 475.017C1304.2 472.13 1304.29 469.243 1304.38 466.371C1304.29 469.263 1304.2 472.14 1304.11 475.017Z" fill="black"/>
<path fill-rule="evenodd" clip-rule="evenodd" d="M648.87 1174.77C649.17 1177.72 649.47 1180.67 649.77 1183.6C649.47 1180.65 649.17 1177.71 648.87 1174.77Z" fill="black"/>
<path fill-rule="evenodd" clip-rule="evenodd" d="M1214.13 1508.3C1216.12 1514.12 1215.39 1527.66 1209.76 1531.76C1198.09 1540.27 1196.89 1524.73 1194.57 1516.33C1188.14 1493.04 1177.79 1467.03 1175.16 1443.08C1174.35 1435.73 1173.91 1421.97 1183.62 1419.5C1193 1417.11 1197.74 1431.97 1200.98 1439.6C1209.95 1460.78 1215.15 1485.34 1214.13 1508.3Z" fill="black"/>
<path fill-rule="evenodd" clip-rule="evenodd" d="M1214.13 1508.3C1214.27 1505.3 1214.4 1502.29 1214.53 1499.29C1214.4 1502.3 1214.27 1505.3 1214.13 1508.3Z" fill="black"/>
</svg>
