<svg width="720" height="640" viewBox="0 0 720 640" fill="black" xmlns="http://www.w3.org/2000/svg">
  <g xmlns="http://www.w3.org/2000/svg" fill="none" fill-rule="evenodd">
    <rect width="720" height="640"/>
  </g>
<g transform="translate(120, 80)"><path xmlns="http://www.w3.org/2000/svg" d="M393.13 244.9l.01.1-.01-.1zm-276-109.4l.01.1c-.01-.06-.01-.08-.01-.1z"/><path xmlns="http://www.w3.org/2000/svg" d="M258.65 47.78s-1.83 1.25-3.23 1.32c-1.4.07-1.47-.07-1.47-1.03s-.15-1.54-.37-2.27-1.17-1.83-1.17-1.83-.8 1.54-2.64 1.98-3.6-.3-6.53-1.54c-2.94-1.25-5.72-1.47-8.15-.8-2.42.66-3.3 1.4-4.26 2.13s-2.35 2.95-2.35 2.95-2.83-.33-5.87 1.08c-3.34 1.56-4.77 5.87-5.14 9.03s.6 6.68 1.17 8.5 1.65 4.13 1.65 4.13.18-.22.5-.5l.12.6c-1 1.04-1.6 2.48-1.6 4.1 0 3.15 2.37 5.7 5.3 5.7.37 0 .72-.05 1.07-.13l-6.87 22.43-2.2 5.7s3.2 4.1 10.8 5.7c5.2 1.1 8.7 1.2 11 1 1.9-.2 4.2-.6 3-4.1-1.7-5.2-1.1-8.5-1.1-8.5l2.4-13.1c1.63.3 3.14.35 4.3-.01 3.2-1 5.9-4.4 6.9-10.1.5-3.3.8-9.2.8-13.4 0-1.1-.1-3.4-.3-5.4-.07-.52-.16-1.02-.26-1.5a11.2 11.2 0 0 0 3.3-2.34c4.94-5.07 1.2-9.77 1.2-9.77zM228 79.98c.01.03.02.06.02.1l-.08-.05c.02-.01.04-.02.06-.04z" fill="#fff"/><path xmlns="http://www.w3.org/2000/svg" d="M251.84 60.06l.33-.04c-.01-.03-.1-.01-.33.04zm-29.67 9.24l.08-.04c-.06.02-.07.04-.08.04zm38.87-18.16v.02l.03.1-.03-.12z"/><circle xmlns="http://www.w3.org/2000/svg" cx="242.07" cy="71.92" r="1.4"/><path xmlns="http://www.w3.org/2000/svg" d="M224.93 72.6c-1.6 0-2.9 1.35-2.9 3s1.3 3 2.9 3 2.9-1.35 2.9-3-1.3-3-2.9-3zm0 5c-1.05 0-1.9-.9-1.9-2s.85-2 1.9-2 1.9.9 1.9 2-.85 2-1.9 2zm18.47-13.47c-3.6-.3-5.2 2.1-5.3 2.2-.2.3-.18.75.15 1 .5.38.92.16 1.15-.1.12-.13 1.2-1.8 3.9-1.6.4 0 .8-.3.8-.7s-.3-.8-.7-.8zm7.14.57c.15-.02 1.24-.35 2.1.14.14.08.3.16.4.16.2 0 .5-.1.6-.3a.78.78 0 0 0-.2-1c-1.4-1-3.13-.44-3.28-.4a.73.73 0 0 0-.52.9c.1.4.5.54.9.5z"/><circle xmlns="http://www.w3.org/2000/svg" cx="252.07" cy="71.12" r="1.4"/><path xmlns="http://www.w3.org/2000/svg" d="M244.3 82.84c-3.6.17-4.65-2.7-4.7-2.85-.18-.4-.56-.54-.95-.4s-.55.56-.4.95c.55 1.45 2.42 3.98 6.22 3.8.4-.04.67-.37.62-.87a.75.75 0 0 0-.77-.62zm16.75-31.68l-.57-2.03-.22-.55-.18-.37-.23-.4c-.32-.52-.68-.98-1-1.3l-.47.35-.78.37-.46.3-.27.16a1.93 1.93 0 0 1-.56.21l.01-.04c-.48.3-1.07.28-1.2.32l.01-.03c-.05 0-.1.01-.15 0l.05-.03c-.06.02-.1-.02-.12-.07-.01-.03-.01-.04-.02-.1l-.02-.38c-.04-.63-.17-1.27-.3-1.8l-.1.12c-.04-.18-.07-.36-.17-.6l-.13-.3c-.04-.1-.12-.22-.18-.33a8.35 8.35 0 0 0-.82-1.12l-.52-.03c-.14-.01-.26-.05-.34.02-.18.1-.43.18-.83.28-.22.33-.58.66-.68.7-.16.12-.35.22-.56.3v-.04c-.8.6-1.73.55-2.55.32l-2.95-.96c.3.08-.1-.1-.06-.13-1.06-.42-2.35-.9-2.44-.65-.85-.28-.68-.28-.76-.42-.02.1-.8-.06-1.48-.17l.33.02a11.3 11.3 0 0 0-2-.2 4.79 4.79 0 0 1 .38.23c-1.05-.1-.26-.3-1.3-.23l.02.17c-1.46.03-2.4.01-3.8.34-1.22.38-2.46 1.15-3.42 1.98-.6.52-.96 1.03-1.35 1.56l-.55.8-.13.2-.04.08c-.03.04-.05.1-.08.14h-.2l-.66.02-1.3.15a14.34 14.34 0 0 0-2.52.65c-.8.3-1.6.65-2.33 1.18-.7.52-1.3 1.13-1.83 1.77l-.25.13c-.26-.02-.6 1.5-.8 1.6l-.2.65c-.1.15-.27.5-.2.18-.23.56-.2.6-.3 1l-.3.58c-.74 2.24-.7 4.37-.43 6.8.05 1.16.33 2.68.8 4.24.23.78.53 1.6.85 2.34l.5 1.13.8 1.72c.08 0 .13.01.2.02a6.42 6.42 0 0 0-1.07 3.57c0 3.42 2.6 6.2 5.8 6.2.12 0 .24-.02.36-.03l-6.63 21.65-2.3 5.96.17.22c.14.17 3.4 4.26 11.1 5.88 3.44.73 6.48 1.1 9.08 1.1a22.56 22.56 0 0 0 2.07-.09c1.28-.13 2.7-.37 3.4-1.45.5-.8.52-1.88.03-3.3-1.63-5-1.1-8.22-1.08-8.25l2.32-12.6c.68.1 1.35.18 1.96.18.76 0 1.46-.1 2.08-.28 3.63-1.14 6.27-4.96 7.25-10.5.1-.64.18-1.36.26-2.14 1.83-.73 3.13-3.16 3.13-6.12 0-2.67-1.06-4.9-2.6-5.86-.03-1.26-.13-3.14-.3-4.8-.02-.17-.06-.33-.1-.5 1.08-.5 2.23-1.22 3.5-2.52.85-.9 1.65-1.98 2.17-3.23a7.87 7.87 0 0 0 .55-3.9zm-18.22 15.72c-2.38 0-4.45 2.33-4.9 5.35l-3.22-.56c.1-.15.2-.33.17-.34.86-1.33 1.18-2.73 1.42-4.14 0 0 .06-.32.1-.86s.07-1.3-.03-2.17c-.2-1.83-1.2-3.7-2.13-4.98-.25-.34-.34-.46-.42-.7-.03-.1-.05-.2-.07-.27a1.12 1.12 0 0 0 .22-.03l.02.08c.02.02.05.03.07.04l.13.05a20.69 20.69 0 0 1 .76.35l1.04.52c3.87 1.95 6.4 2.96 11.87 2.92 2.42-.01 3.98-.3 5.5-.76l.5-.18c.01.08.03.15.04.22a73.09 73.09 0 0 1 .28 4.29c-.22-.05-.44-.08-.67-.08-2.2 0-3.95 2.33-4.24 5.44a2.4 2.4 0 0 0-.76-.09 1.91 1.91 0 0 0-1 .31c-.7-2.54-2.56-4.4-4.7-4.4zm4 6.6c0 3.1-1.8 5.6-4 5.6s-4-2.5-4-5.6 1.8-5.6 4-5.6 4 2.5 4 5.6zm-7 29.82c-.03.14-.6 3.5 1.12 8.75.38 1.1.4 1.93.07 2.45-.45.7-1.6.88-2.64 1-2.9.25-6.55-.08-10.85-1-6.34-1.33-9.56-4.47-10.33-5.3l2.1-5.45 6.78-22.16c.58-.16 1.13-.4 1.63-.75.08.3.16.6.22.88.53 2.22 2.42 4.1 5.96 5.93 2.5 1.3 5.52 2.5 8.25 3.06l-2.3 12.6zm13.6-23.2c-.9 5.15-3.3 8.7-6.56 9.7-3 .94-8.62-1.07-12.52-3.07-3.2-1.65-5-3.38-5.44-5.27a24.44 24.44 0 0 0-.35-1.35l-.25-1.25c-.88 1.16-2.2 1.92-3.7 1.92-2.65 0-4.8-2.33-4.8-5.2s2.15-5.2 4.8-5.2c1.2 0 2.28.48 3.12 1.27a3.37 3.37 0 0 1 .29.35l.23.36c.07.12.28.38.46.5.4.3.8.44 1.14.52l.93.2c.92.08 1.54-.14 2.2-.45a5.42 5.42 0 0 0 .9-.6l3.95.67c0 .08-.01.17-.01.25 0 3.6 2.2 6.6 5 6.6 2.7 0 5-3 5-6.6a8.76 8.76 0 0 0-.07-1.03c.05-.05.1-.1.17-.14-.01.1.01.23.07.35.5 1.3 1.4 3.8 1.3 4.7s-.85 1-1.2 1.1c-.45.12-.75.45-.65.9.12.58.65.63.95.6.8-.1 2.2-.9 2.3-2.4a4.77 4.77 0 0 0-.04-.82c.76 1 1.76 1.62 2.88 1.62.04 0 .08-.01.12-.01l-.22 1.75zm.32-2.77c-.07.01-.15.02-.22.02-1.78 0-3.3-2.45-3.3-5.35s1.5-5.35 3.3-5.35a2.01 2.01 0 0 1 .69.13c0 3-.16 7.2-.47 10.55zm1.47-9.9c.95.95 1.6 2.66 1.6 4.56 0 2.18-.85 4.1-2.02 4.93.26-3.05.4-6.68.43-9.5z"/><path xmlns="http://www.w3.org/2000/svg" d="M405.76 331.53v-.1c-.01.07-.01.1 0 .1z"/><path xmlns="http://www.w3.org/2000/svg" d="M87.3 321.23L136 298.8c13.7-6.5 22.96-10.34 31.06-13.24s13.1-11.37 13.1-11.37l22.4 34.17 3.08 2.8-115.05 36.4-3.27-26.34z" fill="#fff"/><path xmlns="http://www.w3.org/2000/svg" d="M99.26 323.1l-.02.07c.02-.01.04-.04.02-.07zm4.1 14.53zm-4.6-12h0c0-.01 0-.01-.02-.02l.02.02zm26.47-22.34l.7-.28c-.02-.01-.2.06-.7.28zm-1.66 34.3l-.17.06c.12-.05.16-.06.17-.06z"/><path xmlns="http://www.w3.org/2000/svg" d="M258.4 307.5s0 22.1 8 40.7l17.6 41.7 8.6 22.1 14.7 5 13.4-10.3s-3.7-5.2-4.8-10.2l-18.7-81.4-2.5-18.6-36.3 11z" fill="#fff"/><path xmlns="http://www.w3.org/2000/svg" d="M158.6 278.07h-.04c-.06.01-.14.01-.2.02l.23-.02zm118.84 97.73c-.01-.02-.01-.03-.02-.04l-.08-.18.1.22zM99 322.2l-.13-.42c-.1-.13-.08.05-.18 0-.06-.13-.15-.24-.14-.4l-.07.07c-.13-.23-.17-.4-.13-.58-1.18-1.68-1-.14-1-.14.03.8.37 1.1.68 1.96.17.78.08 1.02.36 1.8.1.38.25.78.37 1.14.17.14.14.5.3.67l-.05.1c.06.07.1.14.1.22h-.02c.1.1.1.22.13.27h-.02l.05.13-.04-.02a1.46 1.46 0 0 1 .19.54l.08-.04c.01.4.22.47.2.83h-.02c.34.36.04.7.36 1.07-.04-.05-.04.04-.06.03.08.2.15.4.32.35.04.14-.02.13-.08.17.08-.03.14.1.17.2l-.05-.05.1.3.12-.1c.01.18-.16.1-.07.24l.12-.03c.04.24-.1.43-.1.68.22.96.8 1.9.84 2.83l-.07.06c-.12.05.25.2.14.26l.08.1c-.01.03-.02.1-.07.06.02.1.04.1.1.16l-.05.12c.04.4.28.66.36 1.07-.03.52.37 1.36.6 1.86.4.67.13 1.64.55 2.33-.01.03.05.08.06.07l.17.68s.88 3.3 1.2.5h.03c-.04-.4-.1-.63-.3-.84.16-.1-.07-.3-.04-.4v.01c-.2-.2-.03-.5-.2-.68.01.01.06 0 .08.05-.07-.16-.16-.36-.07-.4-.13-.37-.23-.92-.46-1.1l.03.01c-.14-.1-.06-.18-.16-.3.01-.01.01-.03.02-.03-.15-.12-.14-.44-.22-.55l.07-.02-.1-.3v.12c-.2.01.04-.26-.13-.44-.03-.2-.48-.3-.46-.55-.1-.08.16.05.06-.08.1-.03.07.06.14-.01-.08-.14.03-.27-.1-.43l.07-.02c-.2-.2-.03-.48-.2-.6-.13-.23.16-.23-.04-.44l.07-.13c-.02-.1-.14-.04-.13-.18.06-.01 0-.17.1-.12.02-.3-.3-.52-.24-.92-.14-.04-.12-.24-.23-.28.04-.03-.1-.37.08-.2.02.02.02.05 0 .05h.08c.07-.24-.18-.35-.2-.56-.01.07.02.14-.04.1l-.05-.2.07.03-.04-.3-.06.06c0-.15.1-.23-.03-.36-.08-.06-.06.16-.13.02l-.05-.74c-.08.05-.1-.02-.13-.08l.08-.03c-.18-.22.13-.13-.01-.37h-.1c-.2-.18.1-.16-.15-.36.04.1-.15.1-.15-.04h.08c-.03-.06-.07-.08-.07-.13.05.02.1-.01.07-.1l.1.04-.18-.15c.04-.16-.12-.37-.04-.45 0 0-.04-.32-.16-.37.08.05.06-.14.15-.1-.1-.06-.23-.28-.17-.4l.02.02c-.02-.38-.28-.57-.27-.9-.08.04-.08-.14-.18-.08-.2-.3.05-.66-.32-.68-.06-.14.02-.2.03-.28l.03.03-.18-.56c-.07-.1-.22-.07-.23-.27.08.05.04-.03.03-.1.03.04.05.05.07-.06-.02 0-.04-.03-.06-.04 0 0 .01 0 .02-.01-.05-.1-.07-.08-.06-.03-.01 0-.02.01-.03.03.04-.14-.1-.34 0-.37-.12-.34-.3-.55-.43-.84.05-.05.1 0 .16.08l-.08-.2c.08-.02.08.1.1.16.06-.28-.26-.47-.23-.8l-.08-.05v-.02c-.03.01-.1-.04-.12-.1.05-.06.15-.04.12-.18.04-.13-.12-.3-.2-.45.01.08-.03.06-.07.05-.02-.07.04-.13-.01-.18l.08-.03c-.08.05-.14-.16-.2-.18.05.04.1.2.14.2z"/><path xmlns="http://www.w3.org/2000/svg" d="M101.57 330.14h.05zM296 405.36c-1.6 1.1-.14 1-.14 1 .74.01 1.04-.32 1.85-.6.74-.14.97-.03 1.7-.28.36-.08.74-.2 1.08-.32.14-.16.46-.12.63-.27l.1.05c.06-.05.13-.1.2-.08v.02c.1-.08.2-.08.25-.1v.02l.12-.04-.01.03c.16-.1.34-.15.5-.16l-.03-.08c.37.01.45-.2.8-.16h0c.34-.32.66 0 1-.32-.04.04.03.04.03.06.18-.07.38-.13.34-.3.14-.03.12.02.16.08-.02-.07.1-.13.2-.16l-.04.04.3-.1-.1-.12c.17 0 .08.16.23.1l-.03-.1c.23-.03.4.1.64.14.9-.18 1.8-.7 2.68-.72l.06.08c.05.12.18-.24.24-.13l.08-.08c.03.02.1.02.06.07.1-.02.1-.04.14-.1l.12.05c.37-.03.63-.25 1-.32.5.05 1.3-.3 1.75-.52.63-.36 1.55-.06 2.2-.45.03.01.08-.04.07-.06l.64-.14s3.1-.73.5-1.17l.01-.03c-.37.02-.6.06-.8.26-.08-.16-.3.05-.4.02v-.02c-.18.18-.47 0-.64.17 0-.02 0-.06.04-.08-.14.06-.34.15-.38.05-.35.12-.86.2-1.05.4v-.03c-.1.14-.17.06-.3.15-.01-.01-.02-.01-.02-.02-.12.14-.4.12-.5.2v-.06l-.28.1.1-.01c.01.2-.24-.06-.42.1-.2.03-.3.47-.52.43-.07.1.05-.16-.08-.06-.03-.1.05-.07 0-.14-.13.08-.25-.04-.4.07l-.03-.07c-.2.2-.45.01-.57.17-.22.12-.2-.18-.4.03l-.12-.07c-.1.01-.04.14-.17.12-.01-.06-.16-.01-.1-.1-.28-.03-.5.27-.87.2-.04.14-.23.1-.27.2-.02-.05-.35.08-.18-.08.01-.01.04-.02.05 0l.01-.08c-.23-.1-.33.16-.53.2.06.01.14-.02.1.05l-.18.04.02-.07-.28.03.06.06c-.14-.01-.22-.12-.34.02-.05.08.15.07.02.13a3.35 3.35 0 0 0-.7.02c.04.08-.02.1-.08.12l-.03-.07c-.2.16-.13-.14-.34 0l-.02.1c-.18.2-.15-.12-.34.13.1-.04.08.15-.04.15l.01-.08c-.06.03-.07.07-.12.06.03-.05-.01-.1-.1-.07l.04-.1-.14.17c-.15-.04-.35.1-.43.02 0 0-.3.03-.34.15.04-.08-.13-.07-.1-.16-.06.1-.26.2-.37.15h.01c-.35 0-.54.26-.86.23.03.08-.13.07-.07.17-.28.18-.6-.08-.64.28-.14.05-.2-.04-.26-.04l.03-.03c-.25.1-.33.12-.53.16-.1.06-.07.2-.25.22.04-.08-.03-.05-.1-.03.04-.02.05-.05-.05-.07-.01.02-.02.04-.04.05l-.01-.01c-.1.05-.08.06-.03.06 0 .01.01.02.03.03-.13-.05-.3.08-.35-.02-.32.1-.53.27-.8.38-.04-.05.01-.1.08-.15l-.2.07c-.02-.08.1-.07.16-.1-.26-.07-.44.24-.74.2l-.04.08-.02-.01c.01.03-.04.1-.08.1-.06-.06-.04-.16-.17-.12-.12-.04-.3.1-.42.18.08-.01.06.04.04.07-.07.02-.12-.04-.17 0l-.03-.1c.05.08-.15.14-.17.18-.06-.06.1-.08.1-.14l-.4.1c-.12.1.05.08 0 .18-.12.05-.23.14-.4.13l.07.07c-.2.13-.34.15-.52.1zm-200.87-55.8v-.04c-.01.01-.02.02 0 .04zm-.17-1.5h0z"/><path xmlns="http://www.w3.org/2000/svg" d="M359.5 422.54l-.06-.46-.13-.96c-.2-1.28-.44-2.58-1.17-4.12.18.38.01-.2.05-.18-.55-1.46-1.42-2.95-1.68-2.82l-.5-.85c-.07-.13-.02-.15-.05-.26-.1.03-.98-.63-1.77-1l.38.16c-.75-.43-1.52-.76-2.28-1.1l.35.42c-1.17-.6-.2-.4-1.37-.84l-.06.2c-1.66-.7-2.56-1.33-4.17-2.03-6.86-2.38-14.48-3.86-20.88-5.86l-.25-.22c-.07-.24-1.87-.15-2.07-.4l-.78-.1c-.2-.1-.64-.24-.25-.2-.7-.18-.72-.15-1.26-.22-.1-.05-.28-.1-.47-.16-.17-.04-.34-.07-.5-.1-.67-.01-1.36.2-1.94.56-1.02-2-1.87-4.1-2.34-6.36l-2.26-9.32-4.2-17.95-.03-.52c.07-.25-.92-3.08-.9-3.53l-.37-1.3c-.06-.37-.22-1.16-.04-.5-.28-1.22-.3-1.24-.55-2.1l-.23-1.32c-1.06-4.8-2.16-8.86-3.3-13.92-1.25-6.1-4.03-17.5-5.54-24.08-.54-2.32-1.1-4.7-1.4-7.2l-1.5-12.3c.04-.01.08-.03.13-.04l1.07-.34c.36-.1.85-.3 1.2-.56.77-.52 1.36-1.3 1.65-2.18.3-.9.27-1.9-.07-2.8l-.8-2.14c-2.15-5.7-4.32-11.46-6.64-16.72-.06-.18-.2-.5-.3-.75s-.23-.47-.24-.47l-3.94-9.76s-4.83-11.8-8.2-19c-1.67-3.6-2.96-6.03-2.9-5.32.01.22.16.76.47 1.67l-.7-1.56c-1.06-2.36-2.04-4.7-2.95-7 1.4 3.1 2.43 5.04 3.06 6.15.96 1.7 1.06 1.5.74.48-.3-1-1.02-2.82-1.6-4.4l-1.1-2.9-4.7-13.77-1.8-5.94.43-1.78.73-3 .38-1.62H192l.04.62.08 1.08.2 2.07.12-.24c.26 2.87.7 4.8 1.12 6.63.02.07.03.14.05.2l-.23.53c-4.7 10.3-6.17 12.93-10.87 23.68L175.6 258c-.87 2.46-2.94 6.56-4.03 9.43l-.6 1.04-.65 1.62c-.25.65-.4 1.33-.47 1.97l-.03-.08c-.03.96.12 1.97.42 2.8a6.93 6.93 0 0 0 .85 1.67l.8 1.1h.05l.4.55-.24-.24a170.41 170.41 0 0 1 4.85 6.5l-.01-.25c3.04 4.4 4.45 5.8 7.16 9.82l-.07-.03c3.93 4.7 5.52 7.94 9.54 12.8-.5-.6.14.32.07.3 1.75 2.3 3.6 4.8 3.86 4.66.9 1.24 1 1.44 1 1.56l.95 1.15c.4.5.85 1.1 1.28 1.67l-.5-.58.7.95.36.48a3.87 3.87 0 0 0 .53.54c.78.64 1.86.9 2.86.67-.4.01-.8-.05-1.16-.18.74.1 1.18-.01 1.43-.07.26-.06.36-.1.46-.1.1-.02.2-.05.4-.2.23-.15.53-.48.9-.9l-.17-.1c2.4-2.5 4-3.8 6.4-6.15l13.14-14.23 3.6-3.93-.03-.07 2.6-2.67 7.13 12.28.18.6c-.05.34 2.2 3.1 2.3 3.65l.9 1.33c.2.4.64 1.24.2.58.74 1.28.8 1.3 1.38 2.17l.7 1.43 1.06 1.86 1.1 1.85c.55.83 1.43 1.36 2.33 1.54a3.82 3.82 0 0 0 1.39.02 5.47 5.47 0 0 0 .65-.17l.48-.17 8.1-2.78c7.07-2.07 20.15-6.7 27.68-9.36 2.23-.82 4.57-1.6 6.96-2.38l1.92 13.24-.06-.2c.4 1.8.44 2.34.9 4.33.01.1.03.25.02.23.52 1.92 1.25 5.66 1.65 7.2l-.04.12.88 3.85-.3-1.44c.3.46.54 2.94 1.3 5.7.57 2.62 1.6 5.2 2.13 7.95.38 1.27-.4-1.1.1.8-.08.08-.27-.9-.23-.37.48 1.9.63 3.13 1.23 5.46l-.05.1c.84 3.02 1.25 5.78 1.85 7.8.8 3.13.28 2.16 1.2 5.4l.2 1.3c.3 1.4.36.98.67 2.54-.08-.08.4 1.98.14 1.08.73 3.54 1.8 7.1 2.74 11.78.36.98.83 3.33 1.1 4.06-.02.14 1.1 4.68.36 2.08-.06-.22-.15-.62-.13-.6l-.15-.3c.5 2.67 1.2 4.78 1.8 7.4-.16-.78-.4-1.8-.2-1.13l.56 2.43-.18-.5.82 3.62-.04-.52c.38 1.75.36 2.52 1.23 4.43.4.86-.54-1.68.2.14a30.83 30.83 0 0 0 1.29 2.93c-.05.08-.12.16-.17.24l-.24.4c-.15.27-.33.54-.5.8-.7 1.07-1.48 2.1-2.5 3.1-1.3 1.12-3.25 2.64-5.5 3.73-1.12.55-2.3 1.02-3.44 1.33a13.85 13.85 0 0 1-3.11.6c-1.28.12-2.62-.07-3.9-.54-1.3-.5-2.44-1.25-3.7-2.1-.35-.22-.6-.42-1.2-.64-.3-.1-.55-.12-.84-.12-.05 0-.1.01-.15.01-1.55-4.2-2.9-7.14-4.28-10.96-.01.2-.76-1.85-.67-1.3-1.66-3.96-2.62-7.37-3.5-8.7-.73-1.8-.77-2.18-1.13-3.13l.2.42-2.85-6.87c-.55-1.24-.78-1.37-1.7-3.63.36.7-.03-.2-.4-1.05.24.53.33.7-.1-.43a11.11 11.11 0 0 1-.3-.6c0-.01-.01-.06 0-.04-.6-1.4-.53-1.14-.26-.5-.02-.03-.01.03.06.24-.54-1.48-1.73-4.03-1.7-4.25l-4.75-10.6c-.12-.4.28.38.73 1.38l-1.08-2.46c.08-.01.65 1.4 1 2.16-1.15-3-2.73-6.02-4.1-9.5l-.37-.7-.08-.2c-.02.02-.4-.73-.62-1.24-.13-.52.16-.03-.53-1.74l-2.1-5.7c.28 1 .15.7 0 .27-.27-.9-.35-1.42-.6-2.1l.05-.1c-.05-.05-.2-.53-.38-1.07l-.46-1.58c-.06-.53.42 1.38.53 1.6-.9-3.6-.53-1.78-1.34-5.4-.5-1.92-.01.37-.3-.54-.4-1.7-.78-3.38-1.06-5.37l.02.64c-.47-2.53-.74-4.27-.9-5.97l-.92.35c.24 1.9.53 3.68.86 5.52.73 3.85 1.62 7.92 3.32 13.47a106.44 106.44 0 0 0 3.98 10.88l4.64 10.85 6.03 14c1.02 2.1 2.5 5.92 3.62 8.42l.33 1c.4.86.83 1.88 1.14 2.78l-.04-.05c.57 1.3 1.1 2.8 1.4 3.44l-.04-.05.63 1.6-.14-.26a190.28 190.28 0 0 1 2.66 6.75l.01-.2c1.65 4.5 2.45 6.07 3.9 10.14l-.04-.05.35.82a2 2 0 0 0-.82 1.07c-.06.15-.08.3-.1.47l-.05.33c-.03.2-.04.4-.06.58a21.84 21.84 0 0 0 .06 4.44 2.11 2.11 0 0 0 .1.66c.1 1.73.25 3.46.47 5.18 0 0 .2 1.56.6 3.6s1.03 4.47 1.72 6.38c.25.63.7 1.07 1.15 1.32a2.78 2.78 0 0 0 1.2.36c.68.02.92-.17.74-.26-.1-.08-.45-.12-.88-.35.28.08.58.12.86.1l3.7-.55c-9 2.27.28 1.25.28 1.25 5.56-.5 8.35-1.33 14.9-2.4 5.78-.78 7.35-.74 13.32-1.74 2.86-.4 5.9-.9 8.68-1.36 1.3-.4 3.66-.54 5.2-.95l.62.03c.53-.14 1.16-.27 1.7-.3l-.03.04c.8-.2 1.7-.3 2.1-.4l-.03.04.98-.16-.16.07c1.4-.3 2.84-.52 4.12-.67l-.13-.13a29.25 29.25 0 0 0 3.2-.46l1.37-.23.76-.1a7.42 7.42 0 0 0 .44-.05c.2-.03.42-.07.64-.14l-.04.05c1.12-.5 1.76-1.64 1.72-2.64.1-.18.05-.43.02-.6zM195.66 315l-1.22-.85-6.4 2.07-16.84 5.28-.52.07c-.25-.06-3 1.14-3.45 1.17l-1.27.46c-.37.1-1.14.3-.5.07l-2.06.7-1.3.33c-4.72 1.42-8.65 2.83-13.6 4.37-5.98 1.72-17.1 5.4-23.5 7.5-8 2.72-17.36 5.28-25.8 8.02-.08-.14-.16-.3-.26-.42-.14-.2-.32-.37-.5-.5l-.37-.3c-.23-.2-.47-.42-.7-.63-.92-.87-1.8-1.84-2.58-3.04-.86-1.5-2-3.68-2.66-6.1-.33-1.2-.58-2.44-.68-3.62a13.48 13.48 0 0 1-.02-3.17c.12-1.27.55-2.56 1.25-3.74s1.68-2.17 2.76-3.25c.28-.3.53-.52.85-1.06.07-.15.13-.3.17-.43 7.1-3.18 11.65-5.5 20.92-9.8l21.2-9.62 13.83-6.3c1.6-.8 17.62-7.62 21.38-10.7l-.7-1c-4.77 3.22-16.52 8.63-17.3 8.95-1.24.55-1.38.78-3.62 1.7.7-.37-.2.03-1.05.4.53-.24.7-.33-.43.1-.15.1-.38.2-.6.3-.01 0-.06.01-.03 0-1.38.63-1.13.54-.48.27-.02.02.04.01.23-.06-1.47.55-4 1.78-4.22 1.77-4.14 1.9-7.04 3.4-10.45 5.04-.4.13.38-.28 1.36-.77l-2.43 1.14c-.01-.08 1.38-.68 2.13-1.05-2.96 1.23-5.94 2.88-9.4 4.34l-.68.38-.2.08c.02.02-.72.42-1.22.66-.52.16-.04-.16-1.72.62-1.36.55-3.77 1.77-5.5 2.62.94-.42.66-.25.26-.04-.84.4-1.35.55-2 .88l-.1-.04c-.1.12-2.22 1.1-2.5 1.27-.5.16 1.28-.66 1.48-.8l-5.07 2.34c-1.77.9.37-.07-.46.4-1.6.75-3.1 1.53-4.96 2.32l.6-.2c-2.97 1.43-4.76 2.25-6.8 3.1l-1.4.7c0-.07 0-.15-.02-.23-.1-.62-.48-1.2-1.05-1.5a1.41 1.41 0 0 0-.44-.18l-.32-.1c-.2-.07-.38-.1-.56-.17a25 25 0 0 0-4.38-.76c-.18-.05-.67-.05-.67-.03a64.31 64.31 0 0 0-5.18-.48s-1.57-.1-3.64-.07c-2.08.02-4.58.2-6.6.52-.66.13-1.18.5-1.5.9s-.5.78-.57 1.1c-.15.66 0 .94.12.78.1-.1.2-.42.5-.8-.13.26-.22.55-.25.82l-.14 3.73c-.58-9.28-1.28.04-1.28.04-.52 5.56-.22 8.46-.37 15.1-.3 5.83-.62 7.37-.73 13.4-.13 2.88-.18 5.96-.26 8.78.16 1.34-.14 3.7-.02 5.3l-.14.6c.04.55.05 1.2-.03 1.73l-.03-.1c.06.82-.03 1.73 0 2.14l-.03-.03-.02 1-.04-.18a43.63 43.63 0 0 1-.1 4.18l.15-.1c-.13 1.38-.14 2.32-.14 3.23l-.02 1.4c-.02.24-.02.5-.04.77-.01.14-.03.3-.03.44a3.61 3.61 0 0 0 .02.65l-.05-.05c.28 1.2 1.3 2.03 2.27 2.17a4.2 4.2 0 0 0 .66.05l.47.02.97.05c1.3.04 2.62.05 4.26-.4-.4.1.2.05.16.1 1.54-.27 3.17-.86 3.1-1.14l.93-.34c.14-.04.15.01.27 0-.01-.1.8-.85 1.32-1.56l-.23.35c.56-.66 1.02-1.35 1.5-2.04l-.48.27c.8-1.04.43-.1 1.08-1.2l-.17-.1c1-1.5 1.78-2.27 2.77-3.72 3.6-6.3 6.45-13.52 9.6-19.45l.25-.2c.25-.02.5-1.8.78-1.96l.24-.75c.13-.18.35-.58.24-.2.3-.65.3-.7.45-1.2a2.27 2.27 0 0 0 .24-.43c.07-.15.13-.32.2-.5.1-.4.08-.84.02-1.26.47-.15.95-.3 1.4-.47-.1.05-.14.1-.77.3 1.98-.64 4.68-1.55 4.86-1.5l14.37-4.7-.2.1c1.7-.65 2.24-.73 4.15-1.4.1-.02.25-.06.23-.05 1.85-.7 5.5-1.76 7-2.3l.12.03 3.75-1.2-1.4.43c.44-.33 2.88-.8 5.57-1.77 2.55-.8 5.06-2 7.73-2.76 1.24-.5-1.07.5.8-.18.1.07-.87.34-.35.25 1.85-.63 3.07-.86 5.33-1.65l.1.04c2.94-1.07 5.66-1.7 7.6-2.43 3.06-1.03 2.13-.44 5.3-1.6l1.27-.3c1.38-.42.94-.43 2.47-.86-.07.1 1.94-.55 1.07-.22 3.47-1 6.95-2.35 11.53-3.6.95-.44 3.25-1.08 3.96-1.4.14.01 4.57-1.43 2.04-.52-.22.08-.6.2-.6.17l-.28.16c2.62-.68 4.67-1.55 7.23-2.34-.76.22-1.77.54-1.1.28l2.38-.74-.48.2 1.02-.3z"/><g xmlns="http://www.w3.org/2000/svg" fill="#fff"><path d="M71.9 322.4c-.13 1.04-.16 1.98-.16 3.54l.1-.3c-.1.95-.06 1.76-.07 2.6.07.45.12-.66.16.28l-.08 2.64c-.05-.1 0-1.04-.08-.8.04.17-.01 1.5.1 1.32l-.1.03c.02.34-.06.6-.08 1.03.01.22.05.38.08-.1l-.03 2.9c-.03.88-.1.6-.2.86 0 .27.04.67.06.66v.1l.05.38c-.2 1.77.01 3.4-.17 4.9 0-.4.06-1.1-.02-1.13l-.02 1.27c-.01-.52-.04-.94-.1-.74l-.02 5.5c-.1.08-.08 1.42-.18 2.16.02-.1.04-.13.05-.1.02-.34.05-.45.04.26 0-.01-.01.01-.02.02.01.1.01.24.03.32-.06.56-.08.48-.1.2-.02.43-.02.9-.07.52-.08 1.14.07 1.25.08 1.9l-.1 3.5-.01-.22c-.03.48-.14.65-.15 1.56.32.75-.08 2.4-.04 4.43.12-.26.04.78.12.7-.17 1.95-.03 3.5-.2 5.7l-.01-.1c-.1.6-.1 2.06-.04 2.56-.07-.3-.13.76-.2.36.1.44-.02 2.37-.02 2.37-.12.36-.07 1.8-.18 2.68l.1 1.17-.08-.42c-.02.6-.08.73-.1.47-.02.27-.01.43.01.83-.03-.04-.04-.12-.06-.18-.05.67.25.78.14.4.2.52.3.57.36.7.07.1.13.27.6.3.1-.03.18-.1.27-.14l-.1.05h.17c1.2-.05.46.2 1.84.04l.03.08c.07-.01.13-.02.14-.04-.01-.03-.03-.04-.06-.07l.34-3.72c.02-.9-.08.34-.12-.1-.06-.98.1-1.27.16-2.13l-.1.23.13-1.76.05.25.07-1.18c-.04-.34-.05.17-.1.54.1-1.27-.08-2.33.12-3.6l.07.16c-.02-.02-.03.18-.03.3.05 1.28.12-.94.18-1-.08-.37.06-1.5-.04-2 .28-2.24.13-4 .3-5.7.04.44.08-.56.14-.5.08-.75-.06-.56-.01-1.25l.13-.6c-.06-1.6.2-1.08.2-2.6-.08-1 .22-2.3.15-3.78l.08-.04c0-1.14.16-1.7.16-2.64.1-.23.03.23.12.2-.02-.94.14.25.1-.38.16-1.3-.2-2.63-.1-3.9-.05-1.36.3-2.5.14-2.77l-.05.7.08-1.86.07-.05.1-3.5c0 .01.01-.06.04-.1-.01-.96.1-1.2.03-2.07l.03.1c-.1-1.52.12-4.8.2-7.15.1-.07.13-1.42.16-2.4-.02.3.04.34.05.4-.05-1.36.26-2.83.2-4.25l.01.05c.08-.54.01-2.18.2-2.43l.01-2.4.03-.66.01-.35v-.13c.06-.27-.06-.2-.46-.22l.1-.04-2.5-.08c-.6-.03-1.1.3-1.4.62-.25.25-.4.47-.5.67a2.02 2.02 0 0 0-.17.65l-.1 3.05c-.04.73-.02 1.56.01 2.55zm15.93-6.34l-.03-.01c-.13.24-.18.38-.1.6-.18-.02-.08.2-.15.24l-.01-.01c.08.2-.2.27-.14.45-.01-.01-.05-.02-.04-.06-.01.1-.02.26-.13.24-.07.26-.23.58-.15.8h-.02c.07.13-.03.12-.02.24-.01 0-.02.01-.03 0 .06.14-.1.3-.1.38h-.06l-.08.2.04-.06c.15.1-.17.1-.13.28-.1.12.2.43.05.52.04.1-.1-.12-.1 0-.1-.04-.03-.08-.1-.1-.01.1-.17.1-.17.24l-.06-.03c.03.2-.25.2-.2.37-.04.17-.24-.02-.22.2h-.12c-.06.05.07.1-.02.16-.05-.05-.1.06-.12-.02-.18.1-.1.4-.4.46.06.12-.07.16-.03.25-.04-.03-.17.18-.16-.01.01-.01.01-.03.03-.01l-.04-.06c-.2.01-.1.22-.22.3.05-.01.08-.05.1.01l-.1.08-.02-.07-.16.1.07.04c-.1.03-.2-.04-.2.1 0 .07.14.03.08.1-.13.03-.32.08-.46.15.06.06.03.08 0 .13l-.04-.06c-.07.2-.14-.1-.23.06l-.02-.05.04.15c-.04.2-.15-.1-.18.17.05-.05.1.12.03.14v-.08c-.03.03-.03.07-.06.07.01-.04-.05-.1-.1-.05l-.01-.1-.04.17c-.12-.02-.22.14-.3.07 0 0-.2.05-.2.18 0-.08-.12-.05-.1-.14-.01.1-.13.22-.22.18l.01-.01c-.25.02-.32.3-.56.27.05.08-.08.08-.02.16-.16.2-.47-.06-.4.3-.1.05-.14-.03-.2-.02v-.03c-.17.1-.23.1-.36.16-.06.05-.01.2-.15.2.02-.07-.03-.04-.07-.03.02-.02.03-.04-.05-.07 0 .02-.01.03-.02.05 0-.01 0-.01-.01-.02-.07.05-.05.06-.01.06 0 .01.01.02.02.03-.1-.05-.22.08-.26-.02-.22.1-.36.25-.54.35-.04-.05-.01-.1.04-.14l-.13.06c-.02-.08.07-.07.1-.1-.2-.08-.3.22-.53.16l-.03.07h0c.01.03-.02.08-.05.1-.04-.06-.04-.16-.13-.13-.1-.04-.2.08-.3.15.05 0 .05.04.04.07-.05.02-.1-.05-.12-.01l-.02-.1c.04.08-.1.12-.1.17-.04-.06.06-.07.06-.13-.2.05-.1.02-.3.08-.08.1.04.08.01.18-.1.04-.17.12-.3.1l.05.08c-.17.1-.27.1-.4.05-.6.46-.65.68-.54.82.13.13.4.15.4.15.57.1.8-.2 1.4-.4.56-.1.74.03 1.3-.2.27-.07.55-.2.8-.3.08-.17.34-.12.46-.27l.08.05c.03-.05.1-.1.15-.1v.02c.06-.08.15-.1.18-.12v.02l.1-.04v.03a.79.79 0 0 1 .37-.2l-.05-.08c.3-.02.3-.22.58-.23v.02c.18-.34.5-.08.7-.43-.03.04.03.03.04.05.1-.1.26-.18.17-.34.1-.05.1-.01.15.05-.04-.06.03-.14.1-.2l-.01.05.2-.15-.12-.1c.13-.03.12.13.2.03l-.07-.1c.15-.08.34 0 .54-.04.64-.42.94-1.2 1.5-1.6l.1.03c.1.07-.04-.26.06-.2v-.1c.03 0 .08-.03.08.02.04-.06.03-.06.03-.14l.1-.02c.2-.2.2-.5.38-.73.32-.23.5-.9.55-1.28.04-.55.73-.96.7-1.55.02-.01 0-.07-.01-.07l.16-.47c0-.04.54-2.36-.88-.84zm4.57 32.12h0l-.03.05z"/><path d="M95.95 348.8c-.25-.2-.24-.4-.56-.52-.13-.1-.3-.16-.44-.22-.13.07-.18-.1-.3-.07l.01-.08c-.05.02-.1.01-.1-.03l.02-.02c-.07.02-.1-.03-.12-.02l.02-.02-.05-.02h.02c-.1 0-.17-.03-.2-.1l-.05.08c-.08-.16-.22-.05-.28-.22l.02-.02c-.27.1-.15-.28-.42-.2.04-.01.01-.05.03-.06-.08-.02-.17-.06-.26.08-.05-.03-.01-.07.02-.13-.04.07-.1.06-.14.04l.04-.01-.12-.05-.06.14c-.04-.07.07-.15.01-.16l-.06.1c-.07-.07-.03-.26-.06-.38-.32-.26-.84-.24-1.05-.6l.03-.1c.07-.1-.2.1-.14 0l-.07.02c0-.02-.01-.06.03-.07-.03-.02-.04-.01-.1.01l.01-.1c-.1-.13-.3-.1-.42-.2-.08-.25-.48-.33-.72-.37-.36 0-.38-.63-.77-.6 0-.02-.04-.01-.05.01l-.23-.17s-1.14-.8-.83.68v.02c.1.15.17.2.34.14-.08.16.1.08.1.16l-.01.01c.15-.06.1.2.24.15-.01.01-.04.05-.06.04.07.02.17.03.12.12.15.06.3.23.5.14l-.02.02c.1-.06.07.03.16.02-.01.01 0 .02-.01.03.1-.06.17.1.24.07l-.03.05.12.05-.04-.04c.12-.15.02.15.16.1.06.07.35-.23.38-.1.08-.05-.1.1-.01.08-.05.08-.06.03-.1.1.07 0 .04.14.13.12l-.04.07c.16-.06.1.18.23.1.12 0-.06.22.1.16l-.01.1c.04.04.1-.1.1-.02-.03.05.03.08-.03.12.04.14.28.01.32.24.1-.1.12.02.2-.05-.02.05.13.1-.01.14-.01 0-.02 0-.01-.02l-.04.06c-.01.16.18.02.23.1-.01-.04-.04-.05 0-.08l.06.05-.05.04.08.1.03-.07c.02.07-.02.2.1.13.06-.03.01-.12.07-.1.04.08.1.22.17.3.04-.08.06-.06.1-.07l-.04.07c.15-.03-.06.16.07.14l.07-.08c.16-.08-.04.16.16.05-.05-.01.07-.15.1-.1l-.05.05c.03 0 .06-.02.07.01-.03.02-.06.1-.02.1l-.07.06.13-.07c.01.1.14.07.1.17 0 0 .08.1.17.03-.06.04-.02.1-.07.16.07-.05.2-.05.17.04h-.01c.08.15.28.04.34.2.04-.08.08 0 .12-.1.17-.02.1.33.32.07.06.02.02.1.04.14l-.02.01c.1.04.15.05.22.1.05-.01.14-.14.2-.06-.06.04-.02.05 0 .06-.02 0-.04.01-.03.07.02-.02.02-.02.04-.03h-.01c.05 0 .06-.01.04-.04.01-.01.02-.02.02-.04 0 .1.12.07.07.17.14.06.3.03.4.05-.02.06-.07.08-.1.08l.1.03c-.04.07-.07.01-.1.01.02.16.25.01.3.17l.06-.04c.02-.03.07-.06.1-.05-.02.07-.1.14-.04.16.01.08.13.05.2.04-.02-.02.01-.06.03-.06.03.01.01.08.04.07l-.05.08c.04-.08.1-.04.15-.06-.02.07-.08.03-.1.07.1.06.05.02.16.08.1-.02.04-.08.1-.14.06.01.15-.01.16.07l.02-.08c.13 0 .17.04.18.16 1.04-.15.64-.7.64-.7-.18-.32-.45-.2-.8-.34zm-2.92 6.45c-.25-.2-.24-.4-.56-.52-.13-.1-.3-.16-.44-.22-.13.07-.18-.1-.3-.07l.01-.08c-.05.02-.1.01-.1-.03l.02-.02c-.07.02-.1-.03-.12-.02l.02-.02-.05-.02.02-.02c-.1 0-.17-.03-.2-.1l-.05.08c-.08-.16-.22-.05-.28-.22l.02-.02c-.27.1-.15-.28-.42-.2.04-.01.01-.05.03-.06-.08-.02-.17-.06-.26.08-.05-.03-.01-.07.02-.13-.04.07-.1.06-.14.04h.04l-.12-.05-.06.14c-.04-.07.07-.15.01-.16l-.06.1c-.07-.07-.03-.26-.06-.38-.32-.26-.84-.24-1.05-.6l.03-.1c.07-.1-.2.1-.14 0l-.07.02c0-.02-.01-.06.03-.07-.03-.02-.04-.01-.1.01v-.1c-.1-.13-.3-.1-.42-.2-.08-.25-.48-.33-.72-.37-.36 0-.38-.63-.77-.6 0-.02-.04-.01-.05.01l-.23-.17s-1.14-.8-.83.68l-.02.02c.1.15.17.2.34.14-.08.16.1.08.1.16v.01c.15-.06.1.2.24.15-.01.01-.04.05-.06.04.07.02.17.03.12.12.15.06.3.23.5.14l-.02.02c.1-.06.07.03.16.02.1-.04.17.1.24.1l-.03.05.12.05-.04-.04c.12-.15.02.15.16.1.06.07.35-.23.38-.1.08-.05-.1.1-.01.08-.05.08-.06.03-.1.1.07 0 .04.14.13.12l-.04.07c.16-.06.1.18.23.1.12 0-.06.22.1.16l-.01.1c.04.04.1-.1.1-.02-.03.05.03.08-.03.12.04.14.28.01.32.24.1-.1.12.02.2-.05-.02.05.13.1-.01.14-.01 0-.02 0-.01-.02l-.04.06c-.01.16.18.02.23.1-.01-.04-.04-.05 0-.08l.06.05-.05.04.08.1.03-.07c.02.07-.02.2.1.13.06-.03.01-.12.07-.1.04.08.1.22.17.3.04-.08.06-.06.1-.07l-.04.07c.15-.03-.06.16.07.14l.07-.08c.16-.08-.04.16.16.05-.05-.01.07-.15.1-.1l-.05.05c.03 0 .06-.02.07.01-.03.02-.06.1-.02.1l-.07.06.13-.07c.01.1.14.07.1.17 0 0 .08.1.17.03-.06.04-.02.1-.07.16.07-.05.2-.05.17.04h-.01c.08.15.28.04.34.2.04-.08.08 0 .12-.1.17-.02.1.33.32.07.06.02.02.1.04.14l-.02.01c.1.04.15.05.22.1.05-.01.14-.14.2-.06-.06.04-.02.05 0 .06-.02 0-.04.01-.03.07.02-.02.02-.02.04-.03v.01c.05 0 .06-.01.04-.04.01-.01.02-.02.02-.04 0 .1.12.07.07.17.14.06.3.03.4.05-.02.06-.07.08-.1.08l.1.03c-.04.07-.07.01-.1.01.02.16.25.01.3.17l.06-.04v.01c.02-.03.07-.06.1-.05-.02.07-.1.14-.04.16.01.08.13.05.2.04-.02-.02.01-.06.03-.06.03.01.01.08.04.07l-.05.08c.04-.08.1-.04.15-.06-.02.07-.08.03-.1.07.1.06.05.02.16.08.1-.02.04-.08.1-.14.06.01.15-.01.16.07l.02-.08c.13 0 .17.04.18.16 1.04-.15.64-.7.64-.7-.2-.3-.46-.18-.8-.33zm93.1-87.28c.67-1.02.97-1.2 1.57-2.33l.9-1.6c.04-.3.4-.66.48-1l.13-.07c.03-.12.08-.24.17-.32v.02c.04-.17.17-.32.2-.4v.02l.1-.18v.05c.1-.28.26-.55.42-.77l-.1-.03c.38-.44.34-.72.7-1.1l.01.02c.14-.68.67-.8.84-1.5-.02.1.06-.01.07.01.14-.28.3-.57.16-.67.12-.2.14-.13.2-.12-.06-.04.01-.22.1-.38l-.02.08.24-.45-.17.01c.17-.2.18.03.3-.2l-.1-.06c.2-.3.48-.4.74-.67.82-1.26 1.4-2.8 2.3-3.9l.1-.01c.12.04.04-.43.17-.4l.03-.17c.04-.03.1-.1.1-.01.08-.13.07-.14.1-.25l.15-.1c.36-.48.5-1 .84-1.5.53-.56 1.13-1.84 1.48-2.58.43-1.08 1.56-1.95 1.97-3.07.04-.02.05-.13.04-.14l.57-.9s2.73-4.42-.22-1.6l-.01-.04c-.36.47-.57.77-.66 1.2-.18-.03-.26.4-.38.5v-.02c-.07.38-.48.57-.55.93 0-.02-.04-.05 0-.12-.1.23-.26.54-.35.5-.3.53-.76 1.22-.82 1.63l-.01-.04c-.02.24-.13.25-.2.5-.02 0-.03.02-.04.01-.03.26-.35.6-.4.8l-.06-.02-.23.4.1-.14c.13.15-.28.25-.36.6-.2.26-.01.76-.26 1-.01.18-.05-.2-.1.05-.1-.04.01-.13-.1-.1-.08.22-.28.28-.38.56l-.07-.03c-.08.4-.45.56-.47.84-.15.36-.32.1-.4.53l-.17.08c-.1.14.04.17-.1.3-.05-.04-.17.18-.16.05-.3.32-.34.83-.78 1.23.04.17-.17.38-.14.5-.05-.01-.3.5-.24.15.01-.03.03-.07.05-.06l-.04-.07c-.3.2-.24.55-.43.8.07-.07.13-.18.13-.08l-.16.25-.02-.1-.26.36.1-.01c-.15.17-.3.17-.33.43-.01.13.2-.12.1.1-.2.22-.5.56-.7.87.1.01.04.1 0 .2l-.07-.03c-.12.4-.22.04-.35.42l-.03-.06.08.17c-.06.38-.23.08-.26.53.07-.14.18.02.05.17l-.04-.08c-.04.1-.03.14-.08.2 0-.07-.07-.08-.14.06l-.02-.14-.04.32c-.18.16-.3.5-.42.54 0 0-.3.4-.26.55-.01-.12-.17.1-.2-.01 0 .15-.14.5-.3.6l.01-.03c-.36.43-.4.87-.74 1.25.1.03-.1.23.04.23-.17.5-.68.7-.48 1.03-.1.2-.2.2-.3.3v-.06l-.44.78c-.06.16.07.26-.12.5-.01-.1-.06-.01-.1.1.03-.06.02-.1-.1.01.01.03 0 .06-.01.1h-.02c-.08.17-.04.15.01.08.01.01.02.01.05 0-.17.12-.27.45-.37.42-.26.48-.37.88-.57 1.3-.07.01-.06-.1-.01-.23l-.15.3c-.07-.04.06-.18.1-.28-.3.26-.3.75-.64 1.07v.1.02c.03.02.02.13-.01.2-.1.02-.14-.1-.25.1-.15.12-.23.45-.32.67.07-.1.1-.05.08.01-.06.1-.15.12-.17.2l-.1-.04c.1.01-.07.3-.06.36-.1.02.04-.18.01-.23l-.34.58c-.06.24.1.01.1.15-.1.2-.14.4-.32.58l.1-.02c-.15.37-.28.57-.5.76-.95 2.9.48 1.02.48 1.02.73-.9.83-1.53 1.5-2.76zm39.6 11.46l-.07-.2c-.01.01 0 .06.07.2zM200.8 235.4c-.01-.01-.02-.02-.03-.04.02.03.03.04.03.04zm22.12 36.7h.01l.03.04z"/><path d="M227.87 281l-2.9-5.43-2.03-3.48c-.4-.47-.84-1.47-1.3-2.05l-.08-.28c-.16-.2-.32-.44-.4-.68h.03c-.23-.3-.42-.68-.53-.83h.03l-.23-.4.06.05c-.38-.54-.7-1.12-1-1.64l-.05.1c-.55-1.15-.94-1.46-1.4-2.5h.03c-.92-1.14-1-2.05-1.95-3.23.12.15 0-.1.02-.1-.37-.58-.75-1.2-.9-1.13-.25-.43-.16-.38-.14-.47-.06.04-.3-.32-.5-.65l.12.14-.6-.95-.01.26c-.27-.53.07-.22-.25-.7l-.1.07c-.4-.72-.5-1.22-.82-1.95l-5.08-8.5.01-.16c.08-.1-.58-.64-.54-.8l-.22-.28c-.03-.1-.1-.3 0-.15-.15-.3-.18-.3-.32-.48l-.1-.35c-.57-1.17-1.23-2.06-1.84-3.3-.63-1.52-2.15-4.2-3-5.78-1.27-2.17-2.05-5.02-3.3-7.27a.73.73 0 0 0-.16-.26l-.93-2.15-1.88-4.2c-.75-1.6-1.28-2.14-.13 2.08l-.05-.04c.43 1.22.74 1.97 1.22 2.73-.1.2.4.98.48 1.28v-.02c.44.67.56 1.53.98 2.17-.02-.02-.07-.02-.15-.17.25.5.6 1.17.52 1.25l1.83 3.57-.05-.04c.3.4.28.56.57 1.02 0 .03.01.07 0 .07.33.42.7 1.37.92 1.73l-.05.05.48.93-.16-.35c.22.04.25.76.7 1.38.3.64 1 1.1 1.25 1.8.24.27-.27-.2.04.22-.08.06-.17-.2-.17-.03.28.43.3.8.66 1.33l-.05.06c.5.67.65 1.43 1.03 1.85.46.72.08.6.64 1.32l.08.35c.17.34.24.18.4.57-.07.01.22.5.05.3.4.88 1.07 1.63 1.58 2.8.25.17.5.76.7.88-.03.06.64 1.1.18.55-.04-.05-.1-.14-.07-.15l-.1-.04c.25.7.73 1.1 1.08 1.7-.1-.2-.24-.43-.1-.3l.33.57-.12-.1.48.86v-.16c.2.43.2.64.56 1.05.18.18-.15-.44.14-.02l1.1 2.16c.03-.1.14.08.28.27l-.05.06c.53.7.02.36.53 1.06l-.08-.04.25.12c.52.6.08.44.7 1.08-.18-.3.06-.22.25.16l-.12-.06c.13.2.2.25.26.4-.1-.1-.13-.01.06.28l-.2-.15.44.5c.2.47.67 1.1.68 1.34 0 0 .5.95.72 1.1-.17-.15.1.37-.05.27.2.2.68.88.77 1.2l-.04-.05c.54 1.1 1.15 1.75 1.6 2.75.05-.1.3.44.32.26.66.93.83 1.9 1.33 2.1.27.44.23.57.35.8l-.08-.1 1 1.7c.2.3.37.26.66.84-.16-.15-.02.07.1.28-.08-.13-.13-.16-.01.14.04.03.08.08.12.13 0 0 0 .02-.01.02.22.34.2.27.12.1.01 0 .02-.02 0-.08.13.4.58 1 .5 1.1l1.67 2.58c.01.13-.15-.05-.3-.3l.37.6c-.07.03-.24-.33-.36-.5.3.8.97 1.45 1.36 2.38l.16.15.02.06c.03-.02.18.15.26.27.01.16-.15.07.1.5.13.37.57.94.85 1.37-.12-.24-.05-.2.03-.1.12.2.13.37.25.52l-.07.07c.03-.13.4.5.48.57.01.16-.24-.3-.32-.33l.74 1.28c.32.42.03-.13.23.05.24.4.52.76.73 1.25l-.01-.2c.48.73.73 1.2.94 1.74 3.77 5.33 1.48.74 1.48.74-1.1-2.36-1.95-3.4-3.5-6z"/><path d="M233.3 207.8c-.08.53-.1.87-.01 1.26-.18.05-.06.47-.13.6l-.01-.01c.1.37-.2.7-.13 1.05-.01-.01-.06-.03-.05-.1-.01.25-.02.6-.13.6-.07.6-.27 1.38-.2 1.8l-.02-.03c.06.23-.05.28-.05.52-.02.01-.03.03-.03.02.05.25-.14.67-.15.87h-.07l-.1.46.06-.17c.16.1-.2.3-.18.67-.1.3.18.73 0 1.02.04.18-.1-.18-.1.07-.1-.02-.03-.12-.12-.1-.03.24-.2.33-.24.62l-.07-.01c.01.4-.3.64-.28.9-.07.38-.3.17-.3.6l-.15.1c-.07.16.07.16-.04.32-.06-.03-.14.2-.15.08-.25.36-.18.87-.56 1.32.07.16-.1.4-.06.52-.06-.01-.23.52-.2.18 0-.03.02-.07.04-.06l-.05-.06c-.25.24-.16.57-.32.84.06-.07.1-.2.12-.1l-.14.26-.03-.08-.22.38.1-.02c-.13.18-.28.18-.3.45.01.13.18-.14.1.08-.16.24-.43.58-.65.87.1.01.04.1 0 .2l-.07-.03c-.1.38-.2.04-.34.4l-.03-.06.08.17c-.05.38-.23.08-.25.52.06-.14.18.03.04.17l-.03-.08c-.05.1-.04.14-.1.2 0-.07-.07-.08-.15.05l-.02-.13-.06.3c-.2.14-.32.48-.45.5 0 0-.3.36-.3.5.01-.12-.18.07-.2-.04-.02.14-.2.46-.36.52l.01-.03c-.4.35-.5.8-.9 1.06.08.04-.13.2-.01.23-.28.44-.8.5-.7.87-.16.17-.26.12-.36.2l.03-.05-.63.6c-.1.13-.01.28-.26.42.03-.1-.05-.02-.14.04.05-.05.05-.08-.1-.03 0 .03-.02.06-.04.08-.14.12-.1.1-.03.07 0 .01.02.02.05.01-.2.05-.4.32-.5.25l-1 .95c-.07-.02-.01-.12.08-.2l-.25.2c-.04-.07.12-.14.2-.2-.38.1-.57.55-1.02.67l-.05.1h-.03c.02.03-.04.12-.1.16-.1-.03-.08-.14-.26-.02-.18.03-.4.27-.6.4.1-.05.1 0 .06.05-.1.05-.18.02-.24.1l-.05-.08c.08.06-.2.22-.23.27-.1-.03.13-.13.12-.2l-.6.3c-.18.17.08.06.01.2-.18.1-.34.26-.58.3l.1.05c-.34.2-.56.3-.84.32-1.24.84-1.4 1.06-1.14 1.16.28.08.87-.06.87-.06 1.2-.25 1.7-.73 2.92-1.44l1.3-.62c.37-.17.73-.37 1.24-.78.53-.33 1.02-.8 1.48-1.17.15-.27.6-.53.8-.83l.15-.03c.06-.1.15-.2.26-.26l.01.02c.1-.15.26-.27.3-.35l.01.02.14-.16v.05c.17-.26.4-.5.6-.67l-.08-.04c.5-.35.47-.66.9-.98v.02c.26-.65.8-.72 1.03-1.43-.03.1.06 0 .07.01.17-.28.35-.56.2-.66.14-.2.15-.12.23-.1-.06-.04.03-.22.1-.38l-.02.1.24-.46h-.17c.17-.2.18.03.3-.2l-.1-.06c.2-.3.48-.42.75-.7.37-.67.66-1.42.95-2.14.27-.73.54-1.43.9-2.05l.1-.03c.13.02-.03-.43.1-.44v-.18c.04-.04.1-.12.1-.03.06-.14.04-.15.04-.27l.13-.13c.27-.54.28-1.08.5-1.67.4-.67.64-2.1.73-2.92.08-1.16.84-2.4.77-3.62a.19.19 0 0 0-.02-.14l.13-1.08.04-1.26h-1z"/><path d="M251.17 295.52c-.82-1.52-1.36-2.45-2.1-3.4.05-.25-.7-1.22-.87-1.6l.03.03c-.65-.83-1.02-1.9-1.64-2.72.03.03.08.02.2.22-.4-.62-.95-1.47-.9-1.56l-2.87-4.5.06.05c-.42-.5-.44-.7-.86-1.3l-.02-.08c-.45-.55-1.06-1.74-1.4-2.2l.04-.07-.73-1.2.25.45c-.25-.06-.44-.96-1.06-1.77-.46-.82-1.3-1.45-1.74-2.34-.3-.36.33.28-.08-.28.07-.07.22.25.2.06-.4-.57-.5-1.02-.98-1.72l.05-.07c-.68-.88-.98-1.84-1.47-2.4-.63-.95-.2-.77-.93-1.72l-.15-.45c-.24-.45-.3-.25-.54-.76.07 0-.32-.64-.1-.4-.56-1.15-1.44-2.16-2.14-3.7-.3-.25-.66-1.02-.87-1.2.02-.07-.85-1.47-.27-.7.05.07.12.2.1.2l.12.06c-.36-.9-.94-1.47-1.4-2.3.12.26.3.58.15.38l-.44-.77.15.13-.63-1.15.02.2c-.3-.58-.3-.84-.74-1.4-.22-.25.2.58-.14 0l-1.48-2.9c-.02.13-.17-.13-.33-.38l.05-.07c-.66-.96-.07-.45-.7-1.4l.1.06-.3-.2c-.64-.83-.15-.56-.88-1.47.23.4-.04.27-.28-.24l.13.1c-.16-.26-.24-.34-.33-.53.12.14.14.03-.1-.36l.23.22-.54-.7c-.26-.62-.86-1.5-.9-1.8 0 0-.63-1.3-.88-1.53.2.22-.15-.5.03-.33-.24-.3-.8-1.23-.94-1.66l.05.07-1.88-3.8c-.05.1-.34-.62-.36-.4-.76-1.3-.93-2.6-1.47-2.95-.3-.62-.26-.78-.4-1.1l.08.14-1.03-2.4c-.2-.43-.4-.44-.67-1.24.16.23.02-.1-.1-.38.1.2.13.24.01-.17-.04-.05-.1-.13-.13-.2 0-.01 0-.02.01-.02-.22-.5-.2-.4-.12-.16-.01-.01-.02.02-.01.1-.12-.55-.54-1.45-.46-1.55l-1.53-3.8c.01-.16.15.12.3.48l-.32-.9c.08-.02.22.5.32.77-.24-1.1-.87-2.16-1.1-3.47l-.14-.24v-.08c-.03.01-.16-.26-.23-.44.01-.2.16-.03-.03-.66-.07-.52-.4-1.4-.62-2.06.08.36.01.25-.05.1-.1-.32-.07-.52-.16-.75l.08-.05c-.06.15-.3-.8-.35-.92.03-.2.17.48.24.55l-.45-1.9c-.22-.67-.06.14-.2-.17-.14-.6-.32-1.18-.4-1.9l-.04.24c-.28-1.13-.37-1.82-.4-2.6l-.57-2.7h-.62l.04 1c.23 3.48.8 5.2 1.84 9.16l.54 2.23.46 1.75c.28 1.12.63 2.24 1.26 4l1.93 5.06c.43.72.86 2.1 1.33 2.98l.1.37c.17.3.35.64.46.97h-.03c.25.44.46.97.58 1.18l-.03-.01.26.55-.07-.08 1.12 2.32.05-.1c.66 1.57 1.08 2.05 1.67 3.48l-.03-.01c1.1 1.6 1.3 2.78 2.42 4.44-.14-.2.01.1-.02.1.47.8.96 1.64 1.1 1.57.32.6.22.5.2.6.06-.04.37.45.63.9l-.14-.2.76 1.3-.02-.32c.36.7-.05.26.35.9l.1-.07c.52.96.68 1.6 1.14 2.58 2.15 3.85 4.8 7.8 6.7 11.43v.2c-.07.13.74.88.72 1.07l.3.38c.05.13.17.38.03.2.22.38.24.38.44.63l.17.45c.83 1.53 1.72 2.72 2.63 4.3 1 1.98 3.24 5.45 4.54 7.46 1.9 2.78 3.46 6.4 5.4 9.22a1.23 1.23 0 0 0 .24.32l1.6 2.7 3.23 5.25c.64 1 1.1 1.66 1.15 1.4.03-.24-.38-1.4-1.63-4.04l.01.1zm8 17.26l-.3-.04c.88-.2 1.57-.54 2.3-.8.36-.26-.64.04.16-.36l2.35-.8c-.07.12-.9.38-.65.4.12-.1 1.3-.5 1.1-.6l.1.14c.3-.15.55-.1.94-.25.18-.1.3-.2-.15-.08.8-.33 1.88-.87 2.53-.97.78-.27.6-.04.85-.01.23-.1.56-.3.54-.34l.1-.01.3-.2c1.64-.34 2.94-1.22 4.36-1.46-.34.14-1 .3-.97.43l1.12-.4c-.45.2-.8.4-.6.42l4.8-1.9c.14.15 1.28-.4 1.98-.48-.1 0-.13-.01-.12-.03-.3.08-.42.1.2-.16-.01.01.02.01.02.02.1-.05.2-.1.26-.16.52-.1.46-.04.22.06.38-.13.8-.28.5-.07 1.04-.28 1.05-.56 1.6-.8l3.12-1.08-.2.1c.43-.1.64-.01 1.45-.3.48-.76 2.13-.72 3.88-1.5-.28-.1.66-.33.54-.44 1.8-.4 3.07-1.2 5.06-1.7l-.1.05a1.28 1.28 0 0 0 .79-.33c.24-.2.38-.5.4-.65.02.24.38-.32.37-.06-.01-.17.1-.53.1-.87.03-.34-.02-.64-.02-.64.05-.16 0-.35-.22-.84-.2-.44-.4-.94-.5-1.36l-.62-.92.3.3c-.24-.52-.18-.67-.03-.48-.08-.25-.17-.35-.35-.7l.18.12c-.22-.67-.6-.84-.37-.32-.87-1.2-.17-.85-.9-1.96l-.26-.17-.13-.08.13.08c-.04-.07-.07-.14-.1-.2-.03-.07-.06-.12-.05-.1.01-.04.03-.07.05-.1.04-.06.08-.15.03-.22-.02.01-.06.04-.1.07l.02-.14c-.1.07-.2.1-.13.22l-1.9.52-1.87.47c-.8.3.34 0-.02.23-.8.46-1.14.34-1.93.54l.26.05-1.58.47.2-.17-1.06.33c-.27.18.17.02.52-.05-1.14.34-1.96 1-3.18 1.16l.1-.16c0 .04.17-.02.26-.07 1.07-.56-.87.17-.95.1-.28.26-1.32.48-1.7.82-2.1.4-3.53 1.3-5.1 1.66.36-.23-.52.1-.5-.02-.7.15-.45.3-1.07.5h-.6c-1.34.7-1.04.1-2.37.66-.8.5-2.1.52-3.35 1.17l-.08-.1c-.98.44-1.58.4-2.37.73-.26-.05.18-.13.1-.27-.8.38.13-.32-.38 0-1.22.25-2.16 1.28-3.3 1.62-1.14.6-2.34.47-2.46.83l.63-.18-1.65.58-.08-.1c-.65.3-2.3.7-3.08 1.14.01-.01-.06 0-.1-.01-.83.37-1.1.3-1.8.73l.08-.07c-1.26.7-4.2 1.6-6.3 2.35-.12-.14-1.3.32-2.17.65.28-.1.28-.18.32-.22-.47.24-1 .4-1.52.53-.2.03-.48.07-.7.15a1 1 0 0 0 .23.27l-.04-.02c0 .04.04.1.1.2s.08.1.24.35c.25.4.47.8.4.97.95 1.17 1.6 2.35 2.6 4.28l-.1-.06c.37.8.64 1.65.92 2.06a2.66 2.66 0 0 0 1.12.93c.28.12.52.18.74.22.22-.02.43-.05.64-.12l2.72-.9 2.16-1c.95-.2 1.78-.47 3.14-1.04zm-81.48-29.72l-.07-.32c.5.82 1.05 1.4 1.57 2.05.38.28-.26-.63.4.05l1.58 2.1c-.14-.04-.67-.8-.62-.52.15.1.94 1.14.96.92l-.1.13c.24.24.3.5.56.86.16.14.3.23.03-.17.6.7 1.48 1.6 1.8 2.24.53.7.24.58.3.85.17.2.47.47.5.44l.05.1.3.23c.9 1.54 2.2 2.57 2.9 3.9-.25-.3-.63-.9-.75-.84l.78 1c-.34-.4-.65-.68-.6-.46l3.48 4.2c-.1.18.8 1.16 1.14 1.83-.04-.1-.04-.13-.01-.13-.2-.27-.23-.4.22.16-.02 0-.01.02-.01.03.08.08.17.17.24.2.28.5.2.45.02.24.25.34.55.7.24.47.63.96.9.88 1.32 1.36l2.1 2.8-.15-.16c.26.4.23.63.8 1.35.9.24 1.43 1.9 2.77 3.43 0-.32.54.56.6.4.5.84 1.06 1.5 1.63 2.2l.87 1.08.43.58c.08.1.17.22.3.32h-.06c.08.16.36.32.65.34s.54-.1.62-.2c-.1.2.42 0 .3.2.03-.08.1-.16.2-.26.07-.1.27-.32.45-.52l.7-.73c.38-.15 1.23-1.3 1.95-1.85l.64-1-.17.4c.4-.46.57-.47.44-.24.2-.18.27-.32.54-.64l-.04.22c.56-.5.56-.95.16-.5l.28-.46c.01-.03.03-.04.06-.05.06-.01.15-.02.2-.07-.02-.03-.08-.08-.18-.12a.54.54 0 0 0-.27.07c.02-.01.05-.03.08-.04-.02-.01 0 .02-.05-.03l-.13-.16c-.08-.1-.13-.18-.16-.24-.07-.13-.08-.2-.1-.3-.03-.16-.06-.3-.6-.88l.07-.1c-.27-.3-.5-.62-.53-.43l-2.38-3.6c-.57-.7.12.34-.23.05-.72-.66-.73-1.03-1.2-1.76l.04.27-1-1.44.23.13-.7-.95c-.27-.22.04.18.23.5-.73-1.03-1.64-1.65-2.22-2.8l.2.05c-.04.01.08.17.15.24.9.9-.46-.82-.43-.92-.34-.2-.92-1.17-1.38-1.44-1.12-1.96-2.5-3.12-3.37-4.58.34.3-.27-.5-.16-.52-.38-.65-.46-.36-.84-.9l-.23-.6c-1.14-1.12-.47-1-1.46-2.16-.76-.66-1.23-1.94-2.3-2.98l.07-.1c-.76-.84-.92-1.45-1.53-2.14-.04-.27.2.14.3.02-.65-.68.36.03-.13-.38-.66-1.14-1.98-1.77-2.7-2.8-.97-.96-1.27-2.2-1.65-2.2l.4.57-1.13-1.47.06-.1c-.5-.56-1.46-2.08-2.17-2.72.01 0-.02-.06-.03-.1-.65-.7-.67-1-1.33-1.58l.1.05c-1.1-1.04-3-3.7-4.45-5.56.1-.15-.8-1.22-1.36-1.93.15.2.26.2.3.22l-.3-.32c-.05-.06-.1-.12-.13-.2l-.3-.54a1.59 1.59 0 0 0-.23.64l-.01-.04c-.1.1-.08.17-.32.76-.2.47-.4.9-.57.95-.42 1.52-1.06 2.9-2.06 4.87v-.1c-.85 1.45-.7 2.9-.54 3.75l.2.8.36.6 1.8 2.45 1.7 1.86c.48.9 1.02 1.66 2.03 2.84zM305.4 432.53l-.3-.04c.95-.08 1.74-.27 2.56-.4.43-.15-.67 0 .25-.2l2.6-.4c-.1.07-1.02.2-.77.23.15-.06 1.46-.26 1.28-.33l.06.1c.33-.08.6-.05 1.03-.12.2-.06.36-.12-.13-.06l2.84-.5c.87-.13.62 0 .88.03.26-.05.65-.15.64-.2l.1-.01.35-.12c1.77-.14 3.33-.64 4.84-.73-.4.07-1.1.15-1.1.23l1.26-.2c-.5.1-.92.2-.7.23l5.4-1c.1.1 1.4-.2 2.15-.22-.1 0-.13-.01-.12-.02-.33.04-.46.04.25-.1-.01.01.01.01.02.01l.3-.1c.56-.04.48-.01.2.04.42-.06.9-.14.53-.03 1.14-.13 1.22-.3 1.85-.43l3.47-.54-.2.05c.47-.05.66.02 1.57-.13.67-.45 2.37-.36 4.36-.77-.27-.07.76-.18.66-.25 1.95-.2 3.46-.62 5.63-.85l-.1.03c.6 0 2.04-.3 2.53-.44-.3.12.77-.01.4.12.42-.18 2.33-.4 2.33-.4.38.05 1.77-.26 2.67-.3l1.13-.3-.4.15c.6-.1.73-.05.5.02.27-.03.42-.08.8-.15-.04.03-.1.07-.17.1.68-.08.73-.38.35-.2.48-.28.5-.4.62-.48.08-.08.24-.18.2-.65-.05-.1-.12-.17-.2-.24l.07.07c-.01-.03-.02-.06-.02-.1l-.01-.07c-.26-1.16.1-.5-.3-1.82l.07-.04c-.03-.06-.04-.13-.07-.13-.02.01-.04.04-.06.07l-3.72.35c-.9.15.35.02-.08.14-.95.24-1.26.15-2.12.23l.25.04-1.75.2.23-.1-1.17.15c-.32.1.17.02.55-.01-1.26.15-2.27.5-3.56.54l.14-.1c-.01.02.18 0 .3-.03 1.24-.3-.94.06-1 .01-.35.14-1.48.22-1.95.4-2.25.14-3.96.6-5.67.74.43-.12-.56.03-.52-.04-.75.05-.54.17-1.22.24l-.63-.02c-1.56.36-1.1.01-2.6.28-.96.26-2.3.2-3.74.54l-.06-.07c-1.12.22-1.72.15-2.63.32-.25-.04.22-.07.18-.16-.92.2.22-.2-.4-.02-1.32.1-2.55.66-3.8.8-1.33.3-2.52.16-2.74.38l.7-.08-1.85.27-.06-.06-3.45.53c.01-.01-.06 0-.1-.01-.95.18-1.2.13-2.05.35l.1-.04c-1.47.36-4.74.76-7.07 1.1-.1-.1-1.42.13-2.4.28.3-.04.33-.1.38-.12-1.33.3-2.83.26-4.2.58l.05-.02c-.54.02-2.15.4-2.42.25l-2.37.43-.65.1-.34.04-.13.01c-.27-.02-.2.1-.13.5l-.05-.1.38 2.48c.08.6.5 1.02.86 1.27.3.2.54.3.76.4.23.05.46.07.67.05l3.02-.45 2.48-.54c1.07-.03 2-.16 3.52-.45z"/><path d="M303.62 425.25c-.2-.53-.1-.74-.43-1.24-.12-.26-.3-.5-.44-.74-.18-.05-.18-.32-.35-.4l.03-.1c-.06-.03-.1-.07-.1-.13l.02-.01c-.1-.04-.1-.13-.15-.15h.02l-.06-.08h.03c-.12-.1-.2-.2-.26-.32l-.07.06c-.07-.28-.27-.26-.32-.52l.02-.01c-.36-.1-.17-.5-.55-.6.05.01.02-.04.04-.05-.1-.1-.22-.2-.36-.1-.07-.08-.02-.1.02-.15-.06.05-.14 0-.2-.06l.05.01-.18-.16-.07.13c-.06-.12.1-.14-.01-.2l-.08.08c-.1-.14-.07-.33-.14-.52-.53-.55-1.35-.7-1.85-1.17l.01-.1c.04-.12-.25.1-.22-.03h-.1c-.01-.03-.04-.07 0-.08-.06-.04-.07-.02-.14 0l-.04-.1c-.24-.16-.52-.12-.8-.23-.28-.27-.98-.3-1.36-.3-.55.07-1.08-.54-1.66-.4-.02-.02-.07.02-.07.03l-.5-.07c-.01-.04-2.4-.15-.64.97v.03c.25.08.4.1.6-.02.01.17.2.04.26.1l-.01.01c.17-.12.3.15.47.05-.01.01-.02.06-.05.06.1-.01.27-.02.26.08.26.02.6.12.8 0l-.02.02c.12-.1.12.01.24-.02 0 .01.01.02.01.03.13-.08.3.05.4.03l-.01.07.2.04-.07-.03c.07-.17.12.15.3.08.13.06.38-.28.5-.15.1-.06-.1.1.02.08-.03.1-.07.04-.06.12.1-.01.13.14.27.12v.07c.2-.07.25.2.4.12.18.01.02.24.24.18l.02.12c.06.05.1-.1.15-.01-.03.06.07.1 0 .12.12.17.4.03.53.3.1-.08.17.04.26-.02-.02.05.2.13.03.16-.02 0-.03-.01-.02-.03l-.05.05c.05.18.24.07.34.16-.02-.04-.06-.07-.01-.1l.1.08-.06.04.13.14.03-.08c.05.1 0 .2.14.18.07-.02 0-.14.1-.1.06.12.14.3.23.4.05-.07.08-.04.12-.03l-.05.06c.2.03-.07.16.1.22l-.05.03.14-.08c.2.01-.06.16.2.15-.05-.04.1-.13.13-.05l-.07.03c.04.02.08.01.08.05-.05.01-.1.06-.03.1l-.1.03.18.01c0 .13.18.18.12.28 0 0 .1.2.2.16-.08.01-.03.12-.12.14.1 0 .24.1.2.2h-.01c.07.24.33.26.37.5.07-.06.1.06.17-.02.22.13.03.46.36.35.07.08 0 .15.01.2l-.03-.01c.13.15.16.2.22.33.06.05.2-.02.24.1-.08-.01-.04.03-.02.08-.02-.02-.05-.02-.05.06.02 0 .04 0 .05.01v.01c.06.06.07.04.06 0 .01 0 .02-.01.03-.03-.03.1.1.2.02.26.13.2.32.3.44.47-.04.05-.1.02-.15-.02l.08.12c-.07.03-.08-.05-.1-.1-.04.2.28.26.25.5l.08.01v.02c.03-.01.1.01.1.03-.05.06-.15.07-.1.15-.03.1.12.2.2.27-.01-.06.03-.05.06-.04.02.04-.03.1.01.12l-.08.04c.07-.05.14.08.18.08-.05.05-.1-.05-.14-.04l.13.27c.1.07.08-.05.17-.04.05.08.15.14.14.26l.07-.06c.13.14.16.24.12.4.55.5.8.52.9.37s.07-.43.07-.43c0-.6-.33-.76-.65-1.32zm19.83-20.72c-.16.3-.34.3-.4.65-.07.14-.1.32-.14.47.1.12-.08.2-.01.32l-.08.01c.02.04.03.08-.02.1l-.02-.01c.03.06-.02.1 0 .13h-.02l-.01.05-.02-.02c.02.1 0 .17-.05.23l.08.03c-.15.1 0 .23-.16.3l-.02-.01c.15.25-.25.2-.12.45-.02-.03-.05-.01-.06-.02-.01.1-.03.17.13.24-.02.06-.07.03-.13.01.07.03.08.1.07.13l-.02-.03-.03.14.14.03c-.06.05-.17-.05-.16.03l.1.04c-.06.08-.25.07-.36.13-.2.36-.08.87-.4 1.14l-.1-.02c-.12-.04.14.17.02.14l.04.06c-.03 0-.06.02-.08-.01-.02.04 0 .04.02.1l-.1.01c-.12.12-.02.3-.12.45-.23.13-.23.53-.23.77.06.36-.54.5-.46.87-.02 0 .01.04.02.05l-.12.26s-.57 1.27.82.7l.02.02c.12-.12.17-.2.08-.36.17.05.06-.1.13-.13v.01c-.1-.14.18-.14.1-.27.01.01.05.03.05.05 0-.07 0-.17.1-.14.04-.16.16-.35.05-.5l.02.02c-.08-.1.01-.08-.01-.16h.03c-.08-.1.05-.18.03-.24l.06.02.03-.12-.03.04c-.16-.08.14-.05.07-.18.05-.07-.3-.3-.17-.36-.06-.07.12.1.08 0 .1.03.04.05.12.06-.02-.08.13-.06.1-.16l.07.02c-.1-.14.16-.14.07-.25-.02-.12.23.02.14-.14h.1c.03-.04-.1-.08-.04-.1.06.03.07-.04.12.01.14-.07-.04-.27.17-.35-.1-.08-.01-.12-.08-.18.05.02.07-.14.14-.02.01.01 0 .02-.02.01l.06.04c.16-.03-.01-.18.04-.25-.03.01-.04.05-.08.01l.04-.07.05.04.08-.1-.08-.01c.06-.04.2-.01.1-.1-.04-.05-.12.01-.12-.05.08-.05.2-.13.25-.22-.08-.02-.07-.05-.08-.08l.07.02c-.06-.14.17.03.13-.1l.04.03-.13-.08c-.1-.14.16.01.02-.16 0 .04-.16-.04-.1-.08l.06.04c0-.03-.03-.05-.01-.06.03.03.1.05.1 0l.07.06-.1-.12c.1-.03.04-.15.14-.14 0 0 .1-.1 0-.17.05.05.1-.01.17.04-.06-.06-.08-.18.01-.18l.01.01c.13-.1-.01-.28.13-.37-.08-.03-.01-.07-.12-.1-.05-.17.3-.15 0-.32.01-.07.1-.04.13-.06v.02c.02-.12.03-.15.07-.23-.01-.05-.16-.12-.1-.18.05.05.05.01.06-.01 0 .02.02.04.08.02-.02-.01-.02-.02-.03-.04h.01c0-.05-.02-.05-.04-.04-.01 0-.02-.01-.04-.01.1-.02.05-.13.15-.1.03-.15-.03-.3-.03-.4.06.01.1.05.1.1v-.1c.07.03.02.06.03.1.16-.05-.04-.25.12-.3l-.05-.05h.01c-.03-.01-.06-.05-.07-.08.07.01.15.06.17 0 .08-.02.02-.14.01-.2-.02.03-.06 0-.07-.02.01-.03.08-.02.06-.05l.1.03c-.1-.02-.06-.1-.1-.13.07.01.04.07.08.1l.06-.17c-.04-.1-.1-.02-.15-.08 0-.06-.04-.14.04-.17l-.1-.01c-.02-.12.01-.18.12-.2-.34-1-.8-.5-.8-.5-.27.2-.1.45-.18.82zm6.87 1.7c-.16.3-.34.3-.4.65-.07.14-.1.32-.14.47.1.12-.08.2-.01.32l-.08.01c.02.04.03.08-.02.1l-.02-.01c.03.06-.02.1 0 .13l-.02-.01-.01.05v-.02c.02.1 0 .17-.05.23l.08.03c-.15.1 0 .23-.16.3l-.02-.01c.15.25-.25.2-.12.45-.02-.03-.05-.01-.06-.02-.01.1-.03.17.13.24-.02.06-.07.03-.13.01.07.03.08.1.07.13l-.02-.03-.03.14.14.03c-.06.05-.17-.05-.16.03l.1.04c-.06.08-.25.07-.36.13-.2.36-.08.87-.4 1.14l-.1-.02c-.12-.04.14.17.02.14l.04.06c-.03 0-.06.02-.08-.01-.02.04 0 .04.02.1l-.1.01c-.12.12-.02.3-.12.45-.23.13-.23.53-.23.77.06.36-.54.5-.46.87-.02 0 .01.04.02.05l-.12.26s-.57 1.27.82.7l.02.02c.12-.12.17-.2.08-.36.17.05.06-.1.13-.13l.01.01c-.1-.14.18-.14.1-.27.01.01.05.03.05.05 0-.07 0-.17.1-.14.04-.16.16-.35.05-.5h.02c-.08-.1.01-.08-.01-.16h.03c-.08-.1.05-.18.03-.24l.06.02.03-.12-.03.04c-.16-.08.14-.05.07-.18.05-.07-.3-.3-.17-.36-.06-.07.12.1.08 0 .1.03.04.05.12.06-.02-.08.13-.06.1-.16l.07.02c-.1-.14.16-.14.07-.25-.02-.12.23.02.14-.14h.1c.03-.04-.1-.08-.04-.1.06.03.07-.04.12.01.14-.07-.04-.27.17-.35-.1-.08-.01-.12-.08-.18.05.02.07-.14.14-.02.01.01 0 .02-.02.01l.06.04c.16-.03-.01-.18.04-.25-.03.01-.04.05-.08.01l.04-.07.05.04.08-.1-.08-.01c.06-.04.2-.01.1-.1-.04-.05-.12.01-.12-.05.08-.05.2-.13.25-.22-.08-.02-.07-.05-.08-.08l.07.02c-.06-.14.17.03.13-.1l.04.03-.13-.08c-.1-.14.16.01.02-.16 0 .04-.16-.04-.1-.08l.06.04c0-.03-.03-.05-.01-.06.03.03.1.05.1 0l.07.06-.1-.12c.1-.03.04-.15.14-.14 0 0 .1-.1 0-.17.05.05.1-.01.17.04-.06-.06-.08-.18.01-.18h.01c.13-.1-.01-.28.13-.37-.08-.03-.01-.07-.12-.1-.05-.17.3-.15 0-.32.01-.07.1-.04.13-.06l.01.02c.02-.12.03-.15.07-.23-.01-.05-.16-.12-.1-.18.05.05.05.01.06-.01 0 .02.02.04.08.02-.02-.01-.02-.02-.03-.04h.01c0-.05-.02-.05-.04-.04-.01 0-.02-.01-.04-.01.1-.02.05-.13.15-.1.03-.15-.03-.3-.03-.4.06.01.1.05.1.1v-.1c.07.03.02.06.03.1.16-.05-.04-.25.12-.3l-.05-.05h.01c-.03-.01-.06-.05-.07-.08.07.01.15.06.17 0 .08-.02.02-.14.01-.2-.02.03-.06 0-.07-.02.01-.03.08-.02.06-.05l.1.03c-.1-.02-.06-.1-.1-.13.07.01.04.07.08.1l.06-.17c-.04-.1-.1-.02-.15-.08 0-.06-.04-.14.04-.17l-.1-.01c-.02-.12.01-.18.12-.2-.34-1-.8-.5-.8-.5-.26.2-.1.45-.18.82z"/></g><g xmlns="http://www.w3.org/2000/svg" fill="#fff"><path d="M288.25 186.32c14-3.2 42.4-11.7 42.4-11.7s5.9-.2 12.9-3.6c4.1-2 .7-2.9 1.6-3.6s.7-3 .5-4.3-.3-2.3-.3-2.3.6-2 .2-2.8-3-.6-5 .2-2.1.8-3.1 1c-1 .1 1.9-1.4 3.3-2.4s1.6-3.1-1.3-2-5.5 1.8-6.3 2.2-2.6 1.5-3.8 2.5l-1.2.9s-.9.8-4.1.9-36-.1-40.9-.4c-6.3-.4-8.9 28.6 5.1 25.4zm-97.68 22.43s.2 11.08 21.58 11.08c16.7 0 46.32-11.08 46.32-11.08h-67.9z"/><path d="M338.25 160.82c.3 1.9 3.6 1.3 5.2.7s3.1-1.4 2.5-3-3.5-.6-4.4-.2-3.7.9-3.3 2.5z"/><path d="M338.65 164.92c.3 1.5 3.4 1 5.2.5 1.8-.6 3.5-1.2 2.9-3-.7-1.8-2.4-1.1-4.1-.6-1.8.6-4.3 1.5-4 3.1z"/><path d="M339.55 167.92c.3 1.3 2.3 1.3 4.4.6s2.8-1.3 2.3-2.7c-.3-.9-2.3-.7-3.6-.2-1.3.6-3.4 1.1-3.1 2.3z"/><path d="M340.35 170.72c.3 1.1 1.9 1 3.6.5 1.7-.6 2.3-1.1 1.9-2.2-.2-.7-1.9-.6-2.9-.1-1.1.5-2.9.9-2.6 1.8z"/></g><path xmlns="http://www.w3.org/2000/svg" d="M347.15 163.92c.2-.5.2-1.1 0-1.7-.3-.87-.83-1.26-1.46-1.38.23-.2.42-.44.56-.72.2-.5.2-1 0-1.6-.63-1.8-3.37-1.47-4.63-1.1-.4.06-.8.13-1.17.24l.37-.24c.4-.26.86-.66 1.13-1.15.14-.24.27-.52.3-.9s-.07-.77-.35-1.02c-.26-.24-.68-.38-.98-.36-.32-.02-.57.03-.83.1-.5.12-.96.3-1.37.46l-1.3.46-2.6.87-1.3.45-.67.3-.6.34-2.3 1.47-2.12 1.6-.03.03c-.16.1-.58.3-.92.38-.36.1-.74.17-1.12.22-.76.1-1.53.14-2.3.13l-.55-.08c-.24-.12-3.46.2-3.94.08l-1.46.06c-.4-.02-1.28-.05-.55-.08-1.35-.01-1.38.01-2.36.05l-1.45-.1c-4.58-.08-8.6 0-13.2-.04l-.32-2.66a2.66 2.66 0 0 0-.47-1.13c-.2-.38-.57-.8-1.23-1.07-.44-.2-1-.14-1.5-.15l-1.78.01-4.6.04.2-.06-5.4.2-4.37.24c-.2-.18-1.07-.18-1.95-.3-.9-.08-1.8-.32-2.23-.5h.1c-1.14-.32-2.24-.92-3.07-1.83-.44-.4-.8-.93-1.2-1.4-.34-.52-.73-.98-1.08-1.47.07.06.14.1.47.52-1-1.4-2.17-3.6-2.08-3.78-1.94-3.83-4.23-9.47-5.62-11.9l.12.16c-.8-1.38-.87-1.87-1.72-3.46-.02-.1-.07-.22-.05-.2-.43-.76-1.57-1.5-1.57-1.5-3.63-6.96-7.83-12.2-11.4-15.88-.74-1.13-1.5-2.24-2.32-3.3-2.25-2.9-4.78-5.57-7.68-7.68-1.42-1.1-2.98-1.97-4.54-2.78-1.6-.73-3.2-1.4-4.87-1.8l-.55-.3c-.1-.16-1.06-.22-2.03-.3-.98-.06-2 0-2.26-.13-.53-.03-1.07.07-1.58.1-.43-.03-1.36-.02-.6-.1-1.44.06-1.47.1-2.5.27-.52.01-1.05.03-1.58.08-2.4.34-4.65 1.16-6.6 2.42-.8-.08-1.98-.15-3.03-.03-.62.03-1.18.1-1.6.18l-.67.12c-4.12.76-6.96 2.35-9.65 4.23-2.68 1.92-5.22 4.3-8.42 7.8l-3.5 3.98c-1 1.15-1.82 2.2-2.65 3.24-1.66 2.1-3.25 4.3-5.58 7.9-2.26 3.42-4.53 7.15-6.52 10.64-.38.88-1.02 2.03-1.7 3.22-.63 1.2-1.32 2.44-1.74 3.5l-.5.74a24.14 24.14 0 0 1-1.03 2.26l-.01-.06c-.4 1.1-.98 2.3-1.14 2.85l-.01-.06-.52 1.33.04-.25-.95 2.94c-.27 1-.6 1.93-.82 2.84l.18-.12c-.27.96-.48 1.78-.58 2.54l-.17 1.07-.08 1-.08 1-.03 1.04c-.04.7-.03 1.5-.03 2.4l-.04-.05.9 5.82c.3 1.78.62 3.64 1.73 5.8-.28-.54.03.27-.02.24.92 2.08 2.58 3.9 2.82 3.72 1.1 1.18.86 1 .92 1.23.07-.1 1.14.8 2.15 1.52l-.5-.3c.95.72 1.95 1.33 2.96 1.92l-.47-.56c1.55 1 .24.5 1.83 1.32l.07-.18c2.25 1.22 3.54 2.08 5.94 2.94 2.53.72 5.27 1.1 8 .78.42-.04.83-.1 1.25-.18l-1.04 8.58c-.54 4.96-.7 7.93.2 4.17l-.22 1.65c0 .2-.1.9-.2 1.1v.1c0 .3-.1.4-.1.5v.1h2v.2l-1.98.15-.32.03-.03-.37-.01-.08a.41.41 0 0 1 .02-.18c.02-.1.03-.12.04-.15.01-.07.01-.1 0-.2.01-.07-.01-.14.02-.2.07-.37.06-.6.06-.85-.01-.16-.06-.4-.08-.52-.06-.28-.1-.37-.17-.32s-.1.26-.14.58l-.02.12c-.01 0-.01.02-.02.05-.02.07-.04.15-.06.23s-.05.17-.07.26c-.04.1-.03.1-.1.33-.03.08-.04.17-.07.27v.07c-.02 0-.02-.01-.1.18-.01.05-.03.12-.04.2l-.01.14v.08l-.06 1 1.14.07 2.02.1c0 .01 0 .03.01.05.01.08.02.13.02.13.33 3 1.7 5.18 3.5 6.76 1.83 1.57 4.07 2.77 7.28 3.7 1.4.4 2.57.67 3.6.92l2.87.46c.92.18 1.85.18 2.92.25 1.07.04 2.3.14 3.77.02 1.4-.06 2.9-.05 4.33-.22l4.25-.48c1.26-.4 3.58-.52 5.07-.96h.6c.5-.16 1.1-.32 1.65-.36l-.03.04c.76-.24 1.65-.36 2.03-.48l-.03.04c.3-.06.62-.15.94-.23l-.15.1c1.33-.4 2.7-.74 3.94-1l-.14-.12c2.63-.54 3.5-1.06 5.88-1.56l-.02.04c1.4-.63 2.58-.9 3.77-1.2 1.18-.32 2.37-.64 3.8-1.3-.36.17.18.02.16.06 1.35-.53 2.8-1.07 2.73-1.34 1-.35.84-.2 1-.15-.05-.12.8-.5 1.56-.8l-.34.18 2.2-.88-.52-.06c1.2-.4.4.15 1.5-.34l-.1-.18c1.33-.5 2.28-.66 3.46-1l5.37-.04c.72-.06 1.6-.08 2.56-.1l4.4-.01-.72-3.8c-.16-.8-.32-1.55-.5-2.23l-.1-1.2c-.26-1.04-.53-2.27-.66-3.34l.05.06c-.38-1.56-.66-3.34-.85-4.12l.05.06-.1-.44c.1.01.22.01.36.02.15-.04.38-.06.6-.1.01.01.05.01.03.03 1.33-.1 1.1-.14.48-.1.03-.02-.02-.03-.22-.05 1.4.06 3.85-.27 4.03-.13 4-.42 6.8-1 10.06-1.62.4.03-.37.24-1.32.43l2.32-.43c0 .14-1.32.32-2.04.45 2.82-.24 5.67-1.23 8.92-1.82l.64-.27.2-.03c-.02-.05.68-.3 1.14-.45.48-.01.04.28 1.6-.18.64-.12 1.52-.4 2.43-.73l1.37-.52a3.48 3.48 0 0 0 1.39-.93c-.4.4-.6.45-.6.43-.01-.03.16-.16.32-.33.7-.65 1.05-1.2 1.13-1.97l.13-.06c-.02-.03-.03-.13-.03-.28-.01-.24-.08-.6-.13-.87l-.2-1.13c.02-.01.04-.01.06-.02.08.4.17 1.04.23 1.15l-.15-1.17 9.5-2.64-.06.04c5.63-1.84 9.04-2.42 14.83-4.35-.72.24.33-.05.27-.01l2-.6.84-.26c.25-.02.6-.06.88-.1 1.12-.15 1.87-.34 1.88-.42 2.04-.37 1.66-.3 1.94-.27-.03-.07 1.72-.5 3.25-1l-.7.25c1.47-.46 2.92-1 4.33-1.62l-.9.22.7-.27c.7-.06 1.45-.3 1.9-.38 1.5-.5 2.7-1.1 2.2-2.7-.1-.2-.2-.4-.6-.6-.07-.04-.16-.05-.24-.07 1.02-.53 1.66-1.27 1.24-2.63a1.54 1.54 0 0 0-.59-.63c.52-.3.9-.62 1.13-1.1zm-138.4-61.77c.73-.13 1.35-.3 1.88-.37l.62-.1.22.34c-1.35.03-2.68.17-4 .44.45-.13.88-.26 1.3-.32zm-18.78 88.07h0l-.44.13-.01-.02c.15-.03.3-.07.45-.1zm.65 17.4h0l2.4-.01-2.37.13c0-.03-.02-.08-.02-.12zm62.64 2.3c.66-.27.4.14-.43.4l.17-.2c-.45.2-.6.3-.9.38.25-.16.08-.22-.58.04l.4-.3-1.2.66c-1.03.24-2.54.94-3 .9 0 0-2.16.63-2.6.97.4-.25-.8.1-.5-.14-.52.3-2.14.9-2.84.96l.12-.05c-2.47.62-4.14 1.36-6.4 1.8.14.12-1.06.32-.72.43-2.26.73-4.28.63-5 1.32-1.05.24-1.28.1-1.83.2l.25-.08c-1.97.45-2.55.5-4.03.73-.73.17-.8.45-2.15.58.4-.17-.12-.06-.62-.01.32-.05.4-.1-.25-.1a1.55 1.55 0 0 1-.36.1c-.01-.01-.03-.01-.02-.02-.83.12-.68.14-.3.1-.02.02.02.04.14.05-.88-.05-2.4.24-2.53.07-1.25.17-2.32.23-3.34.33-1.02.08-2 .23-3.04.23-.23-.12.25-.14.86-.2-.5.05-.98.01-1.48.01.02-.14.85-.03 1.3-.07-.88-.1-1.78-.1-2.72-.08-.94.02-1.94.07-2.94-.2l-.43.05-.12-.03c0 .06-.47.08-.77.06-.27-.15.06-.26-.95-.38-.77-.23-2.22-.44-3.26-.6.54.14.35.17.1.15-.5-.1-.72-.36-1.1-.43v-.17c.14.2-1.3-.3-1.5-.3-.22-.2.77.17.92.13-.95-.33-1.2-.4-1.4-.54l-1.33-.68c-1-.4.1.22-.43.1-.42-.22-.8-.5-1.2-.77l-.6-.43a9.86 9.86 0 0 1-.53-.58l.15.35-.9-.84c-.27-.26-.44-.57-.63-.82-.18-.27-.37-.5-.5-.8l-.32-.84a11.6 11.6 0 0 1-1.04-2.58l2.32.06c10.95.3 16.6-.1 29.63-.2l26.37.23h6.52c-1.4.8-.9.1-2.46 1.04zm87.87-51.37c.2-.1.3-.1.5-.2 2.3-.8 3.7-.35 4 .45.1.4.1.7 0 1-.22.5-.9.85-1.56 1.12-.46.1-.92.25-1.34.38l-.2.1c-.12.03-.26.08-.4.12-1.08.23-2.3.3-3-.12-.3-.1-.4-.3-.5-.6-.2-1 1-1.95 2.5-2.25zM339 172.2c-.45.12-.93.28-2.6.83 1.33-.4.68.01-1 .38l.4-.17c-.9.24-1.2.33-1.83.43.54-.15.27-.14-1.08.1l.9-.25c-.84.2-1.7.37-2.55.5-.12.01-.25.01-.38.02l-.24.01c-.12 0-.25.06-.3.07l-.85.24-1.74.52c-1.13.33-2.1.62-2.52.7 0 0-4.24 1.2-5.2 1.58.83-.3-1.5.34-.87.07-1.07.4-4.3 1.4-5.62 1.67l.24-.08c-4.06 1.08-7.1 2.06-10.54 3l-.3-2.4c-.33-1.7-.1.33-.35-.47-.2-1.52-.5-3-.62-4.75l-.07.57c-.45-2.85-.64-4.56-.73-6.5l-.83-4.6-.24-2h1.43l.1.08c3.4-.1 6.4.15 8.66.03 3.5-.04 2.34.24 6 .1l1.42.1c1.56.02 1.12-.12 2.85-.07-.1.07 2.2.05 1.17.1 1.06.01 2.12.04 3.26-.05a11.92 11.92 0 0 0 1.73-.27c.3-.07.6-.15.9-.26.32-.13.56-.2.97-.5l-.04.03 1.22-.93a18.87 18.87 0 0 1 1.23-.93 16.78 16.78 0 0 1 1.37-.86c.47-.27 1-.57 1.45-.72.95-.5 3.5-1.2 4.24-1.58.04 0 .37-.1.8-.25.43-.15.96-.35 1.34-.46.4-.1.68-.1.7-.08.04.03-.06-.02-.67.16-.2.07-.58.2-.57.18l-.3.2c.37-.12.67-.22.96-.3.28-.07.58-.1.67-.07.04.04.18-.04-.1.48-.13.2-.3.38-.5.54-.25.2-.52.37-.8.56-.56.37-1.15.73-1.78 1.12.76-.45 1.73-1.04 1.1-.6l-1.1.67c-.18.12-.37.24-.56.38-.1.08-.2.13-.35.3-.02.03-.06.07-.1.15-.01-.01-.02-.02-.04-.03.03-.06.06-.1.07-.13.07-.1.1-.12.14-.17-.05.05-.08.07-.15.16-.01.02-.05.07-.08.13-.04-.02-.1-.03-.13-.03-.2 0-.4.2-.4.4 0 0 0 2.1-1.3 3.8s-4.4 2.1-4.4 2.1c-.3.1-.4.3-.4.5s.2.4.4.4c.13-.06 1.52-.25 2.9-.9 3.17 2.8 2.3 6.8 2.3 7-.1.2.1.4.3.5h.1c.2 0 .3-.1.4-.4.1-.1 1-4.45-2.3-7.54.5-.3.95-.7 1.3-1.16 1.1-1.38 1.4-2.97 1.47-3.77.1.06.15.07.22.1.1.03.1.02.18.03.1.01.13 0 .2 0h.01l.05-.01c.07-.01.2-.06.4-.13a2 2 0 0 0-.21 1.29c.1.5.4.9.9 1.2.32.2.68.3 1.08.35-.95.58-1.68 1.35-1.48 2.35.1.4.3.8.7 1 .35.2.74.3 1.18.36-.68.43-1.16.98-.98 1.74.1.5.4.9.8 1.1.24.12.52.2.8.24-.58.36-.98.82-.8 1.46a1.27 1.27 0 0 0 .7.9c.03.02.07.03.1.05l-1.8.42zm-1.3-12.43l-.15.05h-.05c-.07.01-.1.02-.2.02-.06-.01-.06.01-.17-.02-.07-.03-.13-.03-.22-.1 0-.01 0-.03.01-.04.1.07.13.07.2.1.25.06.3.03.4.03h.01.04l.14-.03zm6.04 10.95c-1.2.4-2.2.5-2.7.2-.2-.1-.3-.2-.3-.4-.1-.4 1-.8 1.7-1.1.2 0 .4-.1.6-.2a4.53 4.53 0 0 1 1.6-.3c.2 0 .4.1.6.1l.1.1c.2.6.3 1-1.6 1.6zm0-2.7c-1.4.5-2.7.6-3.4.3-.2-.1-.3-.3-.4-.5-.2-.6 1.1-1.1 2.2-1.5a4.34 4.34 0 0 1 .48-.2 21.53 21.53 0 0 0 1.42-.3l.67-.24c.37-.01.7.03.93.14.2.1.2.2.2.2.2.8.2 1.3-2.1 2.1zm2.6-4.4c-.23.47-1 .8-1.86 1.13-.7.05-1.47.24-2.04.47-.1.05-.2.1-.3.14-1.13.17-2.25.2-2.8-.14-.2-.1-.3-.2-.3-.4-.3-1.3 2.7-2.3 3.7-2.5l.2-.1c2-.6 3-.8 3.4.4.1.4.1.7 0 1z"/><path xmlns="http://www.w3.org/2000/svg" d="M236.55 92.32l-7.65-14.6c-.02-.3-.07-.52-.15-.6-.1-.08-.2-.16-.3-.23l-2.7-5.17c-.6-1.2-2.1-1.6-3.3-1l-8.6 4.5c-1.2.6-1.6 2.1-1 3.3l3.48 6.63c-.67-.35-1.28-.03-1.28-.03.5 2.9 0 6.2-.2 8.2 0 2.1 1.3 3.9 1.1 5.3s-1.8 3.3-7.5 11.3c-5.6 8-24.3 37-24.3 37s22.4 17.6 23.7 13.3 7.3-15 11-26.3l10.1-30.8s.7-.7 1.9-2.3c.82-1.1 1.78-2.4 2.4-4l2.3-1.2c1.2-.6 1.6-2.1 1-3.3zm-17.4-.9c-.4-.62-.64-1.57-1.03-2.84l2.05 3.9c-.35-.14-.67-.6-1.02-1.06z" fill="#fff"/><path xmlns="http://www.w3.org/2000/svg" d="M238 92.77c-.04-.23-.1-.44-.2-.65l-.2-.43a7.08 7.08 0 0 0-.37-.73c-.25-.45-.5-.83-.83-1.2.2-.27-.5-1.03-.57-1.36l.04.02c-.6-.65-.65-1.63-1.2-2.27.04.02.1 0 .2.16-.3-.5-.74-1.2-.6-1.32-.7-1.24-1.55-3.04-2.2-3.73l.07.03c-.4-.38-.34-.58-.7-1.06 0-.04 0-.08.01-.08-.42-.42-3.45-5.92-3.4-6.1-.33-.46-.28-.88-.7-1.44l.1-.08c-.3-.35-.47-.74-.6-1.1-.15-.37-.24-.65-.53-.96-.37-.47-.48-.64-.6-.85-.12-.18-.28-.42-.93-.53-.14-.1-.28-.2-.44-.3-.56-.1-.42.13-1.02.06.03-.13-.78.04-.44-.12-.35.01-1.5.6-1.73.75-.48.3-1 .6-1.67.8-.17.32-1.43.76-1.42.8l-1.52.88-.64.3.1-.16-.97.43-2.2 1.24a3.13 3.13 0 0 0-1.44 1.39c.18-.04.01.26-.06.6h-.13c-.08.67-.1.78-.2.9-.07.1-.2.26-.01.92l.22.2c.28.53.35.7.34.82.01.14.6 1.32.6 1.32l2.56 4.9-.05-.05.12.25c0 .06-.01.15 0 .26-.06.04-.1.08-.17.13-.13.1-.07.2.18.12v2c-.03.62.12 1.8.1 2.82l-.27 1.8-.16 1.03c-.04.45-.02.8.04 1.24l-.06-.17c.13.98.44 1.8.66 2.53.23.72.4 1.37.3 1.86-.1.52-.42 1.08-.72 1.6l-.97 1.6c-.36.23-1.77 2.45-2.32 3.12l.04-.07c-1.2 1.9-2.8 3.7-3.95 5.55.04-.08.02-.14.3-.56l-2.22 3.18c-2.1 3.15-5.03 7.53-6.22 9.64l.07-.15c-.67 1.2-.97 1.5-1.77 2.82-.06.06-.12.15-.12.13-.73 1.32-2.4 3.68-3 4.72l-.1.03-1.62 2.52.62-.93c-.05.34-.87 1.3-1.75 2.65l-3.93-2.26s-10.4 10.2-17.5 25.7c-7 15.5-1.4 24.5 6.6 29.6s22.1 4.1 30.1-8.7 10.4-29.6 10.4-29.6l-3.14-1.8a55.35 55.35 0 0 0 .74-1.61c-.17.17.1-.4.33-1.02l.1-.04c.88-2.35.52-.78 1.4-3.1l.07-.45c.7-2.14.6-1.07 1.3-3.47-.33.93-.3.38.13-.75l-.04.3c.2-.64.27-.86.43-1.27-.1.4.03.24.34-.7l-.13.66.48-1.82c.52-1.34 1.14-3.53 1.42-4.06 0 0 1-2.92 1.12-3.62-.13.6.43-1 .35-.5.17-.78.85-3.05 1.22-3.92l-.05.17c1.17-3.3 1.75-5.72 2.83-8.67-.13.1.43-1.45.2-1.1.9-3.12 2.06-5.56 2.1-6.78a19.42 19.42 0 0 1 .51-1.44l.33-.82v.07l-.05.17c.03-.1.06-.2.07-.24l.5-.58.48-.58.77-1c.45-.6.88-1.16 1.42-2 .25-.42.36-.7.5-1.04l.05.03c.1-.27.77-1 .92-1.4h0l-.05.13.02-.02c-.04.17-.01.13.05-.04.07-.06.15-.12.22-.17l1.64-.85a3.17 3.17 0 0 0 .36-.23 1.82 1.82 0 0 0 .49-.22c.48-.33 1.28-1.15 1.14-2.72l.08.05zm-4.2-1.4c.01-.03.02-.04.03-.05v-.16l.01.3c-.01 0-.01-.01-.02-.01-.04-.01-.04-.05-.02-.08zm-18.63-5.1c-.03-.2-.06-.4-.1-.57a1.26 1.26 0 0 1 .1-.03v.6zm-.06-.8c-.02.02-.05.04-.08.06 0-.02-.01-.04-.01-.06.03-.01.06 0 .1 0zm14.34 16.1l-.56.56-.2.26-.1.13-.22.24-.28.9c-.08.25-.17.5-.26.72l-.01-.05c-.28 1.04-.7 2.17-.83 2.7l-.01-.05-.4 1.24.04-.22c-.53 1.8-1.12 3.63-1.68 5.23l.13-.1c-1.22 3.42-1.47 4.74-2.6 7.82l-.01-.05c-1.07 4-2.2 6.17-3.3 10.3.14-.5-.1.2-.12.16-.58 1.88-1.24 3.86-1.1 3.94-.46 1.35-.44 1.08-.56 1.23.07.02-.3 1.2-.72 2.23l.16-.5-1.15 2.98.37-.53c-.68 1.55-.3.34-.9 1.85l.12.03c-.74 1.72-1.35 2.82-2.08 4.23L192.6 135l4.98-7.88c3.8-6.1 8.75-12.88 12.85-18.97.08-.1.2-.27.3-.43s.18-.3.17-.3l3.94-5.5s.3-.42.76-1.16c.23-.37.5-.82.74-1.43a3 3 0 0 0 .19-1.07c0-.4-.08-.75-.17-1.1-.2-.7-.45-1.35-.65-2.02-.2-.65-.36-1.38-.32-1.97.14-1.46.3-2.94.3-4.22.04-1.5-.12-2.72-.26-3.4.07-.01.17 0 .26.01.3.17.56.6.75 1.04.2.46.36.96.47 1.3l.17.57c.26.9.42 1.75.8 2.67a4.56 4.56 0 0 0 .36.69 10.71 10.71 0 0 0 .38.55c.14.18.26.36.57.63.3.26.67.42 1.04.42.32-.01.6-.14.85-.34.1-.06.18-.12.26-.2.14-.1.26-.26.36-.4l.2-.3c.23-.4.37-.76.5-1.1.3-.7.55-1.37.82-2.06l3.62-9.82.47-1.25c.14-.35.38-.7.43-.7.03-.02.07-.02.1-.01.01.01.03.02.06.03.04.02.08.06.12.1l.15.28c0 .04 0 .1.01.17 0 .92-.1 1.8-.2 2.7l-.3 2.37a26.88 26.88 0 0 0-.18 1.65c-.02.28-.05.57-.08.87l-.03.48v.16c0 .12-.01.2.02.42.01.05.01.1.07.25.03.07.04.1.1.2.12.18.4.33.62.34.15.01.32-.03.47-.1.18-.1.14-.1.2-.14.05-.05.13-.14.15-.17l.18-.3.14-.2a3.81 3.81 0 0 1 .3-.36c.22-.22.4-.26.4-.24.03.01.1.05.2.16a3.55 3.55 0 0 1 .35.44c.1.16.16.32.2.48.02.08.03.16.04.24 0 .05.01.06 0 .14-.03.12-.02.2-.07.35l.42.6.45.58c.85.1.66.98.63 2.67.16.2.26.33.36.42l.16.18c.04.06.05.2.06.2a.32.32 0 0 1 .06.08 1.17 1.17 0 0 1 .13.35c.07.3.1.65.08 1a8.46 8.46 0 0 1-.33 2.14c-.16.8-.63 1.85-1.3 2.86-.63 1-1.43 2.04-2.02 2.86z"/><g xmlns="http://www.w3.org/2000/svg" fill="#fff"><path d="M215.95 77.98c.6-.3.8-1 .5-1.6s-1-.8-1.6-.5-.8 1-.5 1.6 1 .8 1.6.5zm1.5 3c.6-.3.8-1 .5-1.6s-1-.8-1.6-.5-.8 1-.5 1.6 1 .8 1.6.5zm39.35 54.57l.02.18c.02-.01.02-.06-.02-.18zm.9 6.9h0c-.01-.02-.02-.04-.02-.05v.05z"/><path d="M269.8 190.1c-.13-1.13-.24-1.84-.52-2.58.15-.15-.15-.92-.15-1.2l.02.02c-.26-.66-.15-1.42-.4-2.06.02.02.07.03.1.18-.1-.47-.27-1.12-.18-1.18l-.8-3.44.04.04c-.2-.4-.12-.54-.27-1 .01-.03.01-.06.01-.06-.2-.43-.28-1.32-.4-1.68l.06-.04-.2-.9.06.34c-.2-.08-.03-.7-.28-1.33-.1-.62-.63-1.16-.68-1.8-.15-.28.2.24.03-.2.1-.03.1.2.15.07-.14-.43-.06-.75-.24-1.28l.07-.04c-.3-.7-.2-1.37-.42-1.82-.22-.72.1-.54-.2-1.28l.03-.32c-.06-.33-.17-.2-.2-.58.07.01-.05-.47.05-.27-.08-.85-.5-1.64-.6-2.76-.17-.2-.23-.77-.36-.92.05-.04-.24-1.1.01-.5.02.05.04.14.02.14l.1.06c0-.65-.33-1.1-.45-1.72.02.2.08.43-.01.28l-.12-.57.1.1-.16-.85-.05.13c-.06-.42.03-.6-.18-1.04-.1-.2-.01.4-.13-.02l-.35-2.12c-.07.1-.1-.1-.18-.3l.07-.04c-.28-.72.1-.3-.17-1.03l-.13-.1c-.3-.63.06-.4-.3-1.1.08.3-.13.18-.18-.2l.1.07c-.06-.2-.1-.26-.13-.4.07.1.12.04.03-.25l.14.18-.27-.52c-.03-.45-.3-1.1-.24-1.3 0 0-.18-.93-.35-1.12.1.17.01-.35.13-.22-.14-.22-.38-.9-.37-1.2l.02.05c-.2-1.07-.58-1.75-.73-2.72-.07.06-.16-.44-.23-.3-.37-.94-.27-1.82-.7-2.08-.14-.43-.07-.54-.12-.77l.05.1-.5-1.66c-.12-.3-.3-.3-.4-.85.1.16.04-.06-.02-.26.05.13.08.16.04-.12-.03-.03-.06-.1-.08-.14 0 0 0-.02.01-.01-.12-.33-.12-.27-.08-.1-.01-.01-.02.01-.02.07-.03-.38-.3-.98-.2-1.05l-.97-2.53c.02-.1.13.07.23.3l-.2-.6c.08-.02.15.33.23.5-.1-.75-.6-1.43-.75-2.3l-.12-.15-.01-.05c-.03.01-.14-.16-.2-.28.03-.14.16-.04.02-.45-.04-.35-.34-.9-.52-1.33.07.23 0 .17-.05.08-.07-.2-.04-.35-.13-.5l.08-.05c-.06.1-.27-.5-.34-.57.03-.14.17.3.23.33l-.43-1.23c-.22-.42-.06.1-.2-.07-.15-.38-.35-.74-.45-1.2l-.03.17c-.32-.7-.46-1.14-.56-1.66-1.3-2.58-1.65-2.75-1.63-2.32.01.43.34 1.5.34 1.5.6 2.17 1.2 3.18 2.13 5.7l1.54 5.2 1.07 3.37c.28.48.42 1.43.7 2.02v.26c.1.2.2.44.2.67v-.01c.14.3.2.67.28.82l-.02-.01.1.38-.05-.06c.2.54.37 1.1.48 1.6l.07-.06c.2 1.1.47 1.45.6 2.45h-.02c.53 1.18.34 2 .87 3.2-.07-.15-.03.08-.05.07.17.58.34 1.2.5 1.17.1.43.03.36-.02.43.07-.02.2.34.28.68l-.07-.15.26.95.1-.22c.08.52-.14.17.02.65l.1-.03c.15.7.08 1.16.16 1.86l2 8.5-.06.14c-.1.08.35.7.25.8l.12.3c0 .1.01.28-.05.13.06.28.08.3.16.48l-.01.32c.2 1.13.54 2.06.76 3.24.14 1.45.84 4.1 1.24 5.62.63 2.13.6 4.75 1.25 6.93 0 .08.07.26.1.25l.36 2.04.82 3.98c.37 1.5.74 2.07.6-1.8l.04.06z"/><path d="M263 156.55h0l.06.05zm-95.73 7.1l.08-.1c-.02 0-.04.02-.08.1zm2.9-4.1h0c0 .02-.01.03-.01.04l.01-.04z"/><path d="M190.55 133.75l.05-.01c-.7-.43-1.13-.68-1.7-.82 0-.05-.03-.1-.1-.14a2.76 2.76 0 0 0-.35-.19l-.38-.17c-.06-.06-.1.03-.15.05l-.1.08.02-.03c-.14.16-.3.3-.44.42-.13.1-.2.16-.33.24-.2.15-.42.3-.56.5 0-.02-.02-.06.06-.14-.25.25-.57.6-.66.55-.6.6-1.46 1.37-1.72 1.87v-.05c-.14.3-.27.3-.46.57-.02 0-.04.02-.05.01-.15.3-.66.7-.8.94l-.06-.03-.44.5.18-.17c.08.2-.42.3-.66.72-.32.32-.3.93-.7 1.22-.08.22.02-.24-.15.05-.08-.05.06-.16-.06-.14-.18.27-.42.34-.63.7l-.07-.04c-.23.5-.7.7-.83 1.05-.3.46-.4.15-.63.68l-.2.1c-.16.18-.01.2-.2.4-.04-.05-.25.23-.2.07-.45.42-.62 1.07-1.23 1.6 0 .2-.3.5-.3.66-.06-.01-.47.66-.3.22.01-.04.05-.1.07-.08l-.03-.1c-.37.3-.4.72-.68 1.08.1-.1.2-.25.17-.12l-.24.34v-.1l-.37.5.1-.03c-.2.24-.37.26-.46.6-.03.16.24-.2.1.1-.27.3-.66.8-.94 1.23.1 0 .02.12-.03.25l-.07-.02c-.2.53-.25.1-.45.6l.04.14c-.12.5-.27.15-.36.73.1-.2.2-.01.04.2l-.03-.1c-.06.14-.05.2-.12.27.01-.1-.07-.1-.16.1l-.01-.17-.08.42c-.22.24-.38.73-.53.8 0 0-.36.58-.33.77 0-.15-.2.17-.22.04-.01.2-.2.7-.36.83l.01-.04c-.42.66-.47 1.24-.87 1.82.1.01-.1.32.03.28-.2.7-.75 1.1-.55 1.47-.12.3-.23.32-.32.47l.01-.08-.48 1.15c-.06.22.07.3-.12.67-.01-.15-.06.01-.12.15.03-.1.02-.13-.1.04.01.03 0 .08 0 .12-.01 0-.01.01-.02 0-.08.24-.04.2.01.1.01.01.02 0 .05-.02-.18.2-.28.68-.4.66-.27.7-.36 1.26-.56 1.86-.08.05-.07-.1-.02-.3l-.15.42c-.07-.03.05-.26.1-.4-.32.45-.28 1.07-.6 1.6l.01.14-.02.03c.03.01.02.16 0 .25-.1.06-.15-.06-.25.23-.15.2-.2.67-.28.98.07-.16.1-.1.1-.01-.05.15-.15.2-.16.33l-.1-.02c.1-.03-.04.4-.03.48-.1.06.02-.25-.01-.3l-.3.88c-.04.34.1-.03.13.15-.08.28-.1.57-.27.87l.1-.07c-.12.54-.23.85-.42 1.17-.3 2.05-.1 2.32.1 2.08.22-.23.52-.98.52-.98.66-1.46.7-2.32 1.27-4.13l1.5-3.55.92-2.34c.03-.4.42-.97.5-1.43l.14-.13c.03-.16.08-.34.18-.46v.02c.05-.23.2-.46.2-.58l.01.02.1-.26.01.06a5.78 5.78 0 0 1 .47-1.1l-.1-.01c.43-.67.4-1 .8-1.6l.01.02c.2-.9.78-1.2 1.02-2.12-.03.1.06-.02.08 0 .18-.4.4-.8.24-.88.15-.27.17-.2.25-.2-.07-.03.04-.3.15-.5l-.03.1.33-.62-.2.05c.22-.3.2.01.35-.32l-.1-.06c.28-.43.6-.6.9-.98 1.12-1.7 2.13-3.7 3.46-5.1l.12-.01c.12.05.17-.53.3-.52l.1-.2c.06-.04.16-.12.1-.02.13-.16.12-.18.18-.32l.2-.12c.55-.6.88-1.22 1.45-1.86.8-.67 1.96-2.2 2.7-3.06.95-1.27 2.6-2.17 3.66-3.38.05-.02.12-.14.1-.15l.15-.12c.03-.01.06-.07.1-.05l.36.2c0 .02 6.33 3.37 2-.1z"/><path d="M173.57 149.3h0l-.02-.07zm44.03-.04c-.3.28-.86 2.16-2.35 6.5l-.02-.13-1.56 6.1c-.37.2-.7 2.12-1 2.68v-.06c-.32 1.64-1.32 3.14-1.73 4.68 0-.07-.06-.13.08-.46-.42 1.08-.96 2.57-1.17 2.57-1.05 2.56-3 5.87-3.72 7.5l.03-.12c-.42.9-.7 1.07-1.27 2.04-.05.04-.1.1-.1.08-.28.47-.8 1.08-1.3 1.66-.5.6-1.08 1.04-1.36 1.4l-.12-.04c-.5.53-1.05.97-1.6 1.4l.65-.48c-.05.38-1.34.93-2.58 1.86-.32.18-.6.43-.9.65l-.9.68c-.6.5-1.28.9-2.03 1.1-.64.4.53-.45-.46.04-.08-.14.44-.28.14-.3-.48.24-.92.3-1.38.4-.47.07-1.1.9-1.73 1.03l-.54.12c-.66.44-.52.02-.7.2-.35.35.27.57.9.7l2.82-.67c1.77-.4 4.3-1.35 6.45-2.94.58-.34 1.06-.82 1.57-1.22l.75-.63.67-.68 1.24-1.3 1-1.25c1.63-2.22 3.26-4.65 4.7-7.22 1.44-2.56 2.76-5.24 3.53-7.9.1-.16.2-.62.17-.62l1.62-4.78.94-3.4 1.28-6.24c.3-1.87.32-3.2.03-2.92z"/></g></g></svg>