<svg xmlns="http://www.w3.org/2000/svg" width="222" height="259" fill="none"><path fill="#0F172A" d="m31.903 61.759.006.065c-.006-.04-.006-.052-.006-.065Z"/><path fill="#fff" d="M125.07 4.055s-1.205.823-2.126.869c-.922.046-.968-.046-.968-.678 0-.631-.099-1.013-.244-1.493-.144-.48-.77-1.204-.77-1.204s-.527 1.013-1.738 1.303c-1.211.289-2.37-.198-4.299-1.014-1.935-.822-3.765-.967-5.365-.526-1.593.434-2.173.921-2.805 1.401-.632.48-1.547 1.94-1.547 1.94s-1.863-.216-3.864.711c-2.199 1.027-3.14 3.862-3.384 5.94-.244 2.08.395 4.395.77 5.592.376 1.197 1.087 2.717 1.087 2.717s.118-.145.329-.33l.079.395c-.659.684-1.054 1.632-1.054 2.697 0 2.073 1.561 3.75 3.489 3.75.244 0 .474-.033.705-.086l-4.523 14.755-1.448 3.75s2.106 2.697 7.11 3.75c3.423.723 5.727.789 7.241.657 1.251-.132 2.765-.395 1.975-2.697-1.119-3.42-.724-5.591-.724-5.591l1.58-8.618c1.073.198 2.067.23 2.831-.006 2.107-.658 3.884-2.895 4.543-6.644.329-2.171.526-6.052.526-8.815 0-.723-.066-2.236-.197-3.552a14.404 14.404 0 0 0-.171-.987 7.383 7.383 0 0 0 2.172-1.54c3.252-3.334.79-6.426.79-6.426v-.02Zm-20.178 21.182c.007.02.013.04.013.066l-.052-.033a.136.136 0 0 0 .039-.027v-.006Z"/><path fill="#0F172A" d="m120.587 12.133.217-.026c-.006-.02-.066-.007-.217.026Zm-19.533 6.078.053-.026c-.04.013-.046.026-.053.026Zm25.59-11.945v.013l.019.065-.019-.078Zm-12.489 14.59a.922.922 0 1 0 0-1.843.922.922 0 0 0 0 1.843Zm-11.284-.474c-1.053 0-1.909.888-1.909 1.974 0 1.085.856 1.973 1.909 1.973s1.909-.888 1.909-1.973c0-1.086-.856-1.974-1.909-1.974Zm0 3.29c-.691 0-1.251-.593-1.251-1.316 0-.724.56-1.316 1.251-1.316.691 0 1.251.592 1.251 1.316 0 .723-.56 1.315-1.251 1.315Zm12.159-8.862c-2.37-.197-3.423 1.382-3.489 1.448a.488.488 0 0 0 .099.658c.329.25.606.105.757-.066.079-.086.79-1.184 2.568-1.053.263 0 .526-.197.526-.46s-.197-.527-.461-.527Zm4.701.375c.099-.013.816-.23 1.382.093.093.052.198.105.264.105.131 0 .329-.066.395-.197a.513.513 0 0 0-.132-.658c-.922-.658-2.06-.29-2.159-.263a.472.472 0 0 0-.295.224.476.476 0 0 0-.048.368c.066.263.33.355.593.329Zm1.007 5.145a.922.922 0 1 0 0-1.844.922.922 0 0 0 0 1.844Z"/><path fill="#0F172A" d="M115.623 27.118c-2.37.112-3.061-1.776-3.094-1.875-.119-.263-.369-.355-.626-.263-.256.092-.362.369-.263.625.362.954 1.593 2.618 4.095 2.5.263-.026.441-.244.408-.572a.492.492 0 0 0-.507-.408l-.013-.007Zm11.027-20.84-.375-1.335-.145-.361-.118-.244-.152-.263a4.875 4.875 0 0 0-.658-.855l-.31.23-.513.243-.303.198-.178.105a1.271 1.271 0 0 1-.368.138l.006-.026c-.316.197-.704.184-.79.21l.007-.02c-.033 0-.066.007-.099 0l.033-.02c-.04.014-.066-.012-.079-.045-.007-.02-.007-.026-.013-.066l-.013-.25a6.963 6.963 0 0 0-.198-1.184l-.066.079c-.026-.118-.046-.237-.112-.395l-.085-.197c-.027-.066-.079-.145-.119-.217a5.403 5.403 0 0 0-.54-.737l-.342-.02c-.092-.006-.171-.032-.224.014-.118.065-.283.118-.546.184-.145.217-.382.434-.448.46-.105.08-.23.145-.368.198v-.027c-.527.395-1.139.362-1.679.21l-1.942-.63c.197.052-.066-.067-.04-.086-.698-.277-1.547-.592-1.606-.428-.56-.184-.448-.184-.5-.276-.014.066-.527-.04-.975-.112l.217.013a7.436 7.436 0 0 0-1.316-.131c.085.046.169.097.25.151-.691-.066-.171-.197-.856-.151l.013.111c-.961.02-1.58.007-2.501.224-.804.25-1.62.757-2.252 1.303-.395.342-.632.677-.889 1.026l-.362.526-.085.132-.027.052c-.019.027-.033.066-.052.092h-.132l-.434.013-.856.1a9.445 9.445 0 0 0-1.659.427c-.527.197-1.054.427-1.534.776a6.974 6.974 0 0 0-1.205 1.164l-.164.086c-.172-.013-.395.987-.527 1.052l-.132.428c-.066.099-.178.329-.132.118-.15.369-.131.395-.197.658l-.197.382c-.488 1.473-.461 2.874-.284 4.473.033.763.218 1.763.527 2.789.151.513.349 1.052.56 1.54l.329.742.526 1.132c.053 0 .086.006.132.013a4.221 4.221 0 0 0-.704 2.349c0 2.25 1.711 4.078 3.818 4.078.079 0 .158-.013.237-.02l-4.365 14.242-1.514 3.92.112.145c.092.112 2.238 2.802 7.308 3.868 2.264.48 4.266.724 5.977.724.455 0 .91-.019 1.363-.06.843-.085 1.777-.243 2.238-.953.329-.527.343-1.237.02-2.171-1.073-3.29-.724-5.407-.711-5.427l1.527-8.289c.448.066.889.119 1.291.119.5 0 .961-.066 1.369-.184 2.39-.75 4.128-3.263 4.773-6.907.066-.421.118-.895.171-1.408 1.205-.48 2.061-2.079 2.061-4.026 0-1.756-.698-3.223-1.712-3.855a44.654 44.654 0 0 0-.197-3.157c-.014-.112-.04-.217-.066-.33.711-.328 1.468-.802 2.304-1.657.559-.592 1.086-1.302 1.428-2.125.337-.81.461-1.693.363-2.565l.006-.026ZM114.655 16.62c-1.567 0-2.929 1.533-3.226 3.52l-2.119-.369c.065-.098.131-.217.112-.223.566-.875.776-1.796.934-2.724 0 0 .04-.21.066-.565a7.47 7.47 0 0 0-.02-1.428c-.131-1.204-.79-2.434-1.402-3.276-.164-.223-.224-.302-.276-.46-.02-.066-.033-.132-.046-.178a.732.732 0 0 0 .144-.02l.014.053c.013.013.033.02.046.027l.085.032c.169.074.335.15.501.23l.684.343c2.548 1.282 4.214 1.947 7.815 1.92 1.593-.006 2.62-.197 3.621-.5l.329-.118c.006.053.019.099.026.145.089.938.151 1.88.184 2.822a1.962 1.962 0 0 0-.441-.053c-1.448 0-2.6 1.533-2.791 3.579a1.583 1.583 0 0 0-.5-.06 1.257 1.257 0 0 0-.659.204c-.461-1.67-1.685-2.894-3.094-2.894l.013-.007Zm2.634 4.342c0 2.04-1.185 3.684-2.634 3.684-1.448 0-2.633-1.645-2.633-3.684 0-2.04 1.185-3.684 2.633-3.684 1.449 0 2.634 1.645 2.634 3.684Zm-4.609 19.616c-.019.092-.395 2.302.738 5.756.25.724.263 1.27.046 1.611-.297.461-1.054.58-1.738.658-1.909.165-4.312-.052-7.143-.657-4.174-.875-6.294-2.94-6.8-3.487l1.382-3.585 4.463-14.577a3.451 3.451 0 0 0 1.073-.493c.053.197.106.394.145.578.349 1.46 1.593 2.697 3.924 3.901 1.646.855 3.634 1.645 5.431 2.013l-1.514 8.289-.007-.007Zm8.954-15.261c-.593 3.387-2.173 5.723-4.319 6.38-1.975.619-5.675-.703-8.242-2.019-2.107-1.085-3.292-2.223-3.582-3.467a15.976 15.976 0 0 0-.23-.888l-.165-.822c-.579.763-1.448 1.263-2.436 1.263-1.744 0-3.16-1.533-3.16-3.42 0-1.888 1.416-3.421 3.16-3.421.79 0 1.501.316 2.054.835.069.073.133.15.191.23l.152.237c.046.08.184.25.303.33.263.197.526.289.75.341l.612.132c.606.052 1.014-.092 1.449-.296a3.61 3.61 0 0 0 .592-.395l2.601.44c0 .053-.007.113-.007.165 0 2.369 1.448 4.342 3.292 4.342 1.777 0 3.291-1.974 3.291-4.342a5.685 5.685 0 0 0-.046-.677c.033-.033.066-.066.112-.092a.448.448 0 0 0 .046.23c.329.855.922 2.5.856 3.092-.066.592-.559.657-.79.723-.296.08-.494.296-.428.592.079.382.428.415.626.395.526-.066 1.448-.592 1.514-1.579.007-.18-.002-.36-.027-.54.501.659 1.159 1.066 1.896 1.066.027 0 .053-.006.079-.006l-.144 1.151v.02Zm.21-1.822a1.062 1.062 0 0 1-.145.013c-1.171 0-2.172-1.612-2.172-3.52 0-1.907.987-3.519 2.172-3.519.156.002.31.03.455.086a83.12 83.12 0 0 1-.31 6.94Zm.968-6.513c.625.625 1.053 1.75 1.053 3 0 1.434-.559 2.697-1.329 3.243.171-2.006.263-4.394.283-6.25l-.007.007Zm99.106 173.728v-.066c-.007.046-.007.066 0 .066Z"/><path fill="#fff" d="m12.265 183.934 32.06-14.755c9.02-4.275 15.116-6.801 20.448-8.709 5.333-1.908 8.624-7.479 8.624-7.479l14.747 22.477 2.028 1.842-75.741 23.944-2.153-17.326-.013.006Z"/><path fill="#0F172A" d="m20.139 185.164-.014.046c.014-.006.027-.026.014-.046Zm-.33 1.664c0-.006 0-.006-.013-.013l.013.013Zm17.426-14.695.461-.184c-.013-.007-.131.039-.46.184Zm-1.092 22.563-.112.039a.48.48 0 0 1 .112-.039Z"/><path fill="#fff" d="M124.906 174.902s0 14.538 5.266 26.773l11.587 27.431 5.662 14.538 9.677 3.289 8.822-6.776s-2.436-3.42-3.16-6.709l-12.311-53.546-1.646-12.236-23.897 7.236Z"/><path fill="#0F172A" d="M59.204 155.543h-.026c-.04.007-.093.006-.132.013l.151-.013h.007Zm78.236 64.288c-.006-.013-.006-.02-.013-.026l-.053-.119.066.145ZM19.967 184.572l-.085-.276c-.066-.086-.053.033-.119 0-.04-.086-.099-.158-.092-.263l-.046.046c-.086-.151-.112-.263-.086-.382-.777-1.105-.658-.092-.658-.092.02.526.244.724.448 1.29.112.513.052.67.237 1.184.066.25.164.513.243.749.112.093.092.329.198.441l-.033.066c.04.046.066.092.066.145h-.014c.066.065.066.144.086.177H20.1l.033.086-.027-.013a.958.958 0 0 1 .126.355l.052-.026c.007.263.145.309.132.546h-.013c.224.236.026.46.237.703-.027-.032-.027.027-.04.02.053.132.099.263.21.23.027.092-.012.086-.052.112.053-.019.092.066.112.132l-.033-.033.066.197.08-.066c.006.119-.106.066-.047.158l.079-.019c.026.157-.066.282-.066.447.145.631.527 1.25.553 1.862l-.046.039c-.079.033.165.132.092.171l.053.066c-.007.02-.013.066-.046.039.013.066.026.066.066.106l-.033.078c.026.264.184.435.237.704-.02.342.243.895.395 1.224.263.441.085 1.079.362 1.533-.007.019.033.052.04.046l.111.447s.58 2.171.79.329h.02c-.026-.263-.066-.415-.198-.553.106-.066-.046-.197-.026-.263v.007c-.132-.132-.02-.329-.132-.448.007.007.04 0 .053.033-.046-.105-.105-.237-.046-.263-.085-.243-.151-.605-.303-.723l.02.006c-.092-.066-.04-.118-.105-.197.006-.007.006-.02.013-.02-.099-.079-.092-.289-.145-.362l.046-.013-.066-.197v.079c-.131.006.027-.171-.085-.29-.02-.131-.316-.197-.303-.362-.066-.052.105.033.04-.052.065-.02.045.039.091-.007-.052-.092.02-.177-.065-.283l.046-.013c-.132-.131-.02-.315-.132-.394-.085-.152.105-.152-.026-.29l.046-.085c-.013-.066-.092-.027-.086-.119.04-.006 0-.112.066-.079.013-.197-.197-.342-.158-.605-.092-.026-.079-.158-.151-.184.026-.02-.066-.243.052-.132.014.013.014.033 0 .033h.053c.046-.158-.119-.23-.132-.368-.006.046.014.092-.026.066l-.033-.132.046.02-.026-.198-.04.04c0-.099.066-.151-.02-.237-.052-.039-.039.105-.085.013l-.033-.487c-.053.033-.066-.013-.085-.052l.052-.02c-.118-.145.086-.085-.006-.243h-.066c-.132-.119.066-.106-.099-.237.026.066-.099.066-.099-.026h.053c-.02-.04-.046-.053-.046-.086.033.013.066-.006.046-.066l.066.027-.119-.099c.027-.105-.079-.243-.026-.296 0 0-.026-.211-.105-.243.052.032.04-.093.098-.066-.066-.04-.151-.184-.112-.263l.014.013c-.014-.25-.185-.375-.178-.592-.053.026-.053-.092-.119-.053-.131-.197.033-.434-.21-.447-.04-.092.013-.132.02-.184l.02.019-.12-.368c-.045-.066-.144-.046-.15-.178.052.033.026-.019.019-.065.02.026.033.033.046-.04-.013 0-.026-.02-.04-.026 0 0 .007 0 .014-.007-.033-.066-.046-.052-.04-.019-.006 0-.013.006-.02.019.027-.092-.065-.223 0-.243-.078-.224-.197-.362-.283-.553.033-.033.066 0 .106.053l-.053-.132c.053-.013.053.066.066.106.04-.185-.171-.31-.151-.527l-.053-.033v-.013c-.02.007-.066-.026-.08-.065.034-.04.1-.027.08-.119.026-.085-.08-.197-.132-.296.007.053-.02.04-.046.033-.013-.046.026-.086-.006-.118l.052-.02c-.052.033-.092-.105-.131-.119.032.027.065.132.092.132l.006.013Zm129.692 54.704c-1.053.723-.092.658-.092.658.487.006.684-.211 1.218-.395.487-.092.638-.02 1.119-.184a6.41 6.41 0 0 0 .711-.211c.092-.105.303-.079.415-.177l.065.033c.04-.033.086-.066.132-.053v.013c.066-.052.132-.053.165-.066v.013l.079-.026-.007.02a.705.705 0 0 1 .329-.105l-.02-.053c.244.007.297-.132.527-.105.224-.211.435 0 .658-.211-.026.027.02.027.02.04.119-.046.25-.086.224-.198.092-.019.079.014.105.053-.013-.046.066-.085.132-.105l-.026.026.197-.066-.066-.079c.112 0 .053.106.152.066l-.02-.066c.151-.019.263.066.421.092.593-.118 1.185-.46 1.765-.473l.039.052c.033.079.119-.157.158-.085l.053-.053c.02.013.066.013.039.046.066-.013.066-.026.093-.065l.079.033c.243-.02.414-.165.658-.211.329.033.856-.197 1.152-.342.415-.237 1.02-.04 1.448-.296.02.006.053-.026.046-.04l.422-.092s2.041-.48.329-.769l.006-.02c-.243.013-.395.039-.526.171-.053-.105-.198.033-.264.013v-.013c-.118.118-.309 0-.421.112 0-.013 0-.04.026-.053-.092.04-.223.099-.25.033-.23.079-.566.132-.691.263v-.02c-.066.093-.112.04-.197.099-.007-.006-.014-.006-.014-.013-.079.092-.263.079-.329.132v-.04l-.184.066.066-.007c.006.132-.158-.039-.277.066-.131.02-.197.309-.342.283-.046.066.033-.105-.053-.04-.02-.065.033-.046 0-.092-.085.053-.164-.026-.263.046l-.02-.046c-.132.132-.296.007-.375.112-.145.079-.132-.118-.263.02l-.079-.046c-.066.006-.027.092-.112.079-.007-.04-.106-.007-.066-.066-.185-.02-.329.178-.573.132-.026.092-.151.065-.178.131-.013-.033-.23.053-.118-.052.006-.007.026-.014.033 0l.006-.053c-.151-.066-.217.105-.349.131.04.007.093-.013.066.033l-.118.027.013-.046-.184.019.039.04c-.092-.007-.145-.079-.224.013-.033.053.099.046.013.086a2.144 2.144 0 0 0-.46.013c.026.052-.014.065-.053.079l-.02-.046c-.132.105-.085-.093-.224 0l-.013.065c-.118.132-.099-.079-.224.086.066-.026.053.099-.026.099l.007-.053c-.04.02-.047.046-.079.039.019-.033-.007-.065-.066-.046l.026-.065-.092.111c-.099-.026-.231.066-.283.014 0 0-.198.019-.224.098.026-.052-.086-.046-.066-.105-.039.066-.171.132-.243.099h.006c-.23 0-.355.171-.566.151.02.053-.086.046-.046.112-.184.118-.395-.053-.421.184-.093.033-.132-.026-.172-.026l.02-.02a1.516 1.516 0 0 1-.349.105c-.066.04-.046.132-.164.145.026-.053-.02-.033-.066-.02.026-.013.033-.033-.033-.046-.007.013-.013.026-.026.033l-.007-.007c-.066.033-.053.04-.02.04 0 .006.007.013.02.02-.086-.033-.198.052-.23-.014-.211.066-.349.178-.527.25-.026-.032.006-.065.053-.098l-.132.046c-.013-.053.066-.046.105-.066-.171-.046-.289.158-.487.132l-.026.052-.013-.006c.006.019-.027.065-.053.065-.04-.039-.026-.105-.112-.079-.079-.026-.198.066-.277.119.053-.007.04.026.027.046-.046.013-.079-.026-.112 0l-.02-.066c.033.053-.099.092-.112.119-.039-.04.066-.053.066-.093l-.263.066c-.079.066.033.053 0 .119-.079.033-.152.092-.264.085l.046.046c-.131.086-.223.099-.342.066l.02.033ZM17.419 202.57v-.026c-.006.006-.013.013 0 .026Z"/><path fill="#0F172A" d="m191.463 250.577-.039-.303-.086-.631c-.132-.842-.29-1.697-.77-2.71.118.25.006-.132.033-.119-.362-.96-.935-1.94-1.106-1.855l-.329-.559c-.047-.085-.014-.098-.033-.171-.066.02-.646-.414-1.166-.658l.251.106c-.494-.283-1.001-.5-1.502-.724l.231.276c-.77-.394-.132-.263-.902-.552l-.04.131c-1.092-.46-1.685-.875-2.745-1.335-4.516-1.566-9.532-2.539-13.746-3.855l-.164-.145c-.046-.157-1.231-.098-1.363-.263l-.514-.065c-.131-.066-.421-.158-.164-.132-.461-.118-.474-.099-.83-.145-.066-.033-.184-.066-.309-.105-.112-.026-.224-.046-.329-.066a2.402 2.402 0 0 0-1.277.369c-.672-1.316-1.232-2.697-1.541-4.184l-1.488-6.131-2.765-11.808-.02-.342c.047-.164-.605-2.026-.592-2.322l-.244-.855c-.039-.243-.144-.763-.026-.329-.184-.802-.197-.816-.362-1.381l-.151-.869c-.698-3.157-1.422-5.828-2.173-9.156-.823-4.013-2.653-11.512-3.647-15.84-.356-1.527-.724-3.092-.922-4.737l-.987-8.091c.026-.006.052-.02.085-.026l.705-.224c.237-.066.559-.197.79-.368a2.805 2.805 0 0 0 1.086-1.434 2.768 2.768 0 0 0-.046-1.842l-.527-1.408c-1.415-3.749-2.844-7.538-4.371-10.998-.04-.119-.132-.329-.198-.494a1.507 1.507 0 0 0-.158-.309l-2.593-6.42s-3.18-7.762-5.399-12.499c-1.099-2.368-1.948-3.966-1.909-3.499.007.145.105.5.31 1.098l-.461-1.026a109.424 109.424 0 0 1-1.942-4.604c.921 2.039 1.599 3.315 2.014 4.045.632 1.118.698.987.487.316-.197-.658-.671-1.855-1.053-2.895l-.724-1.907-3.094-9.058-1.185-3.908.283-1.171.48-1.973.25-1.066H81.192l.027.408.052.711.132 1.361.079-.158c.171 1.888.46 3.158.737 4.362.013.046.02.092.033.131l-.151.349c-3.094 6.775-4.062 8.505-7.156 15.577l-4.55 10.249c-.572 1.618-1.935 4.315-2.652 6.203l-.395.684-.428 1.066a5.205 5.205 0 0 0-.31 1.295l-.02-.052a5.13 5.13 0 0 0 .277 1.842c.136.39.324.759.56 1.098l.526.724h.033l.263.362-.158-.158c1.099 1.4 2.163 2.825 3.193 4.276l-.006-.165c2.001 2.894 2.93 3.815 4.713 6.46l-.046-.02c2.588 3.092 3.634 5.223 6.28 8.42-.328-.395.093.211.047.197 1.152 1.513 2.37 3.158 2.541 3.066.593.816.658.947.658 1.026l.626.756c.263.329.56.724.843 1.099l-.33-.381.461.624.237.316a2.223 2.223 0 0 0 2.232.796 2.114 2.114 0 0 1-.764-.118c.487.066.777-.007.942-.046.17-.04.237-.066.302-.066a.583.583 0 0 0 .264-.132c.151-.098.349-.315.592-.592l-.112-.065c1.58-1.645 2.634-2.5 4.214-4.046l8.65-9.361 2.37-2.585-.02-.046 1.712-1.756 4.694 8.078.119.394c-.033.224 1.448 2.04 1.514 2.401l.592.875c.132.263.422.816.132.382.487.842.527.855.908 1.427l.461.941.698 1.223.724 1.217c.362.546.942.895 1.534 1.013.302.061.612.065.915.014.145-.029.288-.066.428-.112l.316-.112 5.333-1.829c4.654-1.361 13.265-4.407 18.222-6.157a135.64 135.64 0 0 1 4.582-1.566l1.264 8.71-.039-.132c.263 1.184.289 1.54.592 2.849.007.065.02.164.014.151.342 1.263.822 3.723 1.086 4.736l-.027.079.58 2.533-.198-.948c.198.303.356 1.934.856 3.75.375 1.723 1.053 3.421 1.402 5.23.251.835-.263-.724.066.526-.052.053-.178-.592-.151-.244.316 1.25.414 2.059.81 3.592l-.033.066c.553 1.987.822 3.802 1.217 5.131.527 2.059.185 1.421.79 3.552l.132.855c.198.921.237.645.441 1.671-.052-.053.264 1.303.092.71.481 2.329 1.185 4.671 1.804 7.75.237.644.547 2.19.724 2.67-.013.092.725 3.079.237 1.368-.039-.144-.098-.407-.085-.394l-.099-.198c.329 1.757.79 3.145 1.185 4.868-.105-.513-.263-1.184-.132-.743l.369 1.598-.118-.328.539 2.381-.026-.342c.25 1.151.237 1.657.81 2.914.263.566-.356-1.105.131.092.25.657.533 1.3.85 1.927-.033.053-.079.106-.112.158l-.158.263c-.099.178-.217.356-.329.527a11.969 11.969 0 0 1-1.646 2.039c-.856.737-2.14 1.736-3.621 2.453a12.92 12.92 0 0 1-2.265.875 9.094 9.094 0 0 1-2.047.395 5.9 5.9 0 0 1-2.568-.355c-.855-.329-1.606-.822-2.435-1.382-.231-.144-.395-.276-.79-.421a1.656 1.656 0 0 0-.553-.079c-.033 0-.066.007-.099.007-1.021-2.763-1.909-4.697-2.818-7.21-.006.132-.5-1.217-.441-.855-1.093-2.605-1.725-4.848-2.304-5.723-.481-1.184-.507-1.434-.744-2.059l.132.277-1.877-4.52c-.362-.815-.513-.901-1.119-2.387.237.46-.02-.132-.263-.691.158.349.217.46-.066-.283a6.602 6.602 0 0 1-.197-.395c0-.006-.007-.039 0-.026-.395-.921-.349-.75-.172-.329-.013-.02-.006.02.04.158-.356-.974-1.139-2.651-1.119-2.796l-3.127-6.973c-.079-.263.184.25.48.908l-.711-1.618c.053-.007.428.921.659 1.421-.758-1.974-1.798-3.96-2.7-6.249l-.243-.461-.053-.131c-.013.013-.263-.481-.408-.816-.086-.342.105-.02-.349-1.145l-1.382-3.749c.184.658.098.46 0 .177-.178-.592-.231-.934-.395-1.381l.032-.066c-.032-.033-.131-.348-.25-.704l-.303-1.039c-.039-.349.277.908.349 1.053-.592-2.369-.349-1.171-.882-3.553-.329-1.263-.006.244-.197-.355-.264-1.118-.514-2.223-.698-3.532l.013.421c-.309-1.665-.487-2.809-.592-3.927l-.606.23c.158 1.25.349 2.421.566 3.631a78.26 78.26 0 0 0 2.186 8.861 69.85 69.85 0 0 0 2.62 7.157l3.055 7.137 3.969 9.209c.672 1.382 1.646 3.895 2.383 5.539l.218.658c.263.566.546 1.237.75 1.829l-.026-.033c.375.855.724 1.842.922 2.263l-.027-.033.415 1.052-.092-.171a124.293 124.293 0 0 1 1.751 4.44l.007-.131c1.086 2.96 1.612 3.993 2.567 6.67l-.026-.033.23.54a1.314 1.314 0 0 0-.54.703 1.238 1.238 0 0 0-.066.31l-.032.217c-.02.131-.027.263-.04.381a14.33 14.33 0 0 0 .04 2.921c-.002.147.021.294.065.434a49.29 49.29 0 0 0 .31 3.408s.131 1.026.395 2.368c.263 1.342.678 2.94 1.132 4.196.165.415.461.704.757.869.242.138.512.219.79.237.448.013.606-.112.487-.171-.065-.053-.296-.079-.579-.231.184.053.382.079.566.066l2.436-.362c-5.925 1.494.184.823.184.823 3.661-.329 5.498-.875 9.81-1.579 3.805-.513 4.838-.487 8.769-1.145 1.882-.263 3.884-.592 5.714-.894.856-.263 2.409-.356 3.423-.625l.408.019a5.99 5.99 0 0 1 1.12-.197l-.02.026c.526-.131 1.119-.197 1.382-.263l-.019.027.645-.106-.106.046c.922-.197 1.87-.342 2.713-.44l-.086-.086a19.43 19.43 0 0 0 2.107-.302l.902-.152.5-.066c.097-.008.194-.019.29-.032.131-.02.276-.046.421-.092l-.026.032c.737-.329 1.158-1.078 1.132-1.736.066-.119.033-.283.013-.395h-.013ZM83.602 179.836l-.803-.559-4.214 1.361-11.086 3.474-.342.046c-.165-.04-1.975.75-2.272.769l-.836.303c-.243.066-.75.197-.329.046l-1.356.461-.856.217c-3.107.934-5.695 1.861-8.953 2.874-3.937 1.132-11.258 3.552-15.471 4.934-5.267 1.789-11.429 3.473-16.985 5.275-.053-.092-.105-.197-.171-.276a1.44 1.44 0 0 0-.33-.329l-.243-.197c-.151-.132-.31-.276-.46-.414a10.953 10.953 0 0 1-1.7-2c-.566-.987-1.316-2.421-1.75-4.013a13.39 13.39 0 0 1-.448-2.381 8.861 8.861 0 0 1-.013-2.085 5.964 5.964 0 0 1 .823-2.461c.46-.776 1.106-1.427 1.817-2.138.184-.197.349-.342.56-.697.045-.099.085-.197.111-.283 4.674-2.092 7.67-3.618 13.772-6.446l13.957-6.328 9.105-4.145c1.053-.526 11.6-5.012 14.075-7.038l-.46-.658c-3.141 2.118-10.877 5.677-11.39 5.887-.816.362-.908.513-2.383 1.119.46-.244-.132.019-.691.263.349-.158.46-.217-.284.066-.098.065-.25.131-.395.197-.006 0-.039.006-.02 0-.908.414-.743.355-.315.178-.013.013.026.006.151-.04-.968.362-2.633 1.171-2.778 1.164-2.726 1.25-4.635 2.237-6.88 3.316-.263.085.25-.184.896-.507l-1.6.75c-.007-.052.909-.447 1.402-.691-1.948.81-3.91 1.895-6.188 2.855l-.448.25-.131.053c.013.013-.474.276-.804.434-.342.105-.026-.105-1.132.408-.895.362-2.482 1.164-3.62 1.723.618-.276.434-.164.17-.026-.553.263-.888.362-1.316.579l-.066-.026c-.066.079-1.462.723-1.646.835-.33.105.843-.434.974-.526l-3.337 1.539c-1.166.592.243-.046-.303.263-1.053.494-2.041 1.007-3.265 1.526l.395-.131c-1.956.94-3.134 1.48-4.477 2.039l-.922.46c0-.046 0-.098-.013-.151a1.364 1.364 0 0 0-.691-.987.946.946 0 0 0-.29-.118l-.21-.066c-.132-.046-.25-.065-.37-.112a16.478 16.478 0 0 0-2.883-.499c-.118-.033-.44-.033-.44-.02a42.335 42.335 0 0 0-3.411-.316s-1.034-.066-2.396-.046c-1.37.013-3.015.132-4.345.342a1.699 1.699 0 0 0-.988.592c-.21.263-.329.513-.375.724-.099.434 0 .618.079.513.066-.066.132-.276.33-.526a1.64 1.64 0 0 0-.166.539l-.092 2.454c-.382-6.105-.842.026-.842.026-.343 3.657-.145 5.565-.244 9.933-.197 3.835-.408 4.848-.48 8.815-.086 1.894-.119 3.92-.172 5.775.106.882-.092 2.434-.013 3.487l-.092.394c.026.362.033.79-.02 1.138l-.02-.066c.04.54-.02 1.138 0 1.408l-.02-.02-.012.658-.027-.118c.022.917 0 1.835-.066 2.75l.1-.066a20.665 20.665 0 0 0-.093 2.124l-.013.921c-.013.158-.013.329-.026.507-.007.092-.02.197-.02.289-.009.143-.004.286.013.428L0 221.778c.184.789.856 1.335 1.494 1.427.144.023.29.034.435.033l.31.014.638.032c.856.027 1.725.033 2.804-.263-.263.066.132.033.106.066 1.014-.178 2.087-.566 2.04-.75l.613-.223c.092-.027.099.006.178 0-.007-.066.526-.56.869-1.027l-.152.231c.369-.435.672-.888.988-1.342l-.316.177c.526-.684.283-.066.71-.789l-.111-.066c.658-.987 1.172-1.493 1.823-2.447 2.37-4.144 4.247-8.894 6.32-12.794l.165-.132c.164-.013.33-1.184.513-1.289l.158-.494c.086-.118.23-.381.158-.131.198-.428.198-.461.297-.79a1.59 1.59 0 0 0 .158-.282c.046-.099.085-.211.131-.329.066-.263.053-.553.014-.829.309-.099.625-.198.921-.309-.066.033-.092.065-.507.197 1.304-.421 3.081-1.02 3.2-.987l9.46-3.091-.132.065c1.12-.427 1.475-.48 2.732-.921.066-.013.165-.039.152-.033 1.218-.46 3.62-1.157 4.608-1.512l.08.019 2.468-.789-.922.283c.29-.217 1.896-.527 3.667-1.165 1.679-.526 3.331-1.315 5.09-1.815.815-.329-.705.329.526-.119.066.046-.573.224-.23.165 1.217-.415 2.02-.566 3.508-1.085l.066.026c1.936-.704 3.726-1.118 5.003-1.599 2.015-.677 1.403-.289 3.49-1.052l.836-.198c.908-.276.619-.282 1.626-.565-.046.066 1.277-.362.704-.145 2.285-.658 4.576-1.546 7.59-2.368.626-.29 2.14-.711 2.608-.921.092.007 3.008-.941 1.343-.342-.145.053-.395.131-.395.112l-.185.105c1.725-.447 3.075-1.02 4.76-1.539-.5.144-1.165.355-.724.184l1.567-.487-.316.132.671-.198-.006.007Z"/><path fill="#fff" d="M2.126 184.704c-.085.684-.105 1.302-.105 2.328l.066-.197c-.066.625-.04 1.158-.046 1.71.046.296.079-.434.105.185l-.053 1.736c-.033-.066 0-.684-.052-.526.026.112-.007.987.066.868l-.066.02c.013.224-.04.395-.053.678.007.144.033.25.053-.066l-.02 1.907c-.02.579-.066.395-.132.566 0 .178.027.441.04.434v.066l.033.25c-.132 1.164.006 2.237-.112 3.223 0-.263.04-.723-.013-.743l-.014.835c-.006-.342-.026-.618-.065-.486l-.014 3.618c-.065.052-.052.934-.118 1.42.013-.065.026-.085.033-.065.013-.224.033-.296.026.171 0-.007-.006.006-.013.013.007.066.007.158.02.21-.04.369-.053.316-.066.132-.013.283-.013.592-.046.342-.053.75.046.822.053 1.25l-.066 2.302-.007-.145c-.02.316-.092.428-.099 1.027.211.493-.052 1.578-.026 2.914.08-.171.026.513.08.46-.113 1.283-.02 2.303-.133 3.75l-.006-.066c-.066.395-.066 1.355-.027 1.684-.046-.197-.085.5-.131.237.066.289-.013 1.559-.013 1.559-.08.237-.046 1.184-.119 1.763l.066.769-.053-.276c-.013.395-.052.48-.066.309-.013.178-.006.283.007.546-.02-.026-.026-.079-.04-.118-.032.441.165.513.093.263.131.342.197.375.237.46.046.066.085.178.395.198.066-.02.118-.066.177-.092l-.065.033h.112c.79-.033.302.131 1.21.026l.02.053c.047-.007.086-.014.093-.027-.007-.02-.02-.026-.04-.046l.224-2.447c.013-.592-.053.224-.079-.066-.04-.644.066-.835.105-1.401l-.065.151.085-1.157.033.164.046-.776c-.026-.224-.033.112-.066.355.066-.835-.052-1.533.08-2.368l.045.105c-.013-.013-.02.119-.02.198.034.842.08-.619.12-.658-.053-.244.039-.987-.027-1.316.184-1.473.085-2.631.197-3.749.027.289.053-.369.093-.329.052-.494-.04-.369-.007-.822l.086-.395c-.04-1.053.131-.711.131-1.71-.052-.658.145-1.513.099-2.487l.053-.026c0-.75.105-1.119.105-1.737.066-.151.02.151.079.132-.013-.619.092.164.066-.25.105-.856-.132-1.73-.066-2.566-.033-.894.197-1.644.092-1.822l-.033.46.053-1.223.046-.033.066-2.302c0 .006.006-.04.026-.066-.006-.632.066-.789.02-1.362l.02.066c-.066-1 .079-3.157.131-4.703.066-.046.086-.934.106-1.579-.014.197.026.224.033.263-.033-.895.17-1.862.131-2.796l.007.033c.052-.355.006-1.434.131-1.598l.007-1.579.02-.434.006-.23v-.086c.04-.177-.04-.131-.302-.145l.065-.026-1.645-.053c-.395-.019-.725.198-.922.408a1.688 1.688 0 0 0-.33.441c-.06.135-.098.28-.111.428l-.066 2.006c-.026.48-.013 1.026.007 1.677l.02-.052Zm10.488-4.171-.02-.006c-.086.158-.119.25-.066.394-.119-.013-.053.132-.099.158l-.006-.006c.052.131-.132.177-.092.296-.007-.007-.033-.014-.027-.04-.006.066-.013.171-.085.158-.046.171-.152.382-.1.526h-.012c.046.086-.02.079-.013.158-.007 0-.014.007-.02 0 .04.092-.066.198-.066.25h-.04l-.052.132.026-.04c.099.066-.112.066-.085.184-.066.079.131.283.032.342.027.066-.065-.078-.065 0-.066-.026-.02-.052-.066-.065-.007.065-.112.065-.112.158l-.04-.02c.02.131-.164.131-.131.243-.027.112-.158-.013-.145.132h-.08c-.039.033.047.066-.012.105-.033-.033-.066.04-.08-.013-.118.066-.065.263-.263.302.04.079-.046.106-.02.165-.026-.02-.111.118-.105-.007.007-.006.007-.019.02-.006l-.026-.04c-.132.007-.066.145-.145.198.033-.007.053-.033.066.006l-.066.053-.013-.046-.106.066.046.026c-.065.02-.131-.026-.131.066 0 .046.092.019.052.065-.085.02-.21.053-.302.099.04.04.02.053 0 .086l-.027-.04c-.046.132-.092-.066-.151.04l-.013-.033.026.098c-.026.132-.099-.065-.119.112.033-.033.066.079.02.092v-.052c-.02.019-.02.046-.04.046.007-.027-.032-.066-.065-.033l-.007-.066-.026.112c-.079-.013-.145.092-.198.046 0 0-.131.033-.131.118 0-.052-.08-.032-.066-.092-.007.066-.086.145-.145.119l.007-.007c-.165.013-.21.197-.369.178.033.052-.053.052-.013.105-.105.132-.31-.039-.263.197-.066.033-.093-.019-.132-.013v-.02c-.112.066-.152.066-.237.106-.04.033-.007.131-.099.131.013-.046-.02-.026-.046-.019.013-.014.02-.027-.033-.047 0 .014-.006.02-.013.033 0-.006 0-.006-.007-.013-.046.033-.033.04-.006.04 0 .006.006.013.013.019-.066-.032-.145.053-.171-.013-.145.066-.237.165-.356.23-.026-.032-.006-.065.027-.092l-.086.04c-.013-.053.046-.046.066-.066-.132-.053-.198.145-.349.105l-.02.046c.007.02-.013.053-.033.066-.026-.039-.026-.105-.085-.085-.066-.027-.132.052-.198.098.033 0 .033.027.027.046-.033.014-.066-.033-.08-.006l-.013-.066c.027.053-.065.079-.065.112-.027-.04.04-.046.04-.086-.133.033-.067.013-.198.053-.053.066.026.053.006.118-.066.027-.112.079-.197.066l.033.053c-.112.066-.178.066-.264.033-.395.302-.428.447-.355.539.085.086.263.099.263.099.375.066.527-.132.922-.263.368-.066.487.019.856-.132.177-.046.362-.132.526-.197.053-.112.224-.079.303-.178l.053.033c.02-.033.066-.066.098-.066v.013c.04-.052.1-.065.119-.079v.014l.066-.027v.02a.52.52 0 0 1 .243-.132l-.033-.052c.198-.013.198-.145.382-.151v.013c.119-.224.33-.053.461-.283-.02.026.02.02.027.033.065-.066.17-.119.111-.224.066-.033.066-.007.1.033-.027-.04.019-.092.065-.132l-.007.033.132-.098-.079-.066c.086-.02.08.085.132.02l-.046-.066c.098-.053.223 0 .355-.027.421-.276.619-.789.988-1.052l.066.02c.065.046-.027-.171.039-.132v-.066c.02 0 .053-.019.053.013.026-.039.02-.039.02-.092l.065-.013c.132-.131.132-.329.25-.48.211-.151.33-.592.362-.842.027-.362.481-.631.461-1.02.014-.006 0-.046-.006-.046l.105-.309c0-.026.356-1.552-.58-.552l-.012.006Zm5.346 21.537c-.165-.132-.159-.263-.37-.342-.085-.066-.197-.105-.289-.145-.086.046-.118-.066-.197-.046l.006-.052c-.033.013-.066.006-.066-.02l.013-.013c-.046.013-.065-.02-.079-.014l.014-.013-.033-.013h.013c-.066 0-.112-.02-.132-.066l-.033.053c-.052-.105-.145-.033-.184-.145l.013-.013c-.178.066-.099-.184-.276-.131.026-.007.006-.033.02-.04-.053-.013-.113-.039-.172.053-.033-.02-.006-.046.013-.086-.026.046-.066.04-.092.027l.026-.007-.079-.033-.039.092c-.026-.046.046-.098.007-.105l-.04.066c-.046-.046-.02-.171-.04-.25-.21-.171-.552-.158-.69-.395l.02-.066c.045-.066-.133.066-.093 0l-.046.013c0-.013-.007-.039.02-.046-.02-.013-.027-.006-.066.007l.006-.066c-.066-.085-.197-.066-.276-.131-.053-.165-.316-.217-.474-.244-.237 0-.25-.414-.507-.394 0-.014-.026-.007-.033.006l-.151-.112s-.75-.526-.547.448v.013c.066.098.112.131.224.092-.053.105.066.052.066.105l-.007.007c.099-.04.066.131.158.098-.006.007-.026.033-.04.027.047.013.113.019.08.079.098.039.197.151.329.092l-.013.013c.066-.04.046.02.105.013-.006.007 0 .013-.006.02.065-.04.111.066.158.046l-.02.033.079.033-.027-.027c.08-.098.014.099.106.066.04.046.23-.151.25-.066.053-.033-.066.066-.007.053-.033.053-.04.02-.066.066.047 0 .027.092.086.079l-.026.046c.105-.04.066.118.151.065.08 0-.04.145.066.106l-.007.065c.027.027.066-.065.066-.013-.02.033.02.053-.02.079.027.092.185.007.211.158.066-.066.08.013.132-.033-.013.033.085.066-.007.092-.006 0-.013 0-.006-.013l-.027.04c-.006.105.119.013.152.065-.007-.026-.027-.032 0-.052l.04.033-.034.026.053.066.02-.046c.013.046-.013.131.066.085.04-.02.006-.079.046-.066.026.053.066.145.112.198.026-.053.04-.04.065-.046l-.026.046c.099-.02-.04.105.046.092l.046-.053c.106-.052-.026.106.106.033-.033-.006.046-.099.065-.066l-.033.033c.02 0 .04-.013.047.007-.02.013-.04.066-.014.066l-.046.039.086-.046c.006.066.092.046.066.112 0 0 .052.066.112.02-.04.026-.014.065-.046.105.046-.033.131-.033.111.026h-.006c.053.099.184.026.224.132.026-.053.052 0 .079-.066.112-.013.066.217.21.046.04.013.014.066.027.092l-.013.007c.065.026.098.033.144.065.033-.006.093-.092.132-.039-.04.026-.013.033 0 .039-.013 0-.026.007-.02.046.014-.013.014-.013.027-.019h-.007c.033 0 .04-.007.026-.027.007-.006.014-.013.014-.026 0 .066.079.046.046.112.092.039.197.02.263.033a.073.073 0 0 1-.066.052l.066.02c-.026.046-.046.007-.066.007.013.105.165.006.198.112l.04-.027c.012-.019.045-.039.065-.033-.013.046-.066.093-.026.106.006.052.085.033.131.026-.013-.013.007-.039.02-.039.02.006.007.052.026.046l-.032.052c.026-.052.065-.026.098-.039-.013.046-.052.019-.066.046.066.039.033.013.106.052.066-.013.026-.052.066-.092.04.007.098-.006.105.046l.013-.052c.086 0 .112.026.119.105.684-.099.42-.461.42-.461-.118-.21-.295-.131-.526-.223l-.033.013Zm-1.923 4.243c-.165-.132-.158-.263-.369-.342-.085-.066-.197-.105-.29-.145-.085.046-.118-.066-.197-.046l.007-.053c-.033.014-.066.007-.066-.019l.013-.013c-.046.013-.066-.02-.079-.014l.013-.013-.033-.013.014-.013c-.066 0-.112-.02-.132-.066l-.033.053c-.053-.105-.145-.033-.184-.145l.013-.013c-.178.066-.099-.184-.277-.132.027-.006.007-.033.02-.039-.053-.013-.112-.04-.171.052-.033-.019-.007-.046.013-.085-.026.046-.066.039-.092.026h.026l-.079-.033-.04.092c-.026-.046.047-.098.007-.105l-.04.066c-.045-.046-.019-.171-.039-.25-.21-.171-.553-.158-.691-.395l.02-.065c.046-.066-.132.065-.092 0l-.046.013c0-.013-.007-.04.02-.046-.02-.013-.027-.007-.067.006v-.066c-.065-.085-.197-.065-.276-.131-.053-.165-.316-.217-.474-.243-.237 0-.25-.415-.507-.395 0-.013-.026-.007-.033.006l-.151-.111s-.75-.527-.547.447l-.013.013c.066.099.112.132.224.092-.053.105.066.053.066.105v.007c.098-.039.066.132.158.099-.007.006-.027.033-.04.026.046.013.112.02.08.079.098.039.197.151.328.092l-.013.013c.066-.039.046.02.106.013.065-.026.112.066.158.066l-.02.033.079.033-.027-.026c.08-.099.014.098.106.065.04.046.23-.151.25-.065.053-.033-.066.065-.007.052-.032.053-.04.02-.065.066.046 0 .026.092.085.079l-.026.046c.105-.04.066.118.151.066.08 0-.04.144.066.105l-.006.066c.026.026.065-.066.065-.013-.02.032.02.052-.02.079.027.092.185.006.211.157.066-.065.08.014.132-.032-.013.032.085.065-.007.092-.006 0-.013 0-.006-.014l-.027.04c-.006.105.119.013.152.066-.007-.027-.026-.033 0-.053l.04.033-.034.026.053.066.02-.046c.013.046-.013.132.066.086.04-.02.006-.079.046-.066.026.052.066.144.112.197.026-.053.04-.039.066-.046l-.027.046c.099-.02-.04.105.046.092l.046-.052c.106-.053-.026.105.106.032-.033-.006.046-.098.066-.065l-.033.033c.02 0 .04-.014.046.006-.02.013-.04.066-.014.066l-.046.039.086-.046c.007.066.092.046.066.112 0 0 .053.066.112.02-.04.026-.013.066-.046.105.046-.033.131-.033.112.026h-.007c.053.099.184.027.224.132.026-.053.052 0 .079-.066.112-.013.066.217.21.046.04.013.014.066.027.092l-.013.007c.066.026.098.033.145.066.032-.007.092-.092.131-.04-.04.027-.013.033 0 .04-.013 0-.026.006-.02.046.014-.013.014-.013.027-.02v.007c.033 0 .04-.007.026-.027.007-.006.013-.013.013-.026 0 .066.08.046.046.112.092.039.198.02.264.033a.073.073 0 0 1-.066.052l.066.02c-.027.046-.046.007-.066.007.013.105.164.006.197.112l.04-.027v.007c.013-.02.046-.04.066-.033-.014.046-.066.092-.027.105.007.053.086.033.132.026-.013-.013.007-.039.02-.039.02.007.006.053.026.046l-.033.053c.027-.053.066-.027.099-.04-.013.046-.053.02-.066.046.066.04.033.013.105.053.066-.013.027-.053.066-.092.04.006.099-.007.106.046l.013-.053c.085 0 .112.026.118.105.685-.098.422-.46.422-.46-.132-.197-.303-.118-.527-.217h-.033Zm61.29-57.414c.442-.671.64-.789 1.034-1.533l.593-1.052c.026-.198.263-.434.316-.658l.086-.046a.413.413 0 0 1 .111-.211v.014c.027-.112.112-.211.132-.264v.014l.066-.119v.033a2.07 2.07 0 0 1 .276-.506l-.065-.02c.25-.29.223-.474.46-.724l.007.013c.092-.447.441-.526.553-.986-.013.066.04-.007.046.006.092-.184.198-.375.105-.44.08-.132.093-.086.132-.079-.04-.027.007-.145.066-.25l-.013.052.158-.296-.112.007c.112-.132.118.02.197-.132l-.066-.039c.132-.198.316-.263.488-.441.54-.829.921-1.842 1.514-2.565l.066-.007c.079.026.026-.283.112-.263l.02-.112c.026-.02.065-.066.065-.006.053-.086.046-.093.066-.165l.099-.066c.237-.315.329-.658.553-.986.349-.369.744-1.211.974-1.698.283-.71 1.027-1.282 1.297-2.019.026-.013.033-.086.026-.092l.376-.592s1.797-2.908-.145-1.053l-.007-.026c-.237.309-.375.506-.434.789-.119-.019-.171.263-.25.329v-.013c-.047.25-.317.375-.363.612 0-.013-.026-.033 0-.079-.065.151-.17.355-.23.329-.197.348-.5.802-.54 1.072l-.006-.026c-.014.158-.086.164-.132.329-.013 0-.02.013-.026.006-.02.171-.23.395-.264.526l-.04-.013-.15.263.065-.092c.086.099-.184.165-.237.395-.132.171-.006.5-.171.658-.007.118-.033-.132-.066.033-.066-.027.007-.086-.066-.066-.052.145-.184.184-.25.368l-.046-.019c-.053.263-.296.368-.31.552-.098.237-.21.066-.263.349l-.112.052c-.065.093.027.112-.065.198-.033-.027-.112.118-.106.033-.197.21-.224.546-.513.809.026.112-.112.25-.092.329-.033-.007-.198.329-.158.098.006-.019.02-.046.033-.039l-.027-.046c-.197.131-.158.362-.283.526.046-.046.086-.118.086-.053l-.106.165-.013-.066-.171.237.066-.007c-.099.112-.198.112-.217.283-.007.086.131-.079.065.066a4.853 4.853 0 0 0-.46.572c.065.007.026.066 0 .132l-.047-.02c-.078.263-.144.026-.23.276l-.02-.039.053.112c-.04.25-.151.052-.171.348.046-.092.118.014.033.112l-.027-.052c-.026.065-.02.092-.052.131 0-.046-.046-.052-.092.04l-.014-.092-.026.21c-.118.105-.197.329-.276.355 0 0-.198.263-.172.362-.006-.079-.111.066-.131-.006 0 .098-.092.328-.198.394l.007-.02c-.237.283-.263.573-.487.823.066.019-.066.151.026.151-.112.329-.448.46-.316.678-.066.131-.132.131-.198.197v-.04l-.29.514c-.039.105.047.171-.078.328-.007-.065-.04-.006-.066.066.02-.039.013-.066-.066.007.007.02 0 .039-.006.066h-.014c-.052.111-.026.098.007.052.007.007.013.007.033 0-.112.079-.178.296-.244.276-.17.316-.243.579-.375.856-.046.006-.04-.066-.006-.152l-.1.198c-.045-.027.04-.119.067-.184-.198.171-.198.493-.422.703v.079c.02.013.013.086-.006.132-.066.013-.093-.066-.165.066-.099.079-.151.296-.21.44.046-.065.065-.033.052.007-.04.066-.099.079-.112.132l-.066-.027c.066.007-.046.198-.04.237-.065.013.027-.118.007-.151l-.223.381c-.04.158.065.007.065.099-.065.131-.092.263-.21.381l.066-.013c-.1.244-.185.375-.33.5-.625 1.908.316.671.316.671.481-.592.547-1.006.988-1.815l.033-.053Zm26.071 7.539-.046-.132c-.007.007 0 .039.046.132Zm-16.412-28.964c-.007-.007-.014-.013-.02-.026.013.019.02.026.02.026Zm14.562 24.142h.007l.019.026-.026-.026Z"/><path fill="#fff" d="m104.806 157.47-1.909-3.572-1.336-2.289c-.263-.309-.553-.967-.856-1.348l-.053-.184a1.562 1.562 0 0 1-.263-.448h.02c-.152-.197-.277-.447-.349-.546h.02l-.152-.263.04.033c-.25-.355-.461-.737-.659-1.079l-.032.066c-.363-.757-.62-.96-.922-1.645h.02c-.606-.749-.659-1.348-1.284-2.124.079.098 0-.066.013-.066-.244-.382-.494-.789-.593-.743-.164-.283-.105-.25-.092-.31-.04.027-.197-.21-.329-.427l.08.092-.396-.625-.006.171c-.178-.349.046-.145-.165-.46l-.066.046c-.263-.474-.329-.803-.54-1.283l-3.344-5.592.007-.105c.052-.066-.382-.421-.356-.526l-.145-.184c-.02-.066-.066-.198 0-.099-.099-.197-.118-.197-.21-.316l-.066-.23c-.376-.77-.81-1.355-1.212-2.171-.414-1-1.415-2.762-1.975-3.802-.836-1.427-1.35-3.302-2.172-4.782a.48.48 0 0 0-.105-.171l-.613-1.414-1.237-2.763c-.494-1.053-.843-1.408-.086 1.368l-.033-.026c.283.802.487 1.296.803 1.796-.066.131.264.644.316.842v-.014c.29.441.369 1.007.645 1.428-.013-.013-.046-.013-.098-.112.164.329.395.77.342.822l1.205 2.349-.033-.027c.197.263.184.369.375.671 0 .02.007.046 0 .046.217.277.461.902.606 1.138l-.033.033.316.612-.105-.23c.144.026.164.5.46.908.198.421.659.723.823 1.184.158.177-.177-.132.027.144-.053.04-.112-.131-.112-.019.184.282.197.526.434.875l-.033.039c.33.441.428.941.678 1.217.303.474.053.395.422.868l.052.23c.112.224.158.119.264.375-.046.007.145.329.033.198.263.579.704 1.072 1.04 1.842.164.111.329.5.46.579-.02.039.422.723.12.361-.027-.033-.067-.092-.047-.098l-.066-.027c.165.461.48.724.711 1.119-.066-.132-.158-.283-.066-.198l.218.375-.08-.066.317.566v-.105c.131.283.131.421.368.691.119.118-.098-.29.093-.014l.724 1.421c.02-.065.092.053.184.178l-.033.039c.349.461.013.237.349.698l-.053-.027.165.079c.342.395.053.29.46.711-.118-.198.04-.145.165.105l-.079-.039c.086.131.132.164.171.263-.065-.066-.085-.007.04.184l-.132-.099.29.329c.132.309.441.724.448.882 0 0 .329.624.474.723-.112-.099.066.244-.033.178.131.131.447.579.507.789l-.027-.033c.356.724.757 1.151 1.054 1.809.033-.066.197.29.21.171.435.612.547 1.25.876 1.382.178.289.151.375.23.526l-.052-.066.658 1.118c.132.198.244.171.434.553-.105-.099-.013.046.066.184-.052-.085-.085-.105-.006.092.026.02.052.053.079.086 0 0 0 .013-.007.013.145.224.132.178.079.066.007 0 .013-.013 0-.053.086.263.382.658.329.724l1.1 1.697c.006.085-.099-.033-.198-.198l.244.395c-.046.02-.158-.217-.237-.329.197.527.638.954.895 1.566l.105.099.014.039c.019-.013.118.099.171.178.006.105-.099.046.066.329.085.243.375.618.559.901-.079-.158-.033-.132.02-.066.079.132.086.243.165.342l-.047.046c.02-.085.264.329.316.375.007.105-.158-.197-.21-.217l.487.842c.211.276.02-.086.151.033.158.263.343.5.481.822l-.007-.131c.316.48.481.789.619 1.144 2.482 3.506.975.487.975.487-.725-1.553-1.284-2.237-2.305-3.947l-.033.026Zm3.575-48.152c-.052.349-.066.573-.006.829-.119.033-.04.309-.086.395l-.006-.007c.065.244-.132.461-.086.691-.007-.006-.04-.02-.033-.066-.007.165-.013.395-.086.395-.046.395-.177.908-.131 1.184l-.013-.02c.039.152-.033.185-.033.342-.013.007-.02.02-.02.014.033.164-.092.44-.099.572h-.046l-.066.302.04-.111c.105.065-.132.197-.119.44-.066.198.119.481 0 .671.027.119-.066-.118-.066.046-.065-.013-.019-.079-.079-.065-.019.157-.131.217-.158.407l-.046-.006c.007.263-.197.421-.184.592-.046.25-.197.112-.197.395l-.099.065c-.046.106.046.106-.027.211-.039-.02-.092.131-.098.052-.165.237-.119.573-.369.869.046.105-.066.263-.039.342-.04-.007-.152.342-.132.118 0-.019.013-.046.026-.039l-.033-.04c-.164.158-.105.375-.21.553.039-.046.065-.132.079-.066l-.093.171-.019-.052-.145.249.066-.013c-.086.119-.185.119-.198.296.007.086.119-.092.066.053-.105.158-.283.381-.428.572.066.007.026.066 0 .132l-.046-.02c-.066.25-.132.026-.224.263l-.02-.039.053.112c-.033.25-.151.052-.164.342.039-.092.118.019.026.111l-.02-.052c-.033.066-.026.092-.066.131 0-.046-.046-.052-.098.033l-.014-.085-.039.197c-.132.092-.211.316-.296.329 0 0-.198.237-.198.329.007-.079-.118.046-.132-.026-.013.092-.131.302-.237.342l.007-.02c-.263.23-.329.526-.592.697.052.027-.086.132-.007.152-.184.289-.527.328-.461.572-.105.112-.171.079-.237.131l.02-.033-.415.395c-.066.086-.006.184-.171.276.02-.065-.033-.013-.092.027.033-.033.033-.053-.066-.02 0 .02-.013.04-.026.053-.093.079-.066.065-.02.046 0 .006.013.013.033.006-.132.033-.264.211-.329.165l-.659.625c-.046-.013-.006-.079.053-.132l-.165.132c-.026-.046.079-.092.132-.132-.25.066-.375.362-.671.441l-.033.066h-.02c.013.019-.026.079-.066.105-.066-.02-.053-.092-.171-.013-.119.019-.264.177-.395.263.066-.033.066 0 .04.033-.066.033-.12.013-.159.066l-.032-.053c.052.039-.132.145-.152.177-.066-.019.086-.085.079-.131l-.395.197c-.119.112.053.04.007.132-.119.066-.224.171-.382.197l.066.033c-.224.132-.369.197-.553.211-.817.552-.922.697-.75.763.184.052.572-.04.572-.04.79-.164 1.119-.48 1.922-.947l.856-.408c.244-.112.481-.243.816-.513.349-.217.672-.526.975-.77.098-.177.395-.348.526-.546l.099-.019a.475.475 0 0 1 .171-.171l.007.013c.066-.099.171-.178.197-.23l.007.013.092-.106v.033c.112-.171.263-.329.395-.44l-.053-.027c.33-.23.31-.434.593-.644v.013c.171-.428.527-.474.678-.941-.02.066.04 0 .046.007.112-.185.231-.369.132-.434.092-.132.099-.079.151-.066-.039-.027.02-.145.066-.25l-.013.066.158-.303h-.112c.112-.132.118.02.197-.132l-.065-.039c.131-.197.316-.276.493-.461.244-.44.435-.934.626-1.407.178-.48.355-.941.592-1.349l.066-.02c.086.014-.02-.282.066-.289v-.118c.026-.027.066-.079.066-.02.039-.092.026-.099.026-.178l.086-.085c.177-.355.184-.711.329-1.099.263-.441.421-1.381.48-1.921.053-.763.553-1.578.507-2.381a.124.124 0 0 0-.013-.092l.086-.71.026-.829h-.658l.039-.027Z"/><path fill="#fff" d="M120.146 167.022c-.54-1-.896-1.612-1.383-2.237.033-.164-.461-.802-.572-1.052l.019.019c-.428-.546-.671-1.249-1.079-1.789.019.02.052.013.131.145-.263-.408-.625-.967-.592-1.026l-1.89-2.96.04.032c-.277-.328-.29-.46-.566-.855l-.013-.052c-.297-.362-.698-1.145-.922-1.448l.026-.046-.48-.789.164.296c-.164-.039-.289-.631-.698-1.164-.302-.54-.855-.954-1.145-1.54-.198-.236.217.185-.053-.184.046-.046.145.165.132.04-.263-.375-.329-.671-.645-1.132l.033-.046c-.448-.579-.646-1.21-.968-1.578-.415-.625-.132-.507-.612-1.132l-.099-.296c-.158-.296-.198-.164-.356-.5.046 0-.21-.421-.065-.263-.369-.756-.948-1.421-1.409-2.434-.198-.164-.435-.671-.573-.789.013-.046-.56-.967-.178-.461.033.046.079.132.066.132l.079.039c-.237-.592-.619-.967-.922-1.513.079.171.198.382.099.25l-.29-.506.099.085-.415-.756.014.131c-.198-.381-.198-.552-.488-.921-.144-.164.132.382-.092 0l-.974-1.907c-.013.085-.112-.086-.217-.25l.033-.046c-.435-.632-.046-.296-.461-.921l.066.039-.198-.131c-.421-.546-.099-.369-.579-.967.151.263-.027.177-.185-.158l.086.066c-.105-.171-.158-.224-.217-.349.079.092.092.02-.066-.237l.151.145-.355-.461c-.171-.407-.566-.986-.593-1.184 0 0-.414-.855-.579-1.006.132.145-.099-.329.02-.217-.158-.198-.527-.809-.619-1.092l.033.046-1.238-2.5c-.033.066-.224-.408-.237-.263-.5-.855-.612-1.71-.968-1.94-.197-.408-.17-.514-.263-.724l.053.092-.678-1.579c-.132-.283-.264-.289-.441-.815.105.151.013-.066-.066-.25.066.131.085.158.006-.112a.652.652 0 0 1-.085-.132c0-.006 0-.013.006-.013-.144-.329-.131-.263-.079-.105-.006-.007-.013.013-.006.066-.08-.362-.356-.954-.303-1.02l-1.007-2.5c.006-.105.099.079.197.316l-.21-.592c.052-.013.144.329.21.507-.158-.724-.573-1.421-.724-2.283l-.092-.158v-.053c-.02.007-.105-.171-.151-.289.006-.132.105-.02-.02-.434-.046-.342-.264-.921-.409-1.355.053.237.007.164-.032.066-.066-.211-.047-.343-.106-.494l.053-.033c-.04.099-.198-.526-.23-.605.02-.131.111.316.157.362l-.296-1.25c-.145-.441-.04.092-.131-.112-.093-.394-.211-.776-.264-1.25l-.026.158c-.184-.743-.244-1.197-.263-1.71l-.376-1.776h-.408l.026.658c.152 2.289.527 3.42 1.212 6.025l.355 1.467.303 1.151c.184.737.415 1.474.83 2.632l1.27 3.328c.283.474.567 1.382.876 1.96l.066.244c.112.197.23.421.302.638h-.02c.165.289.304.638.383.776l-.02-.006.171.361-.046-.052.737 1.526.033-.066c.435 1.033.711 1.349 1.1 2.289l-.02-.006c.724 1.052.856 1.828 1.593 2.92-.092-.131.007.066-.013.066.309.526.632 1.079.724 1.033.211.395.145.329.132.395.039-.027.243.296.414.592l-.092-.132.501.855-.014-.21c.237.46-.032.171.231.592l.066-.046c.342.631.447 1.052.75 1.697 1.416 2.532 3.16 5.131 4.411 7.519v.131c-.046.086.487.579.474.704l.198.25c.032.086.111.25.019.132.145.25.158.25.29.414l.112.296c.546 1.006 1.132 1.789 1.731 2.829.659 1.302 2.133 3.585 2.989 4.907 1.251 1.829 2.278 4.21 3.555 6.065a.81.81 0 0 0 .158.21l1.053 1.776 2.127 3.454c.421.658.724 1.092.757.921.02-.158-.25-.921-1.073-2.658l.006.066.027.007Zm5.266 11.354-.197-.027c.579-.131 1.034-.355 1.514-.526.237-.171-.421.026.105-.237l1.548-.526c-.047.079-.593.25-.428.263.079-.066.855-.329.724-.395l.066.093c.197-.099.362-.066.618-.165.119-.066.198-.131-.098-.053.526-.217 1.237-.572 1.665-.638.514-.177.395-.026.56-.006.151-.066.369-.198.355-.224l.066-.006.198-.132c1.079-.224 1.935-.803 2.87-.96-.224.092-.658.197-.639.282l.738-.263c-.296.132-.527.263-.395.277l3.16-1.25c.092.098.842-.263 1.303-.316-.066 0-.085-.007-.079-.02-.197.053-.276.066.132-.105-.007.007.013.007.013.013a.697.697 0 0 0 .171-.105c.343-.066.303-.026.145.039.25-.085.527-.184.329-.046.685-.184.692-.368 1.054-.526l2.054-.71-.132.065c.283-.065.421-.006.955-.197.316-.5 1.402-.474 2.554-.987-.184-.065.434-.217.355-.289 1.185-.263 2.021-.789 3.332-1.118l-.066.033a.845.845 0 0 0 .52-.218.788.788 0 0 0 .263-.427c.013.158.25-.211.244-.04-.007-.111.066-.348.066-.572a1.89 1.89 0 0 0-.014-.421c.033-.105 0-.23-.144-.552a5.32 5.32 0 0 1-.33-.895l-.408-.605.198.197c-.158-.342-.119-.441-.02-.316-.053-.164-.112-.23-.23-.46l.118.079c-.145-.441-.395-.553-.244-.211-.572-.789-.111-.559-.592-1.289l-.171-.112c-.027-.046-.046-.092-.066-.131-.02-.046-.04-.079-.033-.066.007-.026.02-.046.033-.066.026-.039.053-.099.02-.145-.013.007-.04.027-.066.046l.013-.092c-.066.046-.132.066-.086.145l-1.25.342-1.231.309c-.527.198.223 0-.014.152-.526.302-.75.223-1.27.355l.171.033-1.04.309.131-.112-.697.217c-.178.118.112.013.342-.033-.751.224-1.29.658-2.094.763l.066-.105c0 .026.112-.013.171-.046.705-.368-.572.112-.625.066-.184.171-.869.315-1.119.539-1.383.263-2.324.855-3.358 1.092.237-.151-.342.066-.329-.013-.461.099-.296.197-.704.329h-.395c-.882.46-.685.066-1.56.434-.527.329-1.383.342-2.206.77l-.053-.066c-.645.289-1.04.263-1.56.48-.171-.033.119-.085.066-.178-.527.25.086-.21-.25 0-.803.165-1.422.842-2.173 1.066-.75.395-1.54.309-1.619.546l.415-.118-1.087.381-.052-.066c-.428.198-1.514.461-2.028.75.007-.006-.039 0-.066-.006-.546.243-.724.197-1.185.48l.053-.046c-.83.46-2.765 1.052-4.148 1.546-.079-.092-.855.21-1.428.427.184-.065.184-.118.21-.144a4.698 4.698 0 0 1-1 .348c-.132.02-.316.046-.461.099a.662.662 0 0 0 .151.178l-.026-.014c0 .027.026.066.066.132.039.066.053.066.158.23.164.263.309.526.263.638.626.77 1.054 1.546 1.712 2.816l-.066-.04c.244.526.421 1.086.606 1.355.184.269.439.481.737.612.184.079.342.119.487.145.145-.013.283-.033.422-.079l1.79-.592 1.422-.658c.626-.132 1.172-.309 2.067-.684l-.033-.026Zm-53.64-19.551-.047-.21c.33.539.692.921 1.034 1.348.25.185-.171-.414.263.033l1.04 1.382c-.092-.027-.44-.527-.408-.342.099.065.62.75.632.605l-.066.085c.159.158.198.329.37.566.105.092.197.151.019-.112.395.461.974 1.053 1.185 1.474.349.46.158.381.197.559.112.131.31.309.33.289l.032.066.198.151c.593 1.013 1.448 1.691 1.91 2.566-.165-.197-.416-.592-.495-.553l.514.658c-.224-.263-.428-.447-.395-.302l2.29 2.762c-.065.119.528.763.751 1.204-.026-.066-.026-.085-.006-.085-.132-.178-.152-.263.145.105-.014 0-.007.013-.007.02.053.052.112.111.158.131.184.329.132.296.013.158.165.224.362.461.158.309.415.632.593.579.87.895l1.382 1.842-.099-.106c.171.264.151.415.527.889.592.157.941 1.249 1.823 2.256 0-.211.356.368.395.263.33.553.698.987 1.073 1.447l.573.711.283.381c.053.066.112.145.198.211h-.04c.053.105.237.21.428.223.191.013.356-.066.408-.131-.066.131.277 0 .198.131a.55.55 0 0 1 .131-.171c.047-.066.178-.21.297-.342l.46-.48c.25-.099.81-.855 1.284-1.217l.421-.658-.111.263c.263-.302.375-.309.29-.158.131-.118.177-.21.355-.421l-.026.145c.368-.329.368-.625.105-.329l.184-.302c.007-.02.02-.027.04-.033.04-.007.098-.013.131-.046a.267.267 0 0 0-.118-.079.347.347 0 0 0-.178.046c.013-.007.033-.02.053-.026-.014-.007 0 .013-.033-.02l-.086-.105a.94.94 0 0 1-.105-.158c-.046-.086-.053-.132-.066-.198-.02-.105-.04-.197-.395-.579l.046-.065c-.178-.198-.329-.408-.349-.283l-1.567-2.368c-.375-.461.08.223-.151.033-.474-.435-.48-.678-.79-1.158l.026.177-.658-.947.151.086-.46-.625c-.178-.145.026.118.151.329-.48-.678-1.08-1.086-1.462-1.842l.132.033c-.026.006.053.112.099.158.592.592-.303-.54-.283-.606-.224-.131-.606-.769-.909-.947-.737-1.289-1.645-2.052-2.218-3.013.224.198-.178-.329-.106-.342-.25-.427-.303-.237-.553-.592l-.151-.394c-.75-.737-.31-.658-.961-1.421-.5-.434-.81-1.276-1.514-1.961l.046-.065c-.5-.553-.606-.954-1.007-1.408-.027-.178.131.092.197.013-.428-.447.237.02-.086-.25-.434-.75-1.303-1.164-1.777-1.842-.639-.631-.836-1.447-1.086-1.447l.263.375-.744-.967.04-.066c-.33-.368-.962-1.368-1.429-1.789.006 0-.013-.039-.02-.066-.428-.46-.44-.658-.875-1.039l.066.033c-.725-.684-1.975-2.434-2.93-3.658.066-.098-.527-.802-.895-1.269.098.131.17.131.197.144l-.197-.21c-.033-.04-.066-.079-.086-.132l-.197-.355a1.05 1.05 0 0 0-.152.421l-.007-.026c-.065.066-.052.112-.21.5-.132.309-.263.592-.375.625-.277 1-.698 1.907-1.357 3.203v-.066c-.56.954-.46 1.908-.355 2.467l.132.527.237.394 1.184 1.612 1.12 1.223c.316.592.671 1.092 1.336 1.869l.026-.014Zm84.075 98.324-.197-.027c.625-.052 1.145-.177 1.685-.263.283-.098-.441 0 .165-.131l1.711-.263c-.066.046-.671.131-.507.151.099-.04.962-.171.843-.217l.04.066c.217-.053.395-.033.678-.079.131-.04.237-.079-.086-.04l1.87-.329c.572-.085.408 0 .579.02.171-.033.428-.099.421-.132l.066-.006.231-.079c1.165-.092 2.192-.421 3.186-.48-.263.046-.724.098-.724.151l.829-.132c-.329.066-.605.132-.461.152l3.555-.658c.066.066.922-.132 1.416-.145-.066 0-.086-.006-.079-.013-.217.026-.303.026.164-.066-.006.007.007.007.014.007l.197-.066c.369-.026.316-.007.132.026.276-.039.592-.092.349-.019.75-.086.803-.198 1.218-.283l2.284-.355-.132.032c.31-.032.435.014 1.034-.085.441-.296 1.56-.237 2.87-.507-.177-.046.501-.118.435-.164 1.284-.132 2.278-.408 3.706-.559l-.066.02c.395 0 1.343-.198 1.666-.29-.198.079.507-.006.263.079.277-.118 1.534-.263 1.534-.263.25.033 1.165-.171 1.758-.197l.744-.198-.263.099c.395-.066.48-.033.329.013.177-.02.276-.053.526-.099a.525.525 0 0 1-.112.066c.448-.052.481-.25.231-.131.316-.185.329-.264.408-.316.053-.053.158-.119.132-.428a.507.507 0 0 0-.132-.158l.046.046c-.006-.019-.013-.039-.013-.065l-.007-.046c-.171-.763.066-.329-.197-1.198l.046-.026c-.02-.039-.026-.085-.046-.085-.013.006-.026.026-.04.046l-2.449.23c-.592.099.231.013-.052.092-.626.158-.83.099-1.396.151l.165.027-1.152.131.151-.066-.77.099c-.211.066.112.013.362-.007-.83.099-1.495.329-2.344.356l.092-.066c-.006.013.119 0 .198-.02.816-.197-.619.04-.659.007-.23.092-.974.144-1.283.263-1.482.092-2.607.395-3.733.487.283-.079-.369.019-.342-.027-.494.033-.356.112-.804.158l-.414-.013c-1.027.237-.724.007-1.712.184-.632.171-1.514.132-2.462.355l-.04-.046c-.737.145-1.132.099-1.731.211-.165-.026.145-.046.118-.105-.605.131.145-.132-.263-.014-.869.066-1.679.435-2.502.527-.875.197-1.659.105-1.803.25l.46-.053-1.217.178-.04-.04-2.271.349c.006-.007-.04 0-.066-.007-.625.119-.79.086-1.35.23l.066-.026c-.968.237-3.12.5-4.654.724-.066-.066-.935.085-1.58.184.197-.026.217-.066.25-.079-.876.197-1.863.171-2.765.382l.033-.014c-.356.014-1.416.264-1.593.165l-1.561.283-.427.066-.224.026-.086.006c-.178-.013-.132.066-.085.329l-.033-.065.25 1.631c.052.395.329.671.566.835.197.132.355.198.5.263.152.033.303.046.441.033l1.989-.296 1.632-.355c.705-.02 1.317-.105 2.318-.296l-.027.007Zm-1.172-4.789c-.131-.349-.065-.487-.283-.816-.079-.171-.197-.329-.289-.487-.119-.033-.119-.21-.231-.263l.02-.066c-.039-.019-.066-.046-.066-.085l.013-.007c-.065-.026-.065-.085-.098-.098h.013l-.04-.053h.02a.64.64 0 0 1-.171-.21l-.046.039c-.046-.184-.178-.171-.211-.342l.013-.007c-.237-.065-.112-.329-.362-.394.033.006.013-.027.027-.033-.066-.066-.145-.132-.237-.066-.047-.053-.014-.066.013-.099-.04.033-.092 0-.132-.039l.033.006-.119-.105-.046.086c-.039-.079.066-.092-.006-.132l-.053.053c-.066-.092-.046-.217-.092-.342-.349-.362-.889-.461-1.218-.77l.007-.066c.026-.079-.165.066-.145-.019h-.066c-.007-.02-.026-.047 0-.053-.04-.026-.046-.013-.092 0l-.027-.066c-.158-.105-.342-.079-.526-.151-.185-.178-.645-.198-.896-.198-.362.047-.711-.355-1.092-.263-.014-.013-.046.014-.046.02l-.33-.046c-.006-.026-1.58-.099-.421.638v.02c.165.052.263.066.395-.013.007.112.132.026.171.065l-.006.007c.112-.079.197.099.309.033-.007.007-.013.039-.033.039.066-.006.178-.013.171.053.171.013.395.079.527 0l-.013.013c.079-.066.079.007.158-.013 0 .007.006.013.006.02.086-.053.198.033.264.02l-.007.046.132.026-.046-.02c.046-.112.079.099.197.053.086.039.25-.184.329-.099.066-.039-.065.066.014.053-.02.065-.047.026-.04.079.066-.007.086.092.178.079v.046c.131-.046.164.131.263.079.119.006.013.157.158.118l.013.079c.04.033.066-.066.099-.007-.02.04.046.066 0 .079.079.112.263.02.349.198.066-.053.112.026.171-.014-.013.033.132.086.02.106-.013 0-.02-.007-.013-.02l-.033.033c.033.118.158.046.224.105-.014-.026-.04-.046-.007-.066l.066.053-.04.026.086.092.02-.052c.033.066 0 .131.092.118.046-.013 0-.092.066-.066.039.079.092.198.151.263.033-.046.053-.026.079-.019l-.033.039c.132.02-.046.105.066.145l-.033.02.092-.053c.132.007-.039.105.132.099-.033-.027.066-.086.086-.033l-.047.02c.027.013.053.006.053.032-.033.007-.066.04-.02.066l-.065.02.118.007c0 .085.119.118.079.184 0 0 .066.131.132.105-.053.007-.02.079-.079.092.066 0 .158.066.131.132h-.006c.046.158.217.171.243.329.046-.04.066.039.112-.014.145.086.02.303.237.231.046.052 0 .098.007.131l-.02-.006a.718.718 0 0 1 .145.217c.039.033.132-.013.158.065-.053-.006-.026.02-.013.053-.013-.013-.033-.013-.033.04.013 0 .026 0 .033.006v.007c.039.039.046.026.039 0 .007 0 .013-.007.02-.02-.02.066.066.132.013.171.086.132.211.197.29.309-.026.033-.066.013-.099-.013l.053.079c-.046.02-.053-.033-.066-.066-.026.132.184.171.165.329l.052.007v.013c.02-.007.066.006.066.02-.033.039-.099.046-.066.098-.02.066.079.132.132.178-.007-.04.02-.033.039-.026.014.026-.019.065.007.078l-.053.027c.046-.033.092.052.119.052-.033.033-.066-.032-.092-.026l.085.178c.066.046.053-.033.112-.027.033.053.099.093.092.171l.046-.039c.086.092.106.158.079.263.362.329.527.342.593.243.066-.098.046-.282.046-.282 0-.395-.217-.5-.428-.869l-.007.04Zm13.055-13.63c-.105.197-.224.197-.263.427-.046.093-.066.211-.092.31.066.079-.053.131-.007.21l-.053.007c.014.026.02.052-.013.066l-.013-.007c.02.039-.013.066 0 .085h-.013l-.007.033-.013-.013c.013.066 0 .112-.033.151l.053.02c-.099.066 0 .152-.105.198l-.014-.007c.099.164-.164.132-.079.296-.013-.02-.032-.007-.039-.013-.007.066-.02.112.086.158-.014.039-.047.019-.086.006.046.02.053.066.046.086l-.013-.02-.02.092.092.02c-.039.033-.112-.033-.105.02l.066.026c-.04.053-.165.046-.237.085-.132.237-.053.573-.264.75l-.065-.013c-.079-.026.092.112.013.092l.026.04c-.02 0-.039.013-.053-.007-.013.027 0 .027.014.066l-.066.007c-.079.078-.013.197-.079.296-.152.085-.152.348-.152.506.04.237-.355.329-.302.572-.014 0 .006.027.013.033l-.079.171s-.376.836.54.461l.013.013c.079-.079.112-.132.052-.237.112.033.04-.066.086-.085v.006c-.066-.092.118-.092.066-.177.006.006.033.019.033.032 0-.046 0-.111.066-.092.026-.105.105-.23.032-.329l.014.014c-.053-.066.006-.053-.007-.106h.02c-.053-.065.033-.118.02-.158l.039.014.02-.079-.02.026c-.105-.053.092-.033.046-.118.033-.046-.197-.198-.112-.237-.039-.046.079.066.053 0 .066.02.026.033.079.039-.013-.052.085-.039.066-.105l.046.013c-.066-.092.105-.092.046-.164-.013-.079.151.013.092-.092h.066c.02-.027-.066-.053-.026-.066.039.02.046-.026.079.006.092-.046-.027-.177.111-.23-.065-.052-.006-.079-.052-.118.033.013.046-.092.092-.013.007.006 0 .013-.013.006l.039.027c.106-.02-.006-.119.027-.165-.02.007-.027.033-.053.007l.026-.046.033.026.053-.066-.053-.006c.04-.027.132-.007.066-.066-.026-.033-.079.006-.079-.033a.497.497 0 0 0 .165-.145c-.053-.013-.046-.033-.053-.052l.046.013c-.039-.092.112.019.086-.066l.026.02-.086-.053c-.065-.092.106.007.014-.105 0 .026-.106-.027-.066-.053l.039.026c0-.019-.02-.032-.006-.039.019.02.065.033.065 0l.047.039-.066-.078c.066-.02.026-.099.092-.093 0 0 .066-.065 0-.111.033.032.066-.007.112.026-.04-.04-.053-.118.006-.118l.007.006c.086-.066-.007-.184.086-.243-.053-.02-.007-.046-.079-.066-.033-.112.197-.099 0-.211.006-.046.065-.026.085-.039v.013a.408.408 0 0 1 .046-.151c-.006-.033-.105-.079-.066-.119.033.033.033.007.04-.006 0 .013.013.026.053.013-.014-.007-.014-.013-.02-.026h.006c0-.033-.013-.033-.026-.027-.007 0-.013-.006-.026-.006.066-.013.033-.086.098-.066.02-.099-.019-.197-.019-.263.039.006.066.033.066.066v-.066c.046.02.013.039.019.066.106-.033-.026-.165.079-.198l-.033-.033h.007c-.02-.006-.04-.032-.046-.052.046.006.099.039.112 0 .052-.013.013-.092.006-.132-.013.02-.039 0-.046-.013.007-.02.053-.013.04-.033l.066.02c-.066-.013-.04-.066-.066-.086.046.007.026.046.052.066l.04-.112c-.026-.065-.066-.013-.099-.052 0-.04-.026-.092.027-.112l-.066-.007c-.013-.079.006-.118.079-.131-.224-.658-.527-.329-.527-.329-.178.131-.066.296-.118.539l.052-.072Zm4.523 1.118c-.105.198-.224.198-.263.428-.046.092-.066.21-.093.309.066.079-.052.132-.006.21l-.053.007c.013.026.02.053-.013.066l-.013-.007c.02.04-.013.066 0 .086l-.013-.007-.007.033v-.013c.013.066 0 .112-.033.151l.053.02c-.099.066 0 .151-.105.197l-.014-.006c.099.164-.164.131-.079.296-.013-.02-.033-.007-.039-.013-.007.065-.02.111.085.157-.013.04-.046.02-.085.007.046.02.053.066.046.086l-.013-.02-.02.092.092.02c-.039.033-.112-.033-.105.019l.066.027c-.04.052-.165.046-.237.085-.132.237-.053.572-.264.75l-.065-.013c-.079-.026.092.112.013.092l.026.039c-.02 0-.039.014-.053-.006-.013.026 0 .026.014.066l-.066.006c-.079.079-.013.198-.079.296-.152.086-.152.349-.152.507.04.237-.355.329-.303.572-.013 0 .007.026.014.033l-.079.171s-.376.835.539.46l.014.014c.079-.079.112-.132.052-.237.112.033.04-.066.086-.086l.006.007c-.065-.092.119-.092.066-.178.007.007.033.02.033.033 0-.046 0-.112.066-.092.026-.105.105-.23.033-.329h.013c-.053-.066.007-.052-.006-.105h.019c-.052-.066.033-.118.02-.158l.04.013.019-.079-.019.027c-.106-.053.092-.033.046-.119.033-.046-.198-.197-.112-.237-.04-.046.079.066.052 0 .066.02.027.033.079.04-.013-.053.086-.04.066-.105l.046.013c-.066-.092.106-.092.046-.165-.013-.079.152.013.093-.092h.065c.02-.026-.065-.052-.026-.066.04.02.046-.026.079.007.092-.046-.026-.178.112-.23-.066-.053-.007-.079-.053-.119.033.014.046-.092.092-.013.007.007 0 .013-.013.007l.04.026c.105-.02-.007-.118.026-.164-.02.006-.026.033-.053.006l.027-.046.033.026.052-.065-.052-.007c.039-.026.131-.006.066-.066-.027-.033-.079.007-.079-.033a.49.49 0 0 0 .164-.144c-.053-.013-.046-.033-.053-.053l.047.013c-.04-.092.111.02.085-.066l.026.02-.085-.052c-.066-.093.105.006.013-.106 0 .027-.105-.026-.066-.052l.04.026c0-.02-.02-.033-.007-.039.02.019.066.032.066 0l.046.039-.066-.079c.066-.02.027-.099.092-.092 0 0 .066-.066 0-.112.033.033.066-.006.112.026-.039-.039-.052-.118.007-.118h.006c.086-.066-.006-.184.086-.243-.053-.02-.007-.046-.079-.066-.033-.112.198-.099 0-.211.007-.046.066-.026.086-.039l.006.013a.408.408 0 0 1 .046-.151c-.006-.033-.105-.079-.066-.119.033.033.033.007.04-.006 0 .013.013.026.053.013-.014-.007-.014-.013-.02-.026h.006c0-.033-.013-.033-.026-.027-.006 0-.013-.006-.026-.006.066-.013.033-.086.099-.066.019-.099-.02-.197-.02-.263.039.006.066.033.066.066v-.066c.046.02.013.039.019.066.106-.033-.026-.165.079-.198l-.033-.033h.007c-.02-.006-.039-.033-.046-.052.046.006.099.039.112 0 .053-.013.013-.092.006-.132-.013.02-.039 0-.046-.013.007-.02.053-.013.04-.033l.066.02c-.066-.013-.04-.066-.066-.086.046.007.026.046.053.066l.039-.112c-.026-.065-.066-.013-.099-.052 0-.04-.026-.092.027-.112l-.066-.007c-.013-.079.006-.118.079-.131-.224-.658-.527-.329-.527-.329-.171.131-.066.296-.118.539l.026-.046Z"/><path fill="#fff" d="M144.557 95.189c9.216-2.105 27.913-7.697 27.913-7.697s3.884-.131 8.493-2.368c2.699-1.316.46-1.908 1.053-2.368.592-.46.461-1.974.329-2.829a31.05 31.05 0 0 1-.197-1.513s.395-1.315.131-1.841c-.263-.527-1.975-.395-3.291.131-1.317.526-1.383.526-2.041.658-.659.066 1.251-.921 2.172-1.579.922-.658 1.054-2.04-.856-1.316-1.909.724-3.62 1.185-4.147 1.448-.527.263-1.712.986-2.502 1.644l-.79.592s-.592.526-2.699.592c-2.107.066-23.7-.066-26.926-.263-4.147-.263-5.859 18.814 3.358 16.709Zm-64.306 14.754s.131 7.289 14.207 7.289c10.994 0 30.494-7.289 30.494-7.289H80.251Z"/><path fill="#fff" d="M177.473 78.414c.198 1.25 2.37.856 3.424.46 1.053-.394 2.041-.92 1.646-1.972-.395-1.053-2.305-.395-2.897-.132-.593.263-2.436.592-2.173 1.644Z"/><path fill="#fff" d="M177.737 81.111c.197.987 2.238.658 3.423.33 1.185-.395 2.304-.79 1.909-1.974-.461-1.184-1.58-.724-2.699-.395-1.185.395-2.831.987-2.633 2.04Z"/><path fill="#fff" d="M178.329 83.085c.198.855 1.514.855 2.897.395 1.382-.46 1.843-.856 1.514-1.776-.198-.592-1.514-.461-2.37-.132-.856.395-2.238.724-2.041 1.513Z"/><path fill="#fff" d="M178.856 84.927c.197.723 1.251.658 2.37.329 1.119-.395 1.514-.724 1.251-1.448-.132-.46-1.251-.394-1.909-.065-.725.329-1.91.592-1.712 1.184Z"/><path fill="#0F172A" d="M183.333 80.454c.131-.33.131-.724 0-1.119-.198-.572-.547-.828-.961-.907.151-.132.276-.29.368-.474.132-.329.132-.658 0-1.052-.415-1.185-2.218-.968-3.048-.724-.263.04-.527.085-.77.158l.243-.158c.264-.171.567-.434.744-.757a1.33 1.33 0 0 0 .198-.592c.02-.25-.046-.506-.231-.67a.957.957 0 0 0-.645-.237c-.21-.014-.375.02-.546.065-.329.08-.632.198-.902.303l-.856.302-1.712.573-.855.296-.441.197-.395.224-1.515.967-1.395 1.052-.02.02a2.463 2.463 0 0 1-.606.25 5.412 5.412 0 0 1-.737.145c-.5.066-1.007.092-1.514.085l-.362-.052c-.158-.08-2.278.131-2.594.052l-.961.04c-.264-.013-.843-.033-.362-.053-.889-.007-.909.007-1.554.033l-.955-.066c-3.015-.052-5.661 0-8.69-.026l-.21-1.75a1.746 1.746 0 0 0-.31-.743c-.131-.25-.375-.526-.81-.704-.289-.132-.658-.092-.987-.099l-1.172.007-3.028.026.132-.04-3.555.132-2.877.158c-.132-.118-.705-.118-1.284-.197-.593-.053-1.185-.21-1.468-.33h.066c-.751-.21-1.475-.604-2.022-1.203-.289-.263-.526-.612-.789-.92-.224-.343-.481-.645-.712-.968.047.04.093.066.31.342-.658-.92-1.429-2.368-1.369-2.486-1.278-2.52-2.785-6.23-3.7-7.828l.079.105c-.527-.908-.573-1.23-1.133-2.276-.013-.066-.046-.145-.032-.132-.284-.5-1.034-.986-1.034-.986-2.39-4.579-5.155-8.026-7.505-10.446a34.044 34.044 0 0 0-1.527-2.171c-1.482-1.908-3.147-3.664-5.056-5.052-.935-.724-1.962-1.296-2.989-1.829-1.054-.48-2.107-.92-3.206-1.184l-.362-.197c-.066-.106-.698-.145-1.337-.198-.645-.04-1.316 0-1.488-.085-.349-.02-.704.046-1.04.066-.283-.02-.895-.014-.395-.066-.948.04-.968.066-1.646.177-.342.007-.69.02-1.04.053-1.58.224-3.061.763-4.345 1.592-.527-.053-1.303-.099-1.995-.02-.408.02-.776.066-1.053.119l-.441.079c-2.712.5-4.582 1.545-6.353 2.782-1.764 1.263-3.436 2.829-5.543 5.131l-2.304 2.618c-.659.757-1.198 1.447-1.745 2.132-1.093 1.38-2.14 2.828-3.673 5.196a127.946 127.946 0 0 0-4.293 7c-.25.578-.671 1.335-1.119 2.117-.415.79-.869 1.605-1.145 2.303l-.33.487c-.2.507-.426 1.003-.678 1.486l-.006-.04c-.264.724-.645 1.514-.75 1.876l-.007-.04-.343.875.027-.164-.626 1.933c-.177.658-.395 1.27-.54 1.869l.119-.08c-.178.632-.316 1.172-.382 1.672l-.112.703-.052.658-.053.658-.02.684c-.026.46-.02.987-.02 1.579l-.026-.033.593 3.828c.197 1.171.408 2.395 1.139 3.816-.185-.355.02.177-.014.158.606 1.368 1.699 2.565 1.857 2.447.724.776.566.658.605.809.047-.066.751.526 1.416 1l-.33-.198c.626.474 1.284.875 1.95 1.263l-.31-.368c1.02.658.158.329 1.205.868l.046-.118c1.481.802 2.33 1.368 3.91 1.934 1.666.474 3.47.724 5.267.513.276-.026.546-.066.823-.118l-.685 5.644c-.355 3.262-.46 5.216.132 2.743l-.145 1.085c0 .132-.066.592-.132.724v.065c0 .198-.065.264-.065.329v.066h1.316v.132l-1.303.098-.21.02-.02-.243-.007-.053c-.005-.04 0-.08.013-.118.013-.066.02-.079.026-.099a.437.437 0 0 0 0-.132c.007-.046-.006-.092.013-.131.046-.243.04-.395.04-.559-.007-.105-.04-.263-.053-.342-.04-.184-.066-.244-.112-.211s-.066.171-.092.382l-.013.079c-.007 0-.007.013-.013.033a4.844 4.844 0 0 0-.04.151c-.013.052-.033.112-.046.171-.026.066-.02.066-.066.217-.02.053-.026.112-.046.178v.046c-.013 0-.013-.007-.066.118-.006.033-.02.079-.026.132l-.006.092v.052l-.04.658.75.046 1.33.066c0 .007 0 .02.007.033l.013.085c.217 1.974 1.12 3.408 2.304 4.447 1.205 1.033 2.68 1.822 4.793 2.434.922.263 1.692.441 2.37.605l1.89.303c.605.118 1.217.118 1.922.164.704.027 1.514.092 2.482.013.921-.039 1.909-.032 2.85-.144l2.798-.316c.83-.263 2.357-.342 3.338-.632h.395c.329-.105.724-.21 1.086-.236l-.02.026c.501-.158 1.087-.237 1.337-.316l-.02.027c.198-.04.408-.099.619-.152l-.099.066a32.074 32.074 0 0 1 2.594-.658l-.092-.079c1.731-.355 2.304-.697 3.871-1.026l-.013.026c.921-.414 1.698-.592 2.482-.789.776-.21 1.56-.421 2.501-.855-.237.112.119.013.106.039.888-.348 1.843-.703 1.797-.881.658-.23.553-.132.658-.099-.033-.079.527-.329 1.027-.526l-.224.118 1.449-.579-.343-.039c.79-.263.264.099.988-.224l-.066-.118c.876-.329 1.501-.434 2.278-.658l3.535-.026c.474-.04 1.053-.053 1.685-.066l2.897-.007-.474-2.499a25.109 25.109 0 0 0-.329-1.467l-.066-.79c-.171-.684-.349-1.493-.434-2.197l.033.04c-.251-1.026-.435-2.197-.56-2.71l.033.039-.066-.289c.066.006.145.006.237.013.099-.026.25-.04.395-.066.007.007.033.007.02.02.875-.066.724-.092.316-.066.02-.013-.013-.02-.145-.033.922.04 2.535-.177 2.653-.085 2.633-.277 4.477-.658 6.623-1.066.263.02-.244.158-.869.283l1.527-.283c0 .092-.869.21-1.343.296 1.857-.158 3.733-.81 5.873-1.197l.421-.178.132-.02c-.014-.032.447-.197.75-.296.316-.006.026.185 1.053-.118.422-.079 1.001-.263 1.6-.48l.902-.342c.35-.127.664-.337.915-.612-.263.263-.395.296-.395.283-.007-.02.105-.105.211-.217.461-.428.691-.79.744-1.296l.085-.04a.495.495 0 0 1-.019-.184c-.007-.158-.053-.394-.086-.572l-.132-.743c.013-.007.027-.007.04-.014.052.264.112.685.151.757l-.099-.77 6.255-1.736-.04.026c3.707-1.21 5.951-1.592 9.763-2.862-.474.158.217-.032.178-.006l1.317-.395.553-.17c.164-.014.395-.04.579-.067.737-.098 1.231-.223 1.238-.276 1.343-.243 1.092-.197 1.277-.178-.02-.045 1.132-.328 2.139-.657l-.46.164a27.527 27.527 0 0 0 2.85-1.066l-.592.145.46-.177c.461-.04.955-.198 1.251-.25.988-.33 1.778-.724 1.449-1.776-.066-.132-.132-.264-.395-.395-.047-.026-.106-.033-.158-.046.671-.349 1.092-.836.816-1.73a1.01 1.01 0 0 0-.389-.415c.343-.197.593-.407.744-.723l.06.033ZM92.219 39.82c.48-.086.89-.198 1.238-.244l.408-.066.145.224c-.889.02-1.764.112-2.633.29.296-.086.579-.172.856-.211l-.014.007ZM79.856 97.754l-.29.086-.006-.014c.098-.02.197-.046.296-.065v-.007Zm.428 11.446 1.58-.007-1.56.086c0-.02-.014-.053-.014-.079h-.006Zm41.238 1.513c.434-.178.263.092-.283.263l.112-.131c-.297.131-.395.197-.593.25.165-.106.053-.145-.382.026l.264-.197-.79.434c-.678.158-1.673.618-1.975.592 0 0-1.422.414-1.712.638.263-.165-.527.066-.329-.092-.343.197-1.409.592-1.87.631l.079-.033c-1.626.408-2.725.895-4.213 1.184.092.079-.698.211-.474.283-1.488.48-2.818.415-3.292.869-.691.157-.843.065-1.205.131l.165-.053c-1.297.296-1.679.329-2.653.481-.481.112-.527.296-1.416.381.264-.112-.079-.039-.408-.006.211-.033.264-.066-.164-.066a1.083 1.083 0 0 1-.237.066c-.007-.007-.02-.007-.013-.014-.547.079-.448.093-.198.066-.013.013.013.027.092.033-.58-.033-1.58.158-1.665.046-.823.112-1.528.151-2.2.217-.67.053-1.316.152-2 .152-.152-.079.164-.093.566-.132-.33.033-.646.007-.975.007.013-.093.56-.02.856-.046-.58-.066-1.172-.066-1.79-.053-.62.013-1.278.046-1.936-.132l-.283.033-.08-.02c0 .04-.309.053-.506.04-.178-.099.04-.171-.626-.25-.506-.151-1.461-.289-2.146-.395.356.092.23.112.066.099-.329-.066-.474-.237-.724-.283v-.112c.092.132-.856-.197-.987-.197-.145-.132.506.112.605.085-.625-.217-.79-.263-.921-.355l-.876-.447c-.658-.263.066.145-.283.066-.277-.145-.527-.329-.79-.507l-.395-.283a6.267 6.267 0 0 1-.35-.381l.1.23-.593-.553c-.178-.171-.29-.374-.415-.539-.118-.178-.243-.329-.329-.526l-.21-.553a7.627 7.627 0 0 1-.685-1.697l1.527.04c7.209.197 10.929-.066 19.507-.132l17.36.151h4.292c-.921.527-.592.066-1.619.684v.007Zm57.848-33.792c.131-.066.197-.066.329-.131 1.514-.527 2.436-.23 2.633.296.066.263.066.46 0 .657-.145.33-.592.56-1.027.737-.303.066-.606.165-.882.25l-.132.066c-.079.02-.171.053-.263.079-.711.151-1.514.197-1.975-.079-.198-.066-.263-.197-.329-.395-.132-.657.658-1.282 1.646-1.48Zm-1.403 8.98c-.296.078-.612.184-1.711.545.875-.263.447.007-.659.25l.264-.111c-.593.157-.79.217-1.205.282.355-.098.178-.092-.711.066l.592-.164c-.553.131-1.119.243-1.678.328-.079.007-.165.007-.251.014l-.158.006c-.079 0-.164.04-.197.046l-.56.158-1.145.342c-.744.217-1.383.408-1.659.46 0 0-2.791.79-3.423 1.04.546-.197-.988.224-.573.046-.705.263-2.831.921-3.7 1.099l.158-.053c-2.673.71-4.674 1.355-6.939 1.974l-.197-1.58c-.218-1.118-.066.218-.231-.308-.131-1-.329-1.974-.408-3.125l-.046.375c-.296-1.875-.421-3-.481-4.276l-.546-3.026-.158-1.315h.941l.066.052c2.238-.066 4.213.099 5.701.02 2.304-.026 1.541.158 3.95.066l.935.066c1.027.013.738-.08 1.876-.047-.065.046 1.449.033.771.066.697.007 1.395.026 2.146-.033a7.87 7.87 0 0 0 1.139-.177c.197-.046.395-.099.592-.171.211-.086.369-.132.639-.33l-.026.02.803-.611a12 12 0 0 1 1.711-1.178c.31-.177.659-.375.955-.473.625-.33 2.304-.79 2.791-1.04.027 0 .244-.066.527-.164.283-.099.632-.23.882-.303.263-.066.448-.066.461-.052.026.02-.04-.014-.441.105-.132.046-.382.131-.375.118l-.198.132c.244-.08.441-.145.632-.198.184-.046.382-.065.441-.046.027.027.119-.026-.066.316a1.5 1.5 0 0 1-.329.355c-.164.132-.342.244-.526.369-.369.243-.758.48-1.172.737.5-.296 1.139-.685.724-.395l-.724.44c-.119.08-.244.159-.369.25-.066.053-.132.086-.23.198-.014.02-.04.046-.066.099-.007-.007-.013-.014-.027-.02.02-.04.04-.066.047-.086.046-.066.065-.079.092-.111-.033.032-.053.046-.099.105-.007.013-.033.046-.053.085a.226.226 0 0 0-.085-.02.284.284 0 0 0-.264.264s0 1.381-.855 2.5c-.856 1.118-2.897 1.38-2.897 1.38-.198.067-.263.198-.263.33 0 .131.131.263.263.263.085-.04 1.001-.165 1.909-.592 2.087 1.842 1.514 4.473 1.514 4.604-.066.132.066.264.198.33h.065c.132 0 .198-.066.264-.264.066-.066.658-2.927-1.514-4.96.329-.197.625-.46.855-.763.725-.907.922-1.953.968-2.48.066.04.099.046.145.066.066.02.066.013.119.02.065.006.085 0 .131 0h.007l.033-.007c.046-.006.131-.04.263-.085-.14.26-.188.558-.138.848.066.33.263.592.592.79.211.131.448.197.711.23-.625.381-1.106.888-.974 1.546.066.263.198.526.461.658.23.131.487.197.777.236-.448.283-.764.645-.646 1.145.066.329.264.592.527.724.158.079.343.131.527.157-.382.237-.645.54-.527.96a.831.831 0 0 0 .461.593c.02.013.046.02.066.033l-1.185.276-.007-.02Zm-.856-8.177-.098.033h-.033c-.046.006-.066.013-.132.013-.039-.007-.039.006-.112-.013-.046-.02-.085-.02-.145-.066 0-.007 0-.02.007-.026.066.046.086.046.132.065.164.04.197.02.263.02h.033l.092-.02-.007-.006Zm3.977 7.203c-.79.263-1.449.329-1.778.131-.131-.066-.197-.131-.197-.263-.066-.263.658-.526 1.119-.723.132 0 .263-.066.395-.132a2.984 2.984 0 0 1 1.053-.197c.132 0 .264.066.395.066l.066.065c.132.395.198.658-1.053 1.053Zm0-1.776c-.922.329-1.778.394-2.239.197-.131-.066-.197-.197-.263-.329-.132-.395.724-.724 1.448-.987.103-.05.209-.094.316-.131.314-.055.626-.121.935-.197l.441-.158c.244-.007.461.02.613.092.131.066.131.131.131.131.132.526.132.855-1.382 1.382Zm1.711-2.895c-.151.31-.658.526-1.224.744a4.722 4.722 0 0 0-1.343.309c-.066.033-.132.066-.198.092-.743.112-1.481.132-1.843-.092-.132-.066-.197-.132-.197-.263-.198-.856 1.777-1.513 2.435-1.645l.132-.066c1.317-.394 1.975-.526 2.238.264.066.263.066.46 0 .657Z"/><path fill="#fff" d="m110.521 33.354-5.036-9.604c-.013-.197-.046-.342-.099-.395-.066-.052-.132-.105-.197-.15l-1.778-3.402c-.395-.79-1.382-1.052-2.172-.658l-5.662 2.96c-.79.395-1.053 1.382-.658 2.171l2.29 4.362c-.44-.23-.842-.02-.842-.02.33 1.908 0 4.078-.132 5.394 0 1.382.856 2.566.724 3.486-.131.921-1.185 2.171-4.937 7.434-3.687 5.262-15.998 24.339-15.998 24.339s14.747 11.577 15.603 8.749c.856-2.829 4.806-9.867 7.242-17.3l6.649-20.261s.461-.46 1.251-1.513c.539-.724 1.171-1.58 1.58-2.632l1.514-.789c.79-.395 1.053-1.381.658-2.17Zm-11.455-.592c-.263-.408-.421-1.032-.678-1.868l1.35 2.566c-.23-.093-.442-.395-.672-.698Z"/><path fill="#0F172A" d="M111.476 33.65a1.63 1.63 0 0 0-.132-.427l-.132-.283a4.77 4.77 0 0 0-.243-.48 4.238 4.238 0 0 0-.547-.79c.132-.177-.329-.677-.375-.894l.026.013c-.395-.428-.428-1.073-.79-1.494.027.014.066 0 .132.106-.198-.33-.487-.79-.395-.869-.461-.815-1.02-2-1.448-2.453l.046.02c-.264-.25-.224-.382-.461-.698 0-.026 0-.052.006-.052-.276-.277-2.271-3.895-2.238-4.013-.217-.303-.184-.579-.461-.947l.066-.053a2.266 2.266 0 0 1-.395-.723c-.099-.244-.158-.428-.349-.632-.243-.31-.316-.421-.395-.56-.079-.117-.184-.275-.612-.348a5.206 5.206 0 0 0-.29-.197c-.368-.066-.276.085-.671.04.02-.086-.514.026-.29-.08-.23.007-.987.395-1.139.494-.316.197-.658.395-1.1.526-.111.21-.94.5-.934.526l-1 .58-.422.197.066-.106-.639.283-1.448.816a2.06 2.06 0 0 0-.948.914c.118-.026.006.171-.04.395h-.085c-.053.44-.066.513-.132.592-.046.066-.132.17-.006.605l.144.132c.185.348.23.46.224.54.007.091.395.867.395.867l1.686 3.224-.033-.033.079.164c0 .04-.007.099 0 .171-.04.027-.066.053-.112.086-.086.066-.046.131.118.079v1.315c-.02.408.08 1.184.066 1.855l-.178 1.184-.105.678c-.026.296-.013.526.026.816l-.04-.112c.086.645.29 1.184.435 1.664.152.474.264.901.198 1.224-.066.342-.277.71-.474 1.052l-.639 1.053c-.237.15-1.165 1.611-1.527 2.052l.026-.046c-.79 1.25-1.843 2.434-2.6 3.65.026-.052.013-.091.197-.368l-1.461 2.092c-1.383 2.072-3.312 4.954-4.095 6.342l.046-.1c-.441.79-.639.988-1.165 1.856-.04.04-.08.099-.08.086-.48.868-1.58 2.42-1.974 3.104l-.066.02-1.067 1.658.409-.612c-.033.224-.573.855-1.153 1.743l-2.587-1.486s-6.846 6.71-11.52 16.905c-4.609 10.196-.922 16.117 4.344 19.472 5.267 3.354 14.55 2.697 19.816-5.723 5.267-8.42 6.847-19.472 6.847-19.472l-2.067-1.184c.168-.35.33-.703.487-1.059-.112.112.066-.263.217-.67l.066-.027c.58-1.546.342-.513.922-2.04l.046-.295c.46-1.408.395-.704.856-2.283-.218.612-.198.25.085-.493l-.026.197c.132-.42.178-.566.283-.835-.066.263.02.157.224-.46l-.086.433.316-1.197c.343-.881.75-2.322.935-2.67 0 0 .658-1.921.737-2.382-.085.395.283-.658.231-.329.112-.513.559-2.006.803-2.578l-.033.111c.77-2.17 1.152-3.762 1.863-5.703-.085.066.283-.954.132-.723.592-2.053 1.356-3.658 1.382-4.46.1-.32.212-.636.336-.948l.217-.539v.046l-.033.112c.02-.066.04-.132.046-.158l.33-.382.316-.381.507-.658c.296-.395.579-.763.934-1.316.165-.276.237-.46.33-.684l.032.02c.066-.178.507-.658.606-.92l-.033.085.013-.014c-.026.112-.006.086.033-.026a2.02 2.02 0 0 1 .145-.112l1.08-.559c.082-.045.161-.095.237-.151.114-.032.223-.08.322-.145.316-.217.843-.756.751-1.789l.053.033v-.007Zm-2.765-.92c.006-.02.013-.027.019-.034v-.105l.007.197c-.007 0-.007-.006-.013-.006-.027-.007-.027-.033-.013-.053Zm-12.265-3.355A5.055 5.055 0 0 0 96.38 29a.832.832 0 0 1 .066-.02v.395Zm-.04-.527a.392.392 0 0 1-.052.04c0-.014-.007-.027-.007-.04.02-.006.04 0 .066 0h-.007Zm9.441 10.591-.369.368-.132.171-.065.086-.145.158-.185.592a5.947 5.947 0 0 1-.171.474l-.006-.033c-.185.684-.461 1.427-.547 1.776l-.006-.033-.264.816.027-.145a74.586 74.586 0 0 1-1.106 3.44l.085-.066c-.803 2.25-.967 3.118-1.711 5.144l-.007-.032c-.704 2.63-1.448 4.058-2.172 6.775.092-.329-.066.132-.08.105-.381 1.237-.816 2.54-.724 2.592-.303.888-.29.71-.368.81.046.012-.198.788-.474 1.466l.105-.329-.757 1.96.243-.348c-.447 1.02-.197.223-.592 1.217l.079.02c-.487 1.13-.889 1.855-1.37 2.782L81.588 61.43l3.279-5.184c2.501-4.013 5.76-8.473 8.46-12.479a3.38 3.38 0 0 0 .309-.48l2.593-3.618s.198-.276.5-.763c.152-.243.33-.54.488-.94.084-.226.127-.464.125-.704 0-.264-.053-.494-.112-.724-.132-.46-.296-.888-.428-1.329-.131-.427-.237-.908-.21-1.296.092-.96.197-1.934.197-2.776a10.26 10.26 0 0 0-.171-2.236.777.777 0 0 1 .171.006c.198.112.369.395.494.685.132.302.237.631.31.855l.111.375c.171.592.277 1.15.527 1.756.066.158.145.31.237.454.08.123.163.244.25.362.092.118.171.236.375.414.198.171.441.276.685.276a.937.937 0 0 0 .56-.223.88.88 0 0 0 .171-.132c.092-.066.171-.17.237-.263l.131-.197a4.8 4.8 0 0 0 .33-.724c.197-.46.362-.901.539-1.355l2.384-6.46.309-.822c.092-.23.25-.46.283-.46a.078.078 0 0 1 .066-.007c.006.007.02.013.039.02.027.013.053.04.079.066l.099.184c0 .026 0 .066.007.112 0 .605-.066 1.184-.132 1.776l-.198 1.559c-.05.36-.09.722-.118 1.085-.013.184-.033.375-.053.572l-.019.316v.105c0 .08-.007.132.013.277.006.032.006.065.046.164.02.046.026.066.066.132a.58.58 0 0 0 .408.223.652.652 0 0 0 .309-.066c.119-.065.092-.065.132-.092a1.18 1.18 0 0 0 .099-.111l.118-.198.092-.131a2.47 2.47 0 0 1 .198-.237c.145-.145.263-.171.263-.158.02.007.066.033.132.105.084.09.161.187.23.29a1.063 1.063 0 0 1 .158.473c0 .033.007.04 0 .092-.019.08-.013.132-.046.23l.277.395.296.382c.56.066.434.645.415 1.756.105.132.171.217.237.276l.105.119c.026.04.033.132.04.132a.22.22 0 0 1 .039.052c.041.072.07.15.086.23.046.198.065.428.052.658-.012.477-.085.95-.217 1.408-.105.526-.415 1.217-.856 1.881-.415.658-.941 1.342-1.33 1.882l-.006.039Z"/><path fill="#fff" d="M96.96 23.921c.395-.197.526-.658.329-1.052-.198-.395-.659-.526-1.054-.33-.395.198-.526.659-.329 1.053.198.395.658.527 1.053.33Zm.987 1.974c.395-.198.527-.658.33-1.053-.198-.394-.66-.526-1.054-.329-.395.198-.527.658-.33 1.053.198.395.659.526 1.054.329Zm25.905 35.897.014.118c.013-.007.013-.04-.014-.118Zm.593 4.538a.1.1 0 0 1-.013-.032v.032h.013Z"/><path fill="#fff" d="M132.411 97.675c-.086-.743-.158-1.21-.343-1.697.099-.099-.098-.605-.098-.79l.013.014c-.171-.434-.099-.934-.264-1.355.014.013.046.02.066.118-.066-.309-.178-.737-.118-.776l-.527-2.263.026.026c-.131-.263-.079-.355-.177-.657.006-.02.006-.04.006-.04-.131-.283-.184-.868-.263-1.105l.039-.026-.131-.592.039.223c-.131-.052-.02-.46-.184-.875-.066-.407-.415-.763-.448-1.184-.099-.184.132.158.02-.131.066-.02.066.131.099.046-.092-.283-.04-.494-.158-.842l.046-.026c-.198-.461-.132-.902-.277-1.198-.145-.473.066-.355-.131-.842l.019-.21c-.039-.217-.112-.132-.131-.382.046.007-.033-.309.033-.177-.053-.56-.33-1.08-.395-1.816-.112-.131-.152-.506-.237-.605.033-.026-.158-.724.006-.33.013.034.027.093.013.093l.066.04c0-.428-.217-.724-.296-1.132.013.132.053.283-.007.184l-.079-.375.066.066-.105-.56-.033.087c-.04-.277.02-.395-.119-.685-.065-.131-.006.264-.085-.013l-.231-1.394c-.046.065-.065-.066-.118-.198l.046-.026c-.184-.474.066-.197-.112-.678l-.085-.065c-.198-.415.039-.264-.198-.724.053.197-.086.118-.118-.132l.065.046c-.039-.131-.065-.17-.085-.263.046.066.079.027.02-.164l.092.118-.178-.342c-.02-.296-.198-.723-.158-.855 0 0-.119-.612-.23-.737.065.112.006-.23.085-.144-.092-.145-.25-.592-.243-.79l.013.033c-.132-.704-.382-1.151-.481-1.79-.046.04-.105-.288-.151-.196-.244-.619-.178-1.198-.461-1.369-.092-.282-.046-.355-.079-.506l.033.066-.329-1.092c-.079-.198-.198-.198-.264-.56.066.106.027-.039-.013-.17.033.085.053.105.026-.08-.019-.02-.039-.065-.052-.092 0 0 0-.013.006-.006-.079-.217-.079-.178-.052-.066-.007-.007-.013.007-.013.046-.02-.25-.198-.644-.132-.69l-.639-1.665c.013-.066.086.046.152.197l-.132-.394c.053-.013.099.217.151.329-.065-.494-.395-.941-.493-1.513l-.079-.099-.007-.033c-.02.007-.092-.105-.132-.184.02-.092.106-.026.014-.296-.027-.23-.224-.592-.343-.875.046.151 0 .112-.033.053-.046-.132-.026-.23-.085-.33l.052-.032c-.039.066-.177-.329-.223-.375.019-.092.112.197.151.217l-.283-.81c-.145-.275-.04.067-.132-.045-.098-.25-.23-.487-.296-.79l-.02.112c-.21-.46-.303-.75-.368-1.092-.856-1.697-1.087-1.809-1.073-1.526.006.283.223.987.223.987.395 1.427.79 2.092 1.403 3.75l1.013 3.42.705 2.217c.184.316.276.94.461 1.329v.17c.066.132.131.29.131.441v-.006c.093.197.132.44.185.54l-.013-.007.065.25-.033-.04c.132.355.244.724.316 1.053l.047-.04c.131.724.309.954.395 1.612h-.014c.349.776.224 1.316.573 2.105-.046-.099-.02.053-.033.046.112.382.224.79.329.77.066.282.02.236-.013.282.046-.013.132.224.185.448l-.047-.099.172.625.065-.145c.053.342-.092.112.014.428l.065-.02c.099.46.053.763.106 1.224l1.316 5.591-.039.092c-.066.053.23.46.165.526l.079.198c0 .066.006.184-.033.085.039.184.052.198.105.316l-.007.21c.132.744.356 1.356.501 2.132.092.954.553 2.697.816 3.697.415 1.4.395 3.124.823 4.558 0 .053.046.171.066.165l.237 1.342.54 2.618c.243.987.487 1.362.395-1.184l.026.04-.026.032ZM64.912 80.276l.052-.066c-.013 0-.026.013-.052.066Zm1.909-2.697c0 .013-.007.02-.007.026l.007-.026Z"/><path fill="#fff" d="m80.238 60.607.033-.006c-.461-.283-.744-.447-1.12-.54 0-.032-.02-.065-.065-.092a1.805 1.805 0 0 0-.23-.125l-.25-.111c-.04-.04-.067.02-.1.032l-.066.053.014-.02a2.797 2.797 0 0 1-.29.277c-.086.065-.132.105-.217.157-.132.1-.277.198-.369.33 0-.014-.013-.04.04-.093-.165.165-.376.395-.435.362-.395.395-.961.901-1.132 1.23v-.033c-.092.198-.178.198-.303.375-.013 0-.026.013-.033.007-.099.197-.434.46-.527.618l-.04-.02-.289.33.119-.113c.052.132-.277.198-.435.474-.21.21-.197.612-.46.803-.053.144.013-.158-.1.033-.052-.033.04-.106-.039-.093-.118.178-.276.224-.415.461l-.046-.026c-.151.329-.46.46-.546.69-.198.303-.263.099-.415.448l-.132.065c-.105.119-.006.132-.131.264-.027-.033-.165.15-.132.046-.296.276-.408.704-.81 1.052 0 .132-.197.329-.197.434-.04-.006-.31.434-.198.145.007-.026.033-.066.046-.053l-.02-.065c-.243.197-.263.473-.447.71.066-.066.132-.164.112-.079l-.158.224v-.066l-.244.329.066-.02c-.132.158-.243.171-.303.395-.02.105.158-.132.066.066a7.384 7.384 0 0 0-.619.809c.066 0 .013.079-.02.164l-.045-.013c-.132.349-.165.066-.297.395l.027.092c-.08.329-.178.098-.237.48.065-.132.131-.007.026.132l-.02-.066c-.04.092-.033.131-.079.177.007-.065-.046-.065-.105.066l-.007-.112-.052.277c-.145.157-.25.48-.35.526 0 0-.236.381-.217.506 0-.098-.131.112-.144.027-.007.131-.132.46-.237.546l.006-.027c-.276.434-.31.816-.573 1.198.066.006-.065.21.02.184-.132.46-.494.723-.362.967-.079.197-.151.21-.21.309l.006-.053-.316.757c-.04.145.046.197-.079.44-.007-.098-.04.007-.079.1.02-.067.013-.086-.066.025.007.02 0 .053 0 .08-.006 0-.006.006-.013 0-.053.157-.026.131.007.065.006.007.013 0 .032-.013-.118.132-.184.447-.263.434-.178.46-.237.83-.368 1.224-.053.033-.047-.066-.014-.198l-.098.277c-.046-.02.032-.171.065-.263-.21.296-.184.703-.395 1.052l.007.092-.013.02c.02.006.013.105 0 .164-.066.04-.099-.04-.165.152-.099.131-.131.44-.184.644.046-.105.066-.066.066-.006-.033.098-.099.131-.106.217l-.065-.013c.065-.02-.027.263-.02.315-.066.04.013-.164-.007-.197l-.197.579c-.027.224.066-.02.085.099-.052.184-.066.374-.177.572l.065-.046c-.079.355-.151.559-.276.77-.198 1.348-.066 1.526.066 1.368.145-.152.342-.645.342-.645.435-.96.46-1.526.836-2.717l.988-2.335.605-1.54c.02-.262.277-.637.33-.94l.092-.085a.68.68 0 0 1 .118-.303v.013c.033-.151.132-.302.132-.381l.006.013.066-.171.007.04c.078-.252.181-.495.31-.724l-.067-.007c.283-.44.264-.658.527-1.052l.007.013c.131-.592.513-.79.671-1.395-.02.066.04-.013.053 0 .118-.263.263-.526.158-.579.099-.177.112-.131.164-.131-.046-.02.027-.198.1-.33l-.02.067.217-.408-.132.033c.145-.198.132.006.23-.21l-.065-.04c.184-.283.395-.395.592-.645.737-1.118 1.402-2.434 2.278-3.355l.079-.006c.079.032.112-.349.197-.343l.066-.131c.04-.026.106-.079.066-.013.086-.105.08-.119.119-.21l.131-.08c.362-.394.58-.802.955-1.223.527-.44 1.29-1.447 1.777-2.013.626-.836 1.712-1.428 2.41-2.224.033-.013.079-.092.066-.098l.098-.08c.02-.006.04-.045.066-.032l.237.132c0 .013 4.167 2.216 1.317-.066l.066.052ZM98.046 70.81c-.198.184-.566 1.421-1.547 4.276L96.486 75l-1.028 4.013c-.243.132-.46 1.395-.658 1.763v-.04c-.21 1.08-.869 2.066-1.139 3.08 0-.047-.04-.086.053-.303-.277.71-.632 1.69-.77 1.69-.692 1.684-1.975 3.861-2.45 4.934l.02-.08c-.276.593-.46.705-.836 1.343-.033.026-.066.065-.066.052-.184.31-.526.71-.855 1.092-.33.395-.711.684-.896.921l-.079-.026c-.329.349-.69.638-1.053.92l.428-.315c-.033.25-.882.612-1.699 1.224-.21.118-.395.282-.592.427l-.593.448c-.395.328-.842.591-1.336.723-.421.263.349-.296-.303.026-.052-.092.29-.184.092-.197-.316.158-.605.197-.908.263-.31.046-.724.592-1.14.678l-.355.079c-.434.29-.342.013-.46.131-.23.23.177.375.592.46l1.857-.44c1.165-.263 2.83-.888 4.246-1.934.382-.224.698-.54 1.033-.803l.494-.414.441-.447.817-.856.658-.822c1.073-1.46 2.146-3.059 3.094-4.75.948-1.683 1.817-3.446 2.324-5.196.066-.105.132-.408.112-.408l1.066-3.144.62-2.237.842-4.104c.197-1.23.21-2.105.02-1.921l-.033-.02Z"/></svg>