<svg xmlns="http://www.w3.org/2000/svg" width="195" height="169" fill="none"><path fill="#0F172A" fill-rule="evenodd" d="M53.5 166.5c-.473-1.406-1.473-2.073-3-2-1.511-1.976-2.344-4.309-2.5-7 1.706-10.144-1.294-18.477-9-25l-2-8a449.4 449.4 0 0 1-27-24C-.226 85.961-2.226 70.294 4 53.5 10.72 38.114 21.553 26.614 36.5 19c15.409-5.323 30.075-3.657 44 5a685.585 685.585 0 0 0 26 17.5c2.29-.967 4.29-2.3 6-4 1.406-.473 2.073-1.473 2-3a230.542 230.542 0 0 1 12-17c1.406-.473 2.073-1.473 2-3a26.707 26.707 0 0 1 5-7c1.406-.473 2.073-1.473 2-3 1-3.648 3.334-4.814 7-3.5l35 25c18.849 18.942 21.683 40.109 8.5 63.5-8.685 14.771-21.185 24.938-37.5 30.5l-7.5 7.5a133.243 133.243 0 0 0-2 21c-5.333 8-10.667 8-16 0a392.715 392.715 0 0 1-2-18c-1.735-8.804-5.569-16.471-11.5-23a252.821 252.821 0 0 0-21.5-15c-8.167 7.133-14 15.966-17.5 26.5a17.65 17.65 0 0 1 .5 9.5l-5 10a184.612 184.612 0 0 1-2 23c-1.229 3.952-3.896 6.285-8 7-.995-.566-1.828-1.233-2.5-2Zm92-137c2.489-.202 4.823.298 7 1.5A74.398 74.398 0 0 1 168 44.5c2.906 4.214 4.74 8.881 5.5 14-2.566 13.298-8.899 24.464-19 33.5-10.889 7.154-21.889 7.154-33 0a31.317 31.317 0 0 0-8-5 14.506 14.506 0 0 1-4-5 941.046 941.046 0 0 1 36-52.5Zm-67 34c-1.406.473-2.073 1.473-2 3a26.707 26.707 0 0 0-5 7c-1.406.473-2.073 1.473-2 3a26.707 26.707 0 0 0-5 7c-1.406.473-2.073 1.473-2 3a313.512 313.512 0 0 1-14 16.5c-11.541-2.221-20.041-8.721-25.5-19.5a27.849 27.849 0 0 1-1-13C26.182 56.626 34.348 45.792 46.5 38c9.584-3.364 18.584-2.031 27 4a86.401 86.401 0 0 1 10 7.5c.985 1.598 1.151 3.265.5 5a3555.729 3555.729 0 0 1-5.5 9Z" clip-rule="evenodd"/></svg>